<mxfile host="Electron" modified="2024-04-19T14:14:24.748Z" agent="Mozilla/5.0 (Windows NT 10.0; Win64; x64) AppleWebKit/537.36 (KHTML, like Gecko) draw.io/24.2.5 Chrome/120.0.6099.109 Electron/28.1.0 Safari/537.36" etag="HMTnKuCVjG9IJtI3pL7r" version="24.2.5" type="device">
  <diagram name="Page-1" id="TQK3_B6QZsEgLmEzqw3H">
    <mxGraphModel dx="9395" dy="467" grid="1" gridSize="10" guides="1" tooltips="1" connect="1" arrows="1" fold="1" page="1" pageScale="1" pageWidth="850" pageHeight="1100" math="0" shadow="0">
      <root>
        <mxCell id="0" />
        <mxCell id="1" parent="0" />
        <mxCell id="X-ZQsPL9y_GYgDHJkSPW-2" value="Data Loader" style="rounded=0;whiteSpace=wrap;html=1;" parent="1" vertex="1">
          <mxGeometry x="330" y="230" width="120" height="60" as="geometry" />
        </mxCell>
        <mxCell id="X-ZQsPL9y_GYgDHJkSPW-3" value="original labels -&amp;gt; model specific labels" style="whiteSpace=wrap;html=1;" parent="1" vertex="1">
          <mxGeometry x="-280" y="310" width="220" height="60" as="geometry" />
        </mxCell>
        <mxCell id="X-ZQsPL9y_GYgDHJkSPW-5" value="Training" style="text;html=1;strokeColor=none;fillColor=none;align=center;verticalAlign=middle;whiteSpace=wrap;rounded=0;fontStyle=1" parent="1" vertex="1">
          <mxGeometry x="-380" y="160" width="60" height="30" as="geometry" />
        </mxCell>
        <mxCell id="X-ZQsPL9y_GYgDHJkSPW-6" value="" style="endArrow=none;dashed=1;html=1;rounded=0;fontStyle=1" parent="1" edge="1">
          <mxGeometry width="50" height="50" relative="1" as="geometry">
            <mxPoint x="-390" y="200" as="sourcePoint" />
            <mxPoint x="210" y="200" as="targetPoint" />
          </mxGeometry>
        </mxCell>
        <mxCell id="X-ZQsPL9y_GYgDHJkSPW-7" value="" style="endArrow=none;dashed=1;html=1;rounded=0;" parent="1" edge="1">
          <mxGeometry width="50" height="50" relative="1" as="geometry">
            <mxPoint x="310" y="200" as="sourcePoint" />
            <mxPoint x="780" y="200" as="targetPoint" />
          </mxGeometry>
        </mxCell>
        <mxCell id="X-ZQsPL9y_GYgDHJkSPW-8" value="General" style="text;html=1;strokeColor=none;fillColor=none;align=center;verticalAlign=middle;whiteSpace=wrap;rounded=0;" parent="1" vertex="1">
          <mxGeometry x="310" y="160" width="60" height="30" as="geometry" />
        </mxCell>
        <mxCell id="X-ZQsPL9y_GYgDHJkSPW-9" value="Chunking" style="text;html=1;strokeColor=none;fillColor=none;align=center;verticalAlign=middle;whiteSpace=wrap;rounded=0;" parent="1" vertex="1">
          <mxGeometry x="325" y="310" width="60" height="30" as="geometry" />
        </mxCell>
        <mxCell id="X-ZQsPL9y_GYgDHJkSPW-10" value="Token Mapper" style="text;html=1;align=center;verticalAlign=middle;resizable=0;points=[];autosize=1;strokeColor=none;fillColor=none;" parent="1" vertex="1">
          <mxGeometry x="320" y="360" width="100" height="30" as="geometry" />
        </mxCell>
        <mxCell id="X-ZQsPL9y_GYgDHJkSPW-11" value="" style="rounded=0;whiteSpace=wrap;html=1;" parent="1" vertex="1">
          <mxGeometry x="330" y="460" width="120" height="40" as="geometry" />
        </mxCell>
        <mxCell id="8S1vmBmsy5B2ATM8N4Ts-1" value="Pipeline" style="text;html=1;strokeColor=none;fillColor=none;align=center;verticalAlign=middle;whiteSpace=wrap;rounded=0;" parent="1" vertex="1">
          <mxGeometry x="-1080" y="160" width="60" height="30" as="geometry" />
        </mxCell>
        <mxCell id="8S1vmBmsy5B2ATM8N4Ts-2" value="" style="endArrow=none;dashed=1;html=1;rounded=0;" parent="1" edge="1">
          <mxGeometry width="50" height="50" relative="1" as="geometry">
            <mxPoint x="-1100" y="200" as="sourcePoint" />
            <mxPoint x="-500" y="200" as="targetPoint" />
          </mxGeometry>
        </mxCell>
        <mxCell id="8S1vmBmsy5B2ATM8N4Ts-15" value="Initialization" style="endArrow=none;dashed=1;html=1;rounded=0;align=left;" parent="1" edge="1">
          <mxGeometry x="-1" y="15" width="50" height="50" relative="1" as="geometry">
            <mxPoint x="-1040" y="259.75" as="sourcePoint" />
            <mxPoint x="-570" y="259.58" as="targetPoint" />
            <mxPoint as="offset" />
          </mxGeometry>
        </mxCell>
        <mxCell id="8S1vmBmsy5B2ATM8N4Ts-21" value="Preprocessing" style="endArrow=none;dashed=1;html=1;rounded=0;align=left;" parent="1" edge="1">
          <mxGeometry x="-1" y="15" width="50" height="50" relative="1" as="geometry">
            <mxPoint x="-1020" y="440.1700000000001" as="sourcePoint" />
            <mxPoint x="-550" y="440" as="targetPoint" />
            <mxPoint as="offset" />
          </mxGeometry>
        </mxCell>
        <mxCell id="8S1vmBmsy5B2ATM8N4Ts-22" value="Model Run" style="endArrow=none;dashed=1;html=1;rounded=0;align=left;" parent="1" edge="1">
          <mxGeometry x="-1" y="15" width="50" height="50" relative="1" as="geometry">
            <mxPoint x="-1010" y="930.1700000000001" as="sourcePoint" />
            <mxPoint x="-540" y="930" as="targetPoint" />
            <mxPoint as="offset" />
          </mxGeometry>
        </mxCell>
        <mxCell id="8S1vmBmsy5B2ATM8N4Ts-23" value="Postprocessing and Metrics" style="endArrow=none;dashed=1;html=1;rounded=0;align=left;" parent="1" edge="1">
          <mxGeometry x="-1" y="15" width="50" height="50" relative="1" as="geometry">
            <mxPoint x="-1020" y="1050.17" as="sourcePoint" />
            <mxPoint x="-550" y="1050" as="targetPoint" />
            <mxPoint as="offset" />
          </mxGeometry>
        </mxCell>
        <mxCell id="8S1vmBmsy5B2ATM8N4Ts-25" value="Initilaize Model and Model adapter" style="rounded=0;whiteSpace=wrap;html=1;" parent="1" vertex="1">
          <mxGeometry x="-850" y="320" width="120" height="60" as="geometry" />
        </mxCell>
        <mxCell id="8S1vmBmsy5B2ATM8N4Ts-26" value="Load Data to Dataset" style="rounded=0;whiteSpace=wrap;html=1;" parent="1" vertex="1">
          <mxGeometry x="-1010" y="320" width="120" height="60" as="geometry" />
        </mxCell>
        <mxCell id="8S1vmBmsy5B2ATM8N4Ts-29" value="Define Functions" style="rounded=0;whiteSpace=wrap;html=1;" parent="1" vertex="1">
          <mxGeometry x="-700" y="320" width="120" height="60" as="geometry" />
        </mxCell>
        <mxCell id="8S1vmBmsy5B2ATM8N4Ts-31" value="Initilalize Trainer" style="rounded=0;whiteSpace=wrap;html=1;" parent="1" vertex="1">
          <mxGeometry x="-850" y="830" width="120" height="60" as="geometry" />
        </mxCell>
        <mxCell id="8S1vmBmsy5B2ATM8N4Ts-32" value="Tokenize" style="rounded=0;whiteSpace=wrap;html=1;" parent="1" vertex="1">
          <mxGeometry x="-850" y="470" width="120" height="60" as="geometry" />
        </mxCell>
        <mxCell id="8S1vmBmsy5B2ATM8N4Ts-33" value="Split Dataset (Train,Eval)" style="rounded=0;whiteSpace=wrap;html=1;" parent="1" vertex="1">
          <mxGeometry x="-850" y="690" width="120" height="60" as="geometry" />
        </mxCell>
        <mxCell id="8S1vmBmsy5B2ATM8N4Ts-34" value="Align dataset labels to model labels" style="rounded=0;whiteSpace=wrap;html=1;" parent="1" vertex="1">
          <mxGeometry x="-850" y="540" width="120" height="60" as="geometry" />
        </mxCell>
        <mxCell id="8S1vmBmsy5B2ATM8N4Ts-35" value="Initialize Data Collator" style="rounded=0;whiteSpace=wrap;html=1;" parent="1" vertex="1">
          <mxGeometry x="-850" y="760" width="120" height="60" as="geometry" />
        </mxCell>
        <mxCell id="8S1vmBmsy5B2ATM8N4Ts-36" value="Run Train / Eval / Test" style="rounded=0;whiteSpace=wrap;html=1;" parent="1" vertex="1">
          <mxGeometry x="-850" y="950" width="120" height="60" as="geometry" />
        </mxCell>
        <mxCell id="8S1vmBmsy5B2ATM8N4Ts-37" value="Softmax" style="rounded=0;whiteSpace=wrap;html=1;" parent="1" vertex="1">
          <mxGeometry x="-840" y="1130" width="120" height="60" as="geometry" />
        </mxCell>
        <mxCell id="8S1vmBmsy5B2ATM8N4Ts-38" value="Probability and positive label thresholding" style="rounded=0;whiteSpace=wrap;html=1;" parent="1" vertex="1">
          <mxGeometry x="-840" y="1270" width="120" height="60" as="geometry" />
        </mxCell>
        <mxCell id="8S1vmBmsy5B2ATM8N4Ts-39" value="Preprocess logits" style="endArrow=none;dashed=1;html=1;rounded=0;align=left;" parent="1" edge="1">
          <mxGeometry x="-1" y="15" width="50" height="50" relative="1" as="geometry">
            <mxPoint x="-925" y="1100" as="sourcePoint" />
            <mxPoint x="-635" y="1100" as="targetPoint" />
            <mxPoint as="offset" />
          </mxGeometry>
        </mxCell>
        <mxCell id="8S1vmBmsy5B2ATM8N4Ts-40" value="Compute Metrics" style="endArrow=none;dashed=1;html=1;rounded=0;align=left;" parent="1" edge="1">
          <mxGeometry x="-1" y="15" width="50" height="50" relative="1" as="geometry">
            <mxPoint x="-925" y="1240" as="sourcePoint" />
            <mxPoint x="-635" y="1240" as="targetPoint" />
            <mxPoint as="offset" />
          </mxGeometry>
        </mxCell>
        <mxCell id="8S1vmBmsy5B2ATM8N4Ts-41" value="Filter out irrelevant labels&lt;br&gt;(outside dataset labels, padding)" style="rounded=0;whiteSpace=wrap;html=1;" parent="1" vertex="1">
          <mxGeometry x="-840" y="1360" width="120" height="60" as="geometry" />
        </mxCell>
        <mxCell id="8S1vmBmsy5B2ATM8N4Ts-42" value="Compute Token-level metrics" style="rounded=0;whiteSpace=wrap;html=1;" parent="1" vertex="1">
          <mxGeometry x="-840" y="1450" width="120" height="60" as="geometry" />
        </mxCell>
        <mxCell id="8S1vmBmsy5B2ATM8N4Ts-43" value="Align tokens to words" style="rounded=0;whiteSpace=wrap;html=1;" parent="1" vertex="1">
          <mxGeometry x="-840" y="1540" width="120" height="60" as="geometry" />
        </mxCell>
        <mxCell id="8S1vmBmsy5B2ATM8N4Ts-44" value="Compute word-level metrics" style="rounded=0;whiteSpace=wrap;html=1;" parent="1" vertex="1">
          <mxGeometry x="-840" y="1630" width="120" height="60" as="geometry" />
        </mxCell>
        <mxCell id="8S1vmBmsy5B2ATM8N4Ts-46" value="Save changes to Dataset" style="rounded=0;whiteSpace=wrap;html=1;" parent="1" vertex="1">
          <mxGeometry x="-850" y="620" width="120" height="60" as="geometry" />
        </mxCell>
        <mxCell id="vnz8fIsFv2fcU677jMxL-2" value="&lt;h1&gt;To Do:&lt;/h1&gt;&lt;div&gt;&lt;div style=&quot;border-color: var(--border-color);&quot;&gt;&lt;span style=&quot;background-color: initial;&quot;&gt;- Find best threshold for token-level metrics&lt;/span&gt;&lt;br&gt;&lt;/div&gt;&lt;/div&gt;&lt;div&gt;- Implement align tokens to words (Vectorized)&lt;/div&gt;&lt;div&gt;- Implement Class level statistics&lt;/div&gt;&lt;div&gt;- Explore results&lt;/div&gt;&lt;div&gt;- Compute word-level metrics&lt;/div&gt;&lt;div&gt;&lt;br&gt;&lt;/div&gt;&lt;div&gt;&lt;span style=&quot;background-color: initial;&quot;&gt;- Study training and loss&lt;/span&gt;&lt;br&gt;&lt;/div&gt;&lt;div&gt;&amp;nbsp; - Loss computation&lt;/div&gt;&lt;div&gt;&amp;nbsp; - other ways to compute loss&lt;/div&gt;&lt;div&gt;&amp;nbsp; - How loss is used to learn&lt;/div&gt;&lt;div&gt;&amp;nbsp; - How much data / iterations to see effects&lt;/div&gt;&lt;div&gt;&amp;nbsp; - How to see training effects&lt;/div&gt;&lt;div&gt;- Save constant dataset splits&lt;/div&gt;&lt;div&gt;- Start fine-tuning on small dataset&lt;/div&gt;&lt;div&gt;&lt;br&gt;&lt;/div&gt;&lt;div&gt;&lt;br&gt;&lt;/div&gt;&lt;div&gt;&lt;br&gt;&lt;/div&gt;&lt;div&gt;&lt;br&gt;&lt;/div&gt;" style="text;html=1;strokeColor=none;fillColor=none;spacing=5;spacingTop=-20;whiteSpace=wrap;overflow=hidden;rounded=0;" parent="1" vertex="1">
          <mxGeometry x="-2220" y="1190" width="290" height="330" as="geometry" />
        </mxCell>
        <mxCell id="vnz8fIsFv2fcU677jMxL-3" value="&lt;h1&gt;Done:&lt;/h1&gt;&lt;div&gt;- Compute Token-level metrics&lt;/div&gt;&lt;div&gt;&lt;div style=&quot;border-color: var(--border-color);&quot;&gt;&lt;div style=&quot;border-color: var(--border-color);&quot;&gt;- Set constant random seed for dataset splitting&lt;/div&gt;&lt;div style=&quot;border-color: var(--border-color);&quot;&gt;&lt;div style=&quot;border-color: var(--border-color);&quot;&gt;- Test runs on smaller evaluation dataset&lt;br style=&quot;border-color: var(--border-color);&quot;&gt;&lt;/div&gt;&lt;div&gt;&lt;span style=&quot;border-color: var(--border-color); background-color: initial;&quot;&gt;&amp;nbsp; - Check effect of batch size on running time&lt;/span&gt;&lt;/div&gt;&lt;div&gt;&lt;span style=&quot;border-color: var(--border-color); background-color: initial;&quot;&gt;&amp;nbsp; &amp;nbsp; &amp;nbsp;- Smaller is better on CPU (1 is best)&lt;/span&gt;&lt;/div&gt;&lt;div&gt;&lt;span style=&quot;border-color: var(--border-color); background-color: initial;&quot;&gt;&amp;nbsp; &amp;nbsp; &amp;nbsp;- Higher is better on GPU (without reaching memory limit)&lt;/span&gt;&lt;/div&gt;&lt;/div&gt;&lt;div style=&quot;border-color: var(--border-color);&quot;&gt;&lt;div style=&quot;border-color: var(--border-color);&quot;&gt;&lt;div style=&quot;border-color: var(--border-color);&quot;&gt;- Run predictions on whole dataset&lt;br style=&quot;border-color: var(--border-color);&quot;&gt;&lt;/div&gt;&lt;div style=&quot;border-color: var(--border-color);&quot;&gt;- Study and apply Kaggle Notebooks Usage&lt;/div&gt;&lt;div style=&quot;border-color: var(--border-color);&quot;&gt;&amp;nbsp; &amp;nbsp;- Managing Inputs&lt;/div&gt;&lt;div style=&quot;border-color: var(--border-color);&quot;&gt;&amp;nbsp; &amp;nbsp;- Managing Outputs&lt;/div&gt;&lt;div style=&quot;border-color: var(--border-color);&quot;&gt;&amp;nbsp; &amp;nbsp;- Accelerator Usage&lt;/div&gt;&lt;div style=&quot;border-color: var(--border-color);&quot;&gt;- Trainer API Out of Memory Issue&lt;/div&gt;&lt;div style=&quot;border-color: var(--border-color);&quot;&gt;&amp;nbsp; - Accumulation of results in GPU memory&lt;/div&gt;&lt;div style=&quot;border-color: var(--border-color);&quot;&gt;&amp;nbsp; - Fixed by lower batch size = 2 (slow)&lt;/div&gt;&lt;div style=&quot;border-color: var(--border-color);&quot;&gt;&amp;nbsp; - Next time try using accumulation steps with higher batch size&lt;/div&gt;&lt;div style=&quot;border-color: var(--border-color);&quot;&gt;&lt;br&gt;&lt;/div&gt;&lt;div&gt;&lt;span style=&quot;border-color: var(--border-color); background-color: initial;&quot;&gt;&lt;br&gt;&lt;/span&gt;&lt;/div&gt;&lt;/div&gt;&lt;/div&gt;&lt;div&gt;&lt;br&gt;&lt;/div&gt;&lt;/div&gt;&lt;/div&gt;&lt;div&gt;&lt;br&gt;&lt;/div&gt;&lt;div&gt;&lt;br&gt;&lt;/div&gt;&lt;div&gt;&lt;br&gt;&lt;/div&gt;" style="text;html=1;strokeColor=none;fillColor=none;spacing=5;spacingTop=-20;whiteSpace=wrap;overflow=hidden;rounded=0;" parent="1" vertex="1">
          <mxGeometry x="-1320" y="1200" width="290" height="270" as="geometry" />
        </mxCell>
        <mxCell id="rzgTZy9dt3fZO1DUhx3O-4" value="word_ids" style="rounded=0;whiteSpace=wrap;html=1;" parent="1" vertex="1">
          <mxGeometry x="-1600" y="1590" width="120" height="60" as="geometry" />
        </mxCell>
        <mxCell id="rzgTZy9dt3fZO1DUhx3O-5" value="word_ids" style="rounded=0;whiteSpace=wrap;html=1;" parent="1" vertex="1">
          <mxGeometry x="-2010" y="1590" width="120" height="60" as="geometry" />
        </mxCell>
        <mxCell id="rzgTZy9dt3fZO1DUhx3O-38" value="" style="shape=table;startSize=0;container=1;collapsible=0;childLayout=tableLayout;" parent="1" vertex="1">
          <mxGeometry x="-1700" y="1680" width="360" height="40" as="geometry" />
        </mxCell>
        <mxCell id="rzgTZy9dt3fZO1DUhx3O-39" value="" style="shape=tableRow;horizontal=0;startSize=0;swimlaneHead=0;swimlaneBody=0;strokeColor=inherit;top=0;left=0;bottom=0;right=0;collapsible=0;dropTarget=0;fillColor=none;points=[[0,0.5],[1,0.5]];portConstraint=eastwest;" parent="rzgTZy9dt3fZO1DUhx3O-38" vertex="1">
          <mxGeometry width="360" height="40" as="geometry" />
        </mxCell>
        <mxCell id="rzgTZy9dt3fZO1DUhx3O-40" value="" style="shape=partialRectangle;html=1;whiteSpace=wrap;connectable=0;strokeColor=inherit;overflow=hidden;fillColor=none;top=0;left=0;bottom=0;right=0;pointerEvents=1;" parent="rzgTZy9dt3fZO1DUhx3O-39" vertex="1">
          <mxGeometry width="60" height="40" as="geometry">
            <mxRectangle width="60" height="40" as="alternateBounds" />
          </mxGeometry>
        </mxCell>
        <mxCell id="rzgTZy9dt3fZO1DUhx3O-41" value="" style="shape=partialRectangle;html=1;whiteSpace=wrap;connectable=0;strokeColor=inherit;overflow=hidden;fillColor=none;top=0;left=0;bottom=0;right=0;pointerEvents=1;" parent="rzgTZy9dt3fZO1DUhx3O-39" vertex="1">
          <mxGeometry x="60" width="60" height="40" as="geometry">
            <mxRectangle width="60" height="40" as="alternateBounds" />
          </mxGeometry>
        </mxCell>
        <mxCell id="rzgTZy9dt3fZO1DUhx3O-42" value="" style="shape=partialRectangle;html=1;whiteSpace=wrap;connectable=0;strokeColor=inherit;overflow=hidden;fillColor=none;top=0;left=0;bottom=0;right=0;pointerEvents=1;" parent="rzgTZy9dt3fZO1DUhx3O-39" vertex="1">
          <mxGeometry x="120" width="60" height="40" as="geometry">
            <mxRectangle width="60" height="40" as="alternateBounds" />
          </mxGeometry>
        </mxCell>
        <mxCell id="rzgTZy9dt3fZO1DUhx3O-43" value="" style="shape=partialRectangle;html=1;whiteSpace=wrap;connectable=0;strokeColor=inherit;overflow=hidden;fillColor=none;top=0;left=0;bottom=0;right=0;pointerEvents=1;" parent="rzgTZy9dt3fZO1DUhx3O-39" vertex="1">
          <mxGeometry x="180" width="60" height="40" as="geometry">
            <mxRectangle width="60" height="40" as="alternateBounds" />
          </mxGeometry>
        </mxCell>
        <mxCell id="rzgTZy9dt3fZO1DUhx3O-44" value="" style="shape=partialRectangle;html=1;whiteSpace=wrap;connectable=0;strokeColor=inherit;overflow=hidden;fillColor=none;top=0;left=0;bottom=0;right=0;pointerEvents=1;" parent="rzgTZy9dt3fZO1DUhx3O-39" vertex="1">
          <mxGeometry x="240" width="60" height="40" as="geometry">
            <mxRectangle width="60" height="40" as="alternateBounds" />
          </mxGeometry>
        </mxCell>
        <mxCell id="rzgTZy9dt3fZO1DUhx3O-45" value="" style="shape=partialRectangle;html=1;whiteSpace=wrap;connectable=0;strokeColor=inherit;overflow=hidden;fillColor=none;top=0;left=0;bottom=0;right=0;pointerEvents=1;" parent="rzgTZy9dt3fZO1DUhx3O-39" vertex="1">
          <mxGeometry x="300" width="60" height="40" as="geometry">
            <mxRectangle width="60" height="40" as="alternateBounds" />
          </mxGeometry>
        </mxCell>
        <mxCell id="rzgTZy9dt3fZO1DUhx3O-46" value="" style="shape=table;startSize=0;container=1;collapsible=0;childLayout=tableLayout;" parent="1" vertex="1">
          <mxGeometry x="-1700" y="1720" width="360" height="40" as="geometry" />
        </mxCell>
        <mxCell id="rzgTZy9dt3fZO1DUhx3O-47" value="" style="shape=tableRow;horizontal=0;startSize=0;swimlaneHead=0;swimlaneBody=0;strokeColor=inherit;top=0;left=0;bottom=0;right=0;collapsible=0;dropTarget=0;fillColor=none;points=[[0,0.5],[1,0.5]];portConstraint=eastwest;" parent="rzgTZy9dt3fZO1DUhx3O-46" vertex="1">
          <mxGeometry width="360" height="40" as="geometry" />
        </mxCell>
        <mxCell id="rzgTZy9dt3fZO1DUhx3O-48" value="" style="shape=partialRectangle;html=1;whiteSpace=wrap;connectable=0;strokeColor=inherit;overflow=hidden;fillColor=none;top=0;left=0;bottom=0;right=0;pointerEvents=1;" parent="rzgTZy9dt3fZO1DUhx3O-47" vertex="1">
          <mxGeometry width="60" height="40" as="geometry">
            <mxRectangle width="60" height="40" as="alternateBounds" />
          </mxGeometry>
        </mxCell>
        <mxCell id="rzgTZy9dt3fZO1DUhx3O-49" value="" style="shape=partialRectangle;html=1;whiteSpace=wrap;connectable=0;strokeColor=inherit;overflow=hidden;fillColor=none;top=0;left=0;bottom=0;right=0;pointerEvents=1;" parent="rzgTZy9dt3fZO1DUhx3O-47" vertex="1">
          <mxGeometry x="60" width="60" height="40" as="geometry">
            <mxRectangle width="60" height="40" as="alternateBounds" />
          </mxGeometry>
        </mxCell>
        <mxCell id="rzgTZy9dt3fZO1DUhx3O-50" value="" style="shape=partialRectangle;html=1;whiteSpace=wrap;connectable=0;strokeColor=inherit;overflow=hidden;fillColor=none;top=0;left=0;bottom=0;right=0;pointerEvents=1;" parent="rzgTZy9dt3fZO1DUhx3O-47" vertex="1">
          <mxGeometry x="120" width="60" height="40" as="geometry">
            <mxRectangle width="60" height="40" as="alternateBounds" />
          </mxGeometry>
        </mxCell>
        <mxCell id="rzgTZy9dt3fZO1DUhx3O-51" value="" style="shape=partialRectangle;html=1;whiteSpace=wrap;connectable=0;strokeColor=inherit;overflow=hidden;fillColor=none;top=0;left=0;bottom=0;right=0;pointerEvents=1;" parent="rzgTZy9dt3fZO1DUhx3O-47" vertex="1">
          <mxGeometry x="180" width="60" height="40" as="geometry">
            <mxRectangle width="60" height="40" as="alternateBounds" />
          </mxGeometry>
        </mxCell>
        <mxCell id="rzgTZy9dt3fZO1DUhx3O-52" value="" style="shape=partialRectangle;html=1;whiteSpace=wrap;connectable=0;strokeColor=inherit;overflow=hidden;fillColor=none;top=0;left=0;bottom=0;right=0;pointerEvents=1;" parent="rzgTZy9dt3fZO1DUhx3O-47" vertex="1">
          <mxGeometry x="240" width="60" height="40" as="geometry">
            <mxRectangle width="60" height="40" as="alternateBounds" />
          </mxGeometry>
        </mxCell>
        <mxCell id="rzgTZy9dt3fZO1DUhx3O-53" value="" style="shape=partialRectangle;html=1;whiteSpace=wrap;connectable=0;strokeColor=inherit;overflow=hidden;fillColor=none;top=0;left=0;bottom=0;right=0;pointerEvents=1;" parent="rzgTZy9dt3fZO1DUhx3O-47" vertex="1">
          <mxGeometry x="300" width="60" height="40" as="geometry">
            <mxRectangle width="60" height="40" as="alternateBounds" />
          </mxGeometry>
        </mxCell>
        <mxCell id="rzgTZy9dt3fZO1DUhx3O-54" value="" style="shape=table;startSize=0;container=1;collapsible=0;childLayout=tableLayout;" parent="1" vertex="1">
          <mxGeometry x="-1700" y="1760" width="360" height="40" as="geometry" />
        </mxCell>
        <mxCell id="rzgTZy9dt3fZO1DUhx3O-55" value="" style="shape=tableRow;horizontal=0;startSize=0;swimlaneHead=0;swimlaneBody=0;strokeColor=inherit;top=0;left=0;bottom=0;right=0;collapsible=0;dropTarget=0;fillColor=none;points=[[0,0.5],[1,0.5]];portConstraint=eastwest;" parent="rzgTZy9dt3fZO1DUhx3O-54" vertex="1">
          <mxGeometry width="360" height="40" as="geometry" />
        </mxCell>
        <mxCell id="rzgTZy9dt3fZO1DUhx3O-56" value="" style="shape=partialRectangle;html=1;whiteSpace=wrap;connectable=0;strokeColor=inherit;overflow=hidden;fillColor=none;top=0;left=0;bottom=0;right=0;pointerEvents=1;" parent="rzgTZy9dt3fZO1DUhx3O-55" vertex="1">
          <mxGeometry width="60" height="40" as="geometry">
            <mxRectangle width="60" height="40" as="alternateBounds" />
          </mxGeometry>
        </mxCell>
        <mxCell id="rzgTZy9dt3fZO1DUhx3O-57" value="" style="shape=partialRectangle;html=1;whiteSpace=wrap;connectable=0;strokeColor=inherit;overflow=hidden;fillColor=none;top=0;left=0;bottom=0;right=0;pointerEvents=1;" parent="rzgTZy9dt3fZO1DUhx3O-55" vertex="1">
          <mxGeometry x="60" width="60" height="40" as="geometry">
            <mxRectangle width="60" height="40" as="alternateBounds" />
          </mxGeometry>
        </mxCell>
        <mxCell id="rzgTZy9dt3fZO1DUhx3O-58" value="" style="shape=partialRectangle;html=1;whiteSpace=wrap;connectable=0;strokeColor=inherit;overflow=hidden;fillColor=none;top=0;left=0;bottom=0;right=0;pointerEvents=1;" parent="rzgTZy9dt3fZO1DUhx3O-55" vertex="1">
          <mxGeometry x="120" width="60" height="40" as="geometry">
            <mxRectangle width="60" height="40" as="alternateBounds" />
          </mxGeometry>
        </mxCell>
        <mxCell id="rzgTZy9dt3fZO1DUhx3O-59" value="" style="shape=partialRectangle;html=1;whiteSpace=wrap;connectable=0;strokeColor=inherit;overflow=hidden;fillColor=none;top=0;left=0;bottom=0;right=0;pointerEvents=1;" parent="rzgTZy9dt3fZO1DUhx3O-55" vertex="1">
          <mxGeometry x="180" width="60" height="40" as="geometry">
            <mxRectangle width="60" height="40" as="alternateBounds" />
          </mxGeometry>
        </mxCell>
        <mxCell id="rzgTZy9dt3fZO1DUhx3O-60" value="" style="shape=partialRectangle;html=1;whiteSpace=wrap;connectable=0;strokeColor=inherit;overflow=hidden;fillColor=none;top=0;left=0;bottom=0;right=0;pointerEvents=1;" parent="rzgTZy9dt3fZO1DUhx3O-55" vertex="1">
          <mxGeometry x="240" width="60" height="40" as="geometry">
            <mxRectangle width="60" height="40" as="alternateBounds" />
          </mxGeometry>
        </mxCell>
        <mxCell id="rzgTZy9dt3fZO1DUhx3O-61" value="" style="shape=partialRectangle;html=1;whiteSpace=wrap;connectable=0;strokeColor=inherit;overflow=hidden;fillColor=none;top=0;left=0;bottom=0;right=0;pointerEvents=1;" parent="rzgTZy9dt3fZO1DUhx3O-55" vertex="1">
          <mxGeometry x="300" width="60" height="40" as="geometry">
            <mxRectangle width="60" height="40" as="alternateBounds" />
          </mxGeometry>
        </mxCell>
        <mxCell id="rzgTZy9dt3fZO1DUhx3O-62" value="" style="shape=table;startSize=0;container=1;collapsible=0;childLayout=tableLayout;" parent="1" vertex="1">
          <mxGeometry x="-1300" y="1680" width="360" height="40" as="geometry" />
        </mxCell>
        <mxCell id="rzgTZy9dt3fZO1DUhx3O-63" value="" style="shape=tableRow;horizontal=0;startSize=0;swimlaneHead=0;swimlaneBody=0;strokeColor=inherit;top=0;left=0;bottom=0;right=0;collapsible=0;dropTarget=0;fillColor=none;points=[[0,0.5],[1,0.5]];portConstraint=eastwest;" parent="rzgTZy9dt3fZO1DUhx3O-62" vertex="1">
          <mxGeometry width="360" height="40" as="geometry" />
        </mxCell>
        <mxCell id="rzgTZy9dt3fZO1DUhx3O-64" value="" style="shape=partialRectangle;html=1;whiteSpace=wrap;connectable=0;strokeColor=inherit;overflow=hidden;fillColor=none;top=0;left=0;bottom=0;right=0;pointerEvents=1;" parent="rzgTZy9dt3fZO1DUhx3O-63" vertex="1">
          <mxGeometry width="60" height="40" as="geometry">
            <mxRectangle width="60" height="40" as="alternateBounds" />
          </mxGeometry>
        </mxCell>
        <mxCell id="rzgTZy9dt3fZO1DUhx3O-65" value="" style="shape=partialRectangle;html=1;whiteSpace=wrap;connectable=0;strokeColor=inherit;overflow=hidden;fillColor=none;top=0;left=0;bottom=0;right=0;pointerEvents=1;" parent="rzgTZy9dt3fZO1DUhx3O-63" vertex="1">
          <mxGeometry x="60" width="60" height="40" as="geometry">
            <mxRectangle width="60" height="40" as="alternateBounds" />
          </mxGeometry>
        </mxCell>
        <mxCell id="rzgTZy9dt3fZO1DUhx3O-66" value="" style="shape=partialRectangle;html=1;whiteSpace=wrap;connectable=0;strokeColor=inherit;overflow=hidden;fillColor=none;top=0;left=0;bottom=0;right=0;pointerEvents=1;" parent="rzgTZy9dt3fZO1DUhx3O-63" vertex="1">
          <mxGeometry x="120" width="60" height="40" as="geometry">
            <mxRectangle width="60" height="40" as="alternateBounds" />
          </mxGeometry>
        </mxCell>
        <mxCell id="rzgTZy9dt3fZO1DUhx3O-67" value="" style="shape=partialRectangle;html=1;whiteSpace=wrap;connectable=0;strokeColor=inherit;overflow=hidden;fillColor=none;top=0;left=0;bottom=0;right=0;pointerEvents=1;" parent="rzgTZy9dt3fZO1DUhx3O-63" vertex="1">
          <mxGeometry x="180" width="60" height="40" as="geometry">
            <mxRectangle width="60" height="40" as="alternateBounds" />
          </mxGeometry>
        </mxCell>
        <mxCell id="rzgTZy9dt3fZO1DUhx3O-68" value="" style="shape=partialRectangle;html=1;whiteSpace=wrap;connectable=0;strokeColor=inherit;overflow=hidden;fillColor=none;top=0;left=0;bottom=0;right=0;pointerEvents=1;" parent="rzgTZy9dt3fZO1DUhx3O-63" vertex="1">
          <mxGeometry x="240" width="60" height="40" as="geometry">
            <mxRectangle width="60" height="40" as="alternateBounds" />
          </mxGeometry>
        </mxCell>
        <mxCell id="rzgTZy9dt3fZO1DUhx3O-69" value="" style="shape=partialRectangle;html=1;whiteSpace=wrap;connectable=0;strokeColor=inherit;overflow=hidden;fillColor=none;top=0;left=0;bottom=0;right=0;pointerEvents=1;" parent="rzgTZy9dt3fZO1DUhx3O-63" vertex="1">
          <mxGeometry x="300" width="60" height="40" as="geometry">
            <mxRectangle width="60" height="40" as="alternateBounds" />
          </mxGeometry>
        </mxCell>
        <mxCell id="rzgTZy9dt3fZO1DUhx3O-70" value="" style="shape=table;startSize=0;container=1;collapsible=0;childLayout=tableLayout;" parent="1" vertex="1">
          <mxGeometry x="-1300" y="1720" width="360" height="40" as="geometry" />
        </mxCell>
        <mxCell id="rzgTZy9dt3fZO1DUhx3O-71" value="" style="shape=tableRow;horizontal=0;startSize=0;swimlaneHead=0;swimlaneBody=0;strokeColor=inherit;top=0;left=0;bottom=0;right=0;collapsible=0;dropTarget=0;fillColor=none;points=[[0,0.5],[1,0.5]];portConstraint=eastwest;" parent="rzgTZy9dt3fZO1DUhx3O-70" vertex="1">
          <mxGeometry width="360" height="40" as="geometry" />
        </mxCell>
        <mxCell id="rzgTZy9dt3fZO1DUhx3O-72" value="" style="shape=partialRectangle;html=1;whiteSpace=wrap;connectable=0;strokeColor=inherit;overflow=hidden;fillColor=none;top=0;left=0;bottom=0;right=0;pointerEvents=1;" parent="rzgTZy9dt3fZO1DUhx3O-71" vertex="1">
          <mxGeometry width="60" height="40" as="geometry">
            <mxRectangle width="60" height="40" as="alternateBounds" />
          </mxGeometry>
        </mxCell>
        <mxCell id="rzgTZy9dt3fZO1DUhx3O-73" value="" style="shape=partialRectangle;html=1;whiteSpace=wrap;connectable=0;strokeColor=inherit;overflow=hidden;fillColor=none;top=0;left=0;bottom=0;right=0;pointerEvents=1;" parent="rzgTZy9dt3fZO1DUhx3O-71" vertex="1">
          <mxGeometry x="60" width="60" height="40" as="geometry">
            <mxRectangle width="60" height="40" as="alternateBounds" />
          </mxGeometry>
        </mxCell>
        <mxCell id="rzgTZy9dt3fZO1DUhx3O-74" value="" style="shape=partialRectangle;html=1;whiteSpace=wrap;connectable=0;strokeColor=inherit;overflow=hidden;fillColor=none;top=0;left=0;bottom=0;right=0;pointerEvents=1;" parent="rzgTZy9dt3fZO1DUhx3O-71" vertex="1">
          <mxGeometry x="120" width="60" height="40" as="geometry">
            <mxRectangle width="60" height="40" as="alternateBounds" />
          </mxGeometry>
        </mxCell>
        <mxCell id="rzgTZy9dt3fZO1DUhx3O-75" value="" style="shape=partialRectangle;html=1;whiteSpace=wrap;connectable=0;strokeColor=inherit;overflow=hidden;fillColor=none;top=0;left=0;bottom=0;right=0;pointerEvents=1;" parent="rzgTZy9dt3fZO1DUhx3O-71" vertex="1">
          <mxGeometry x="180" width="60" height="40" as="geometry">
            <mxRectangle width="60" height="40" as="alternateBounds" />
          </mxGeometry>
        </mxCell>
        <mxCell id="rzgTZy9dt3fZO1DUhx3O-76" value="" style="shape=partialRectangle;html=1;whiteSpace=wrap;connectable=0;strokeColor=inherit;overflow=hidden;fillColor=none;top=0;left=0;bottom=0;right=0;pointerEvents=1;" parent="rzgTZy9dt3fZO1DUhx3O-71" vertex="1">
          <mxGeometry x="240" width="60" height="40" as="geometry">
            <mxRectangle width="60" height="40" as="alternateBounds" />
          </mxGeometry>
        </mxCell>
        <mxCell id="rzgTZy9dt3fZO1DUhx3O-77" value="" style="shape=partialRectangle;html=1;whiteSpace=wrap;connectable=0;strokeColor=inherit;overflow=hidden;fillColor=none;top=0;left=0;bottom=0;right=0;pointerEvents=1;" parent="rzgTZy9dt3fZO1DUhx3O-71" vertex="1">
          <mxGeometry x="300" width="60" height="40" as="geometry">
            <mxRectangle width="60" height="40" as="alternateBounds" />
          </mxGeometry>
        </mxCell>
        <mxCell id="rzgTZy9dt3fZO1DUhx3O-78" value="" style="shape=table;startSize=0;container=1;collapsible=0;childLayout=tableLayout;" parent="1" vertex="1">
          <mxGeometry x="-1300" y="1760" width="360" height="40" as="geometry" />
        </mxCell>
        <mxCell id="rzgTZy9dt3fZO1DUhx3O-79" value="" style="shape=tableRow;horizontal=0;startSize=0;swimlaneHead=0;swimlaneBody=0;strokeColor=inherit;top=0;left=0;bottom=0;right=0;collapsible=0;dropTarget=0;fillColor=none;points=[[0,0.5],[1,0.5]];portConstraint=eastwest;" parent="rzgTZy9dt3fZO1DUhx3O-78" vertex="1">
          <mxGeometry width="360" height="40" as="geometry" />
        </mxCell>
        <mxCell id="rzgTZy9dt3fZO1DUhx3O-80" value="" style="shape=partialRectangle;html=1;whiteSpace=wrap;connectable=0;strokeColor=inherit;overflow=hidden;fillColor=none;top=0;left=0;bottom=0;right=0;pointerEvents=1;" parent="rzgTZy9dt3fZO1DUhx3O-79" vertex="1">
          <mxGeometry width="60" height="40" as="geometry">
            <mxRectangle width="60" height="40" as="alternateBounds" />
          </mxGeometry>
        </mxCell>
        <mxCell id="rzgTZy9dt3fZO1DUhx3O-81" value="" style="shape=partialRectangle;html=1;whiteSpace=wrap;connectable=0;strokeColor=inherit;overflow=hidden;fillColor=none;top=0;left=0;bottom=0;right=0;pointerEvents=1;" parent="rzgTZy9dt3fZO1DUhx3O-79" vertex="1">
          <mxGeometry x="60" width="60" height="40" as="geometry">
            <mxRectangle width="60" height="40" as="alternateBounds" />
          </mxGeometry>
        </mxCell>
        <mxCell id="rzgTZy9dt3fZO1DUhx3O-82" value="" style="shape=partialRectangle;html=1;whiteSpace=wrap;connectable=0;strokeColor=inherit;overflow=hidden;fillColor=none;top=0;left=0;bottom=0;right=0;pointerEvents=1;" parent="rzgTZy9dt3fZO1DUhx3O-79" vertex="1">
          <mxGeometry x="120" width="60" height="40" as="geometry">
            <mxRectangle width="60" height="40" as="alternateBounds" />
          </mxGeometry>
        </mxCell>
        <mxCell id="rzgTZy9dt3fZO1DUhx3O-83" value="" style="shape=partialRectangle;html=1;whiteSpace=wrap;connectable=0;strokeColor=inherit;overflow=hidden;fillColor=none;top=0;left=0;bottom=0;right=0;pointerEvents=1;" parent="rzgTZy9dt3fZO1DUhx3O-79" vertex="1">
          <mxGeometry x="180" width="60" height="40" as="geometry">
            <mxRectangle width="60" height="40" as="alternateBounds" />
          </mxGeometry>
        </mxCell>
        <mxCell id="rzgTZy9dt3fZO1DUhx3O-84" value="" style="shape=partialRectangle;html=1;whiteSpace=wrap;connectable=0;strokeColor=inherit;overflow=hidden;fillColor=none;top=0;left=0;bottom=0;right=0;pointerEvents=1;" parent="rzgTZy9dt3fZO1DUhx3O-79" vertex="1">
          <mxGeometry x="240" width="60" height="40" as="geometry">
            <mxRectangle width="60" height="40" as="alternateBounds" />
          </mxGeometry>
        </mxCell>
        <mxCell id="rzgTZy9dt3fZO1DUhx3O-85" value="" style="shape=partialRectangle;html=1;whiteSpace=wrap;connectable=0;strokeColor=inherit;overflow=hidden;fillColor=none;top=0;left=0;bottom=0;right=0;pointerEvents=1;" parent="rzgTZy9dt3fZO1DUhx3O-79" vertex="1">
          <mxGeometry x="300" width="60" height="40" as="geometry">
            <mxRectangle width="60" height="40" as="alternateBounds" />
          </mxGeometry>
        </mxCell>
        <mxCell id="rzgTZy9dt3fZO1DUhx3O-86" value="token_ids" style="rounded=0;whiteSpace=wrap;html=1;" parent="1" vertex="1">
          <mxGeometry x="-1200" y="1590" width="120" height="60" as="geometry" />
        </mxCell>
        <mxCell id="rzgTZy9dt3fZO1DUhx3O-87" value="" style="shape=table;startSize=0;container=1;collapsible=0;childLayout=tableLayout;" parent="1" vertex="1">
          <mxGeometry x="-1630" y="1900" width="240" height="120" as="geometry" />
        </mxCell>
        <mxCell id="rzgTZy9dt3fZO1DUhx3O-88" value="" style="shape=tableRow;horizontal=0;startSize=0;swimlaneHead=0;swimlaneBody=0;strokeColor=inherit;top=0;left=0;bottom=0;right=0;collapsible=0;dropTarget=0;fillColor=none;points=[[0,0.5],[1,0.5]];portConstraint=eastwest;" parent="rzgTZy9dt3fZO1DUhx3O-87" vertex="1">
          <mxGeometry width="240" height="40" as="geometry" />
        </mxCell>
        <mxCell id="rzgTZy9dt3fZO1DUhx3O-89" value="" style="shape=partialRectangle;html=1;whiteSpace=wrap;connectable=0;strokeColor=inherit;overflow=hidden;fillColor=none;top=0;left=0;bottom=0;right=0;pointerEvents=1;" parent="rzgTZy9dt3fZO1DUhx3O-88" vertex="1">
          <mxGeometry width="60" height="40" as="geometry">
            <mxRectangle width="60" height="40" as="alternateBounds" />
          </mxGeometry>
        </mxCell>
        <mxCell id="rzgTZy9dt3fZO1DUhx3O-90" value="" style="shape=partialRectangle;html=1;whiteSpace=wrap;connectable=0;strokeColor=inherit;overflow=hidden;fillColor=none;top=0;left=0;bottom=0;right=0;pointerEvents=1;" parent="rzgTZy9dt3fZO1DUhx3O-88" vertex="1">
          <mxGeometry x="60" width="60" height="40" as="geometry">
            <mxRectangle width="60" height="40" as="alternateBounds" />
          </mxGeometry>
        </mxCell>
        <mxCell id="rzgTZy9dt3fZO1DUhx3O-91" value="" style="shape=partialRectangle;html=1;whiteSpace=wrap;connectable=0;strokeColor=inherit;overflow=hidden;fillColor=none;top=0;left=0;bottom=0;right=0;pointerEvents=1;" parent="rzgTZy9dt3fZO1DUhx3O-88" vertex="1">
          <mxGeometry x="120" width="60" height="40" as="geometry">
            <mxRectangle width="60" height="40" as="alternateBounds" />
          </mxGeometry>
        </mxCell>
        <mxCell id="rzgTZy9dt3fZO1DUhx3O-92" value="" style="shape=partialRectangle;html=1;whiteSpace=wrap;connectable=0;strokeColor=inherit;overflow=hidden;fillColor=none;top=0;left=0;bottom=0;right=0;pointerEvents=1;" parent="rzgTZy9dt3fZO1DUhx3O-88" vertex="1">
          <mxGeometry x="180" width="60" height="40" as="geometry">
            <mxRectangle width="60" height="40" as="alternateBounds" />
          </mxGeometry>
        </mxCell>
        <mxCell id="rzgTZy9dt3fZO1DUhx3O-93" value="" style="shape=tableRow;horizontal=0;startSize=0;swimlaneHead=0;swimlaneBody=0;strokeColor=inherit;top=0;left=0;bottom=0;right=0;collapsible=0;dropTarget=0;fillColor=none;points=[[0,0.5],[1,0.5]];portConstraint=eastwest;" parent="rzgTZy9dt3fZO1DUhx3O-87" vertex="1">
          <mxGeometry y="40" width="240" height="40" as="geometry" />
        </mxCell>
        <mxCell id="rzgTZy9dt3fZO1DUhx3O-94" value="" style="shape=partialRectangle;html=1;whiteSpace=wrap;connectable=0;strokeColor=inherit;overflow=hidden;fillColor=none;top=0;left=0;bottom=0;right=0;pointerEvents=1;" parent="rzgTZy9dt3fZO1DUhx3O-93" vertex="1">
          <mxGeometry width="60" height="40" as="geometry">
            <mxRectangle width="60" height="40" as="alternateBounds" />
          </mxGeometry>
        </mxCell>
        <mxCell id="rzgTZy9dt3fZO1DUhx3O-95" value="" style="shape=partialRectangle;html=1;whiteSpace=wrap;connectable=0;strokeColor=inherit;overflow=hidden;fillColor=none;top=0;left=0;bottom=0;right=0;pointerEvents=1;" parent="rzgTZy9dt3fZO1DUhx3O-93" vertex="1">
          <mxGeometry x="60" width="60" height="40" as="geometry">
            <mxRectangle width="60" height="40" as="alternateBounds" />
          </mxGeometry>
        </mxCell>
        <mxCell id="rzgTZy9dt3fZO1DUhx3O-96" value="" style="shape=partialRectangle;html=1;whiteSpace=wrap;connectable=0;strokeColor=inherit;overflow=hidden;fillColor=none;top=0;left=0;bottom=0;right=0;pointerEvents=1;" parent="rzgTZy9dt3fZO1DUhx3O-93" vertex="1">
          <mxGeometry x="120" width="60" height="40" as="geometry">
            <mxRectangle width="60" height="40" as="alternateBounds" />
          </mxGeometry>
        </mxCell>
        <mxCell id="rzgTZy9dt3fZO1DUhx3O-97" value="" style="shape=partialRectangle;html=1;whiteSpace=wrap;connectable=0;strokeColor=inherit;overflow=hidden;fillColor=none;top=0;left=0;bottom=0;right=0;pointerEvents=1;" parent="rzgTZy9dt3fZO1DUhx3O-93" vertex="1">
          <mxGeometry x="180" width="60" height="40" as="geometry">
            <mxRectangle width="60" height="40" as="alternateBounds" />
          </mxGeometry>
        </mxCell>
        <mxCell id="rzgTZy9dt3fZO1DUhx3O-98" value="" style="shape=tableRow;horizontal=0;startSize=0;swimlaneHead=0;swimlaneBody=0;strokeColor=inherit;top=0;left=0;bottom=0;right=0;collapsible=0;dropTarget=0;fillColor=none;points=[[0,0.5],[1,0.5]];portConstraint=eastwest;" parent="rzgTZy9dt3fZO1DUhx3O-87" vertex="1">
          <mxGeometry y="80" width="240" height="40" as="geometry" />
        </mxCell>
        <mxCell id="rzgTZy9dt3fZO1DUhx3O-99" value="" style="shape=partialRectangle;html=1;whiteSpace=wrap;connectable=0;strokeColor=inherit;overflow=hidden;fillColor=none;top=0;left=0;bottom=0;right=0;pointerEvents=1;" parent="rzgTZy9dt3fZO1DUhx3O-98" vertex="1">
          <mxGeometry width="60" height="40" as="geometry">
            <mxRectangle width="60" height="40" as="alternateBounds" />
          </mxGeometry>
        </mxCell>
        <mxCell id="rzgTZy9dt3fZO1DUhx3O-100" value="" style="shape=partialRectangle;html=1;whiteSpace=wrap;connectable=0;strokeColor=inherit;overflow=hidden;fillColor=none;top=0;left=0;bottom=0;right=0;pointerEvents=1;" parent="rzgTZy9dt3fZO1DUhx3O-98" vertex="1">
          <mxGeometry x="60" width="60" height="40" as="geometry">
            <mxRectangle width="60" height="40" as="alternateBounds" />
          </mxGeometry>
        </mxCell>
        <mxCell id="rzgTZy9dt3fZO1DUhx3O-101" value="" style="shape=partialRectangle;html=1;whiteSpace=wrap;connectable=0;strokeColor=inherit;overflow=hidden;fillColor=none;top=0;left=0;bottom=0;right=0;pointerEvents=1;" parent="rzgTZy9dt3fZO1DUhx3O-98" vertex="1">
          <mxGeometry x="120" width="60" height="40" as="geometry">
            <mxRectangle width="60" height="40" as="alternateBounds" />
          </mxGeometry>
        </mxCell>
        <mxCell id="rzgTZy9dt3fZO1DUhx3O-102" value="" style="shape=partialRectangle;html=1;whiteSpace=wrap;connectable=0;strokeColor=inherit;overflow=hidden;fillColor=none;top=0;left=0;bottom=0;right=0;pointerEvents=1;" parent="rzgTZy9dt3fZO1DUhx3O-98" vertex="1">
          <mxGeometry x="180" width="60" height="40" as="geometry">
            <mxRectangle width="60" height="40" as="alternateBounds" />
          </mxGeometry>
        </mxCell>
        <mxCell id="rzgTZy9dt3fZO1DUhx3O-103" value="words" style="rounded=0;whiteSpace=wrap;html=1;" parent="1" vertex="1">
          <mxGeometry x="-1570" y="1830" width="120" height="60" as="geometry" />
        </mxCell>
        <mxCell id="rzgTZy9dt3fZO1DUhx3O-154" value="" style="shape=table;startSize=0;container=1;collapsible=0;childLayout=tableLayout;" parent="1" vertex="1">
          <mxGeometry x="-2010" y="2380" width="240" height="120" as="geometry" />
        </mxCell>
        <mxCell id="rzgTZy9dt3fZO1DUhx3O-155" value="" style="shape=tableRow;horizontal=0;startSize=0;swimlaneHead=0;swimlaneBody=0;strokeColor=inherit;top=0;left=0;bottom=0;right=0;collapsible=0;dropTarget=0;fillColor=none;points=[[0,0.5],[1,0.5]];portConstraint=eastwest;" parent="rzgTZy9dt3fZO1DUhx3O-154" vertex="1">
          <mxGeometry width="240" height="40" as="geometry" />
        </mxCell>
        <mxCell id="rzgTZy9dt3fZO1DUhx3O-156" value="" style="shape=partialRectangle;html=1;whiteSpace=wrap;connectable=0;strokeColor=inherit;overflow=hidden;fillColor=none;top=0;left=0;bottom=0;right=0;pointerEvents=1;" parent="rzgTZy9dt3fZO1DUhx3O-155" vertex="1">
          <mxGeometry width="60" height="40" as="geometry">
            <mxRectangle width="60" height="40" as="alternateBounds" />
          </mxGeometry>
        </mxCell>
        <mxCell id="rzgTZy9dt3fZO1DUhx3O-157" value="" style="shape=partialRectangle;html=1;whiteSpace=wrap;connectable=0;strokeColor=inherit;overflow=hidden;fillColor=none;top=0;left=0;bottom=0;right=0;pointerEvents=1;" parent="rzgTZy9dt3fZO1DUhx3O-155" vertex="1">
          <mxGeometry x="60" width="60" height="40" as="geometry">
            <mxRectangle width="60" height="40" as="alternateBounds" />
          </mxGeometry>
        </mxCell>
        <mxCell id="rzgTZy9dt3fZO1DUhx3O-158" value="" style="shape=partialRectangle;html=1;whiteSpace=wrap;connectable=0;strokeColor=inherit;overflow=hidden;fillColor=none;top=0;left=0;bottom=0;right=0;pointerEvents=1;" parent="rzgTZy9dt3fZO1DUhx3O-155" vertex="1">
          <mxGeometry x="120" width="60" height="40" as="geometry">
            <mxRectangle width="60" height="40" as="alternateBounds" />
          </mxGeometry>
        </mxCell>
        <mxCell id="rzgTZy9dt3fZO1DUhx3O-159" value="" style="shape=partialRectangle;html=1;whiteSpace=wrap;connectable=0;strokeColor=inherit;overflow=hidden;fillColor=none;top=0;left=0;bottom=0;right=0;pointerEvents=1;" parent="rzgTZy9dt3fZO1DUhx3O-155" vertex="1">
          <mxGeometry x="180" width="60" height="40" as="geometry">
            <mxRectangle width="60" height="40" as="alternateBounds" />
          </mxGeometry>
        </mxCell>
        <mxCell id="rzgTZy9dt3fZO1DUhx3O-160" value="" style="shape=tableRow;horizontal=0;startSize=0;swimlaneHead=0;swimlaneBody=0;strokeColor=inherit;top=0;left=0;bottom=0;right=0;collapsible=0;dropTarget=0;fillColor=none;points=[[0,0.5],[1,0.5]];portConstraint=eastwest;" parent="rzgTZy9dt3fZO1DUhx3O-154" vertex="1">
          <mxGeometry y="40" width="240" height="40" as="geometry" />
        </mxCell>
        <mxCell id="rzgTZy9dt3fZO1DUhx3O-161" value="" style="shape=partialRectangle;html=1;whiteSpace=wrap;connectable=0;strokeColor=inherit;overflow=hidden;fillColor=none;top=0;left=0;bottom=0;right=0;pointerEvents=1;" parent="rzgTZy9dt3fZO1DUhx3O-160" vertex="1">
          <mxGeometry width="60" height="40" as="geometry">
            <mxRectangle width="60" height="40" as="alternateBounds" />
          </mxGeometry>
        </mxCell>
        <mxCell id="rzgTZy9dt3fZO1DUhx3O-162" value="" style="shape=partialRectangle;html=1;whiteSpace=wrap;connectable=0;strokeColor=inherit;overflow=hidden;fillColor=none;top=0;left=0;bottom=0;right=0;pointerEvents=1;" parent="rzgTZy9dt3fZO1DUhx3O-160" vertex="1">
          <mxGeometry x="60" width="60" height="40" as="geometry">
            <mxRectangle width="60" height="40" as="alternateBounds" />
          </mxGeometry>
        </mxCell>
        <mxCell id="rzgTZy9dt3fZO1DUhx3O-163" value="" style="shape=partialRectangle;html=1;whiteSpace=wrap;connectable=0;strokeColor=inherit;overflow=hidden;fillColor=none;top=0;left=0;bottom=0;right=0;pointerEvents=1;" parent="rzgTZy9dt3fZO1DUhx3O-160" vertex="1">
          <mxGeometry x="120" width="60" height="40" as="geometry">
            <mxRectangle width="60" height="40" as="alternateBounds" />
          </mxGeometry>
        </mxCell>
        <mxCell id="rzgTZy9dt3fZO1DUhx3O-164" value="" style="shape=partialRectangle;html=1;whiteSpace=wrap;connectable=0;strokeColor=inherit;overflow=hidden;fillColor=none;top=0;left=0;bottom=0;right=0;pointerEvents=1;" parent="rzgTZy9dt3fZO1DUhx3O-160" vertex="1">
          <mxGeometry x="180" width="60" height="40" as="geometry">
            <mxRectangle width="60" height="40" as="alternateBounds" />
          </mxGeometry>
        </mxCell>
        <mxCell id="rzgTZy9dt3fZO1DUhx3O-165" value="" style="shape=tableRow;horizontal=0;startSize=0;swimlaneHead=0;swimlaneBody=0;strokeColor=inherit;top=0;left=0;bottom=0;right=0;collapsible=0;dropTarget=0;fillColor=none;points=[[0,0.5],[1,0.5]];portConstraint=eastwest;" parent="rzgTZy9dt3fZO1DUhx3O-154" vertex="1">
          <mxGeometry y="80" width="240" height="40" as="geometry" />
        </mxCell>
        <mxCell id="rzgTZy9dt3fZO1DUhx3O-166" value="" style="shape=partialRectangle;html=1;whiteSpace=wrap;connectable=0;strokeColor=inherit;overflow=hidden;fillColor=none;top=0;left=0;bottom=0;right=0;pointerEvents=1;" parent="rzgTZy9dt3fZO1DUhx3O-165" vertex="1">
          <mxGeometry width="60" height="40" as="geometry">
            <mxRectangle width="60" height="40" as="alternateBounds" />
          </mxGeometry>
        </mxCell>
        <mxCell id="rzgTZy9dt3fZO1DUhx3O-167" value="" style="shape=partialRectangle;html=1;whiteSpace=wrap;connectable=0;strokeColor=inherit;overflow=hidden;fillColor=none;top=0;left=0;bottom=0;right=0;pointerEvents=1;" parent="rzgTZy9dt3fZO1DUhx3O-165" vertex="1">
          <mxGeometry x="60" width="60" height="40" as="geometry">
            <mxRectangle width="60" height="40" as="alternateBounds" />
          </mxGeometry>
        </mxCell>
        <mxCell id="rzgTZy9dt3fZO1DUhx3O-168" value="" style="shape=partialRectangle;html=1;whiteSpace=wrap;connectable=0;strokeColor=inherit;overflow=hidden;fillColor=none;top=0;left=0;bottom=0;right=0;pointerEvents=1;" parent="rzgTZy9dt3fZO1DUhx3O-165" vertex="1">
          <mxGeometry x="120" width="60" height="40" as="geometry">
            <mxRectangle width="60" height="40" as="alternateBounds" />
          </mxGeometry>
        </mxCell>
        <mxCell id="rzgTZy9dt3fZO1DUhx3O-169" value="" style="shape=partialRectangle;html=1;whiteSpace=wrap;connectable=0;strokeColor=inherit;overflow=hidden;fillColor=none;top=0;left=0;bottom=0;right=0;pointerEvents=1;" parent="rzgTZy9dt3fZO1DUhx3O-165" vertex="1">
          <mxGeometry x="180" width="60" height="40" as="geometry">
            <mxRectangle width="60" height="40" as="alternateBounds" />
          </mxGeometry>
        </mxCell>
        <mxCell id="rzgTZy9dt3fZO1DUhx3O-170" value="pred_words" style="rounded=0;whiteSpace=wrap;html=1;" parent="1" vertex="1">
          <mxGeometry x="-1950" y="2310" width="120" height="60" as="geometry" />
        </mxCell>
        <mxCell id="rzgTZy9dt3fZO1DUhx3O-183" value="" style="shape=table;startSize=0;container=1;collapsible=0;childLayout=tableLayout;" parent="1" vertex="1">
          <mxGeometry x="-2120" y="1680" width="360" height="40" as="geometry" />
        </mxCell>
        <mxCell id="rzgTZy9dt3fZO1DUhx3O-184" value="" style="shape=tableRow;horizontal=0;startSize=0;swimlaneHead=0;swimlaneBody=0;strokeColor=inherit;top=0;left=0;bottom=0;right=0;collapsible=0;dropTarget=0;fillColor=none;points=[[0,0.5],[1,0.5]];portConstraint=eastwest;" parent="rzgTZy9dt3fZO1DUhx3O-183" vertex="1">
          <mxGeometry width="360" height="40" as="geometry" />
        </mxCell>
        <mxCell id="rzgTZy9dt3fZO1DUhx3O-185" value="" style="shape=partialRectangle;html=1;whiteSpace=wrap;connectable=0;strokeColor=inherit;overflow=hidden;fillColor=none;top=0;left=0;bottom=0;right=0;pointerEvents=1;" parent="rzgTZy9dt3fZO1DUhx3O-184" vertex="1">
          <mxGeometry width="60" height="40" as="geometry">
            <mxRectangle width="60" height="40" as="alternateBounds" />
          </mxGeometry>
        </mxCell>
        <mxCell id="rzgTZy9dt3fZO1DUhx3O-186" value="" style="shape=partialRectangle;html=1;whiteSpace=wrap;connectable=0;strokeColor=inherit;overflow=hidden;fillColor=none;top=0;left=0;bottom=0;right=0;pointerEvents=1;" parent="rzgTZy9dt3fZO1DUhx3O-184" vertex="1">
          <mxGeometry x="60" width="60" height="40" as="geometry">
            <mxRectangle width="60" height="40" as="alternateBounds" />
          </mxGeometry>
        </mxCell>
        <mxCell id="rzgTZy9dt3fZO1DUhx3O-187" value="" style="shape=partialRectangle;html=1;whiteSpace=wrap;connectable=0;strokeColor=inherit;overflow=hidden;fillColor=none;top=0;left=0;bottom=0;right=0;pointerEvents=1;" parent="rzgTZy9dt3fZO1DUhx3O-184" vertex="1">
          <mxGeometry x="120" width="60" height="40" as="geometry">
            <mxRectangle width="60" height="40" as="alternateBounds" />
          </mxGeometry>
        </mxCell>
        <mxCell id="rzgTZy9dt3fZO1DUhx3O-188" value="" style="shape=partialRectangle;html=1;whiteSpace=wrap;connectable=0;strokeColor=inherit;overflow=hidden;fillColor=none;top=0;left=0;bottom=0;right=0;pointerEvents=1;" parent="rzgTZy9dt3fZO1DUhx3O-184" vertex="1">
          <mxGeometry x="180" width="60" height="40" as="geometry">
            <mxRectangle width="60" height="40" as="alternateBounds" />
          </mxGeometry>
        </mxCell>
        <mxCell id="rzgTZy9dt3fZO1DUhx3O-189" value="" style="shape=partialRectangle;html=1;whiteSpace=wrap;connectable=0;strokeColor=inherit;overflow=hidden;fillColor=none;top=0;left=0;bottom=0;right=0;pointerEvents=1;" parent="rzgTZy9dt3fZO1DUhx3O-184" vertex="1">
          <mxGeometry x="240" width="60" height="40" as="geometry">
            <mxRectangle width="60" height="40" as="alternateBounds" />
          </mxGeometry>
        </mxCell>
        <mxCell id="rzgTZy9dt3fZO1DUhx3O-190" value="" style="shape=partialRectangle;html=1;whiteSpace=wrap;connectable=0;strokeColor=inherit;overflow=hidden;fillColor=none;top=0;left=0;bottom=0;right=0;pointerEvents=1;" parent="rzgTZy9dt3fZO1DUhx3O-184" vertex="1">
          <mxGeometry x="300" width="60" height="40" as="geometry">
            <mxRectangle width="60" height="40" as="alternateBounds" />
          </mxGeometry>
        </mxCell>
        <mxCell id="rzgTZy9dt3fZO1DUhx3O-191" value="" style="shape=table;startSize=0;container=1;collapsible=0;childLayout=tableLayout;" parent="1" vertex="1">
          <mxGeometry x="-2120" y="1720" width="240" height="40" as="geometry" />
        </mxCell>
        <mxCell id="rzgTZy9dt3fZO1DUhx3O-192" value="" style="shape=tableRow;horizontal=0;startSize=0;swimlaneHead=0;swimlaneBody=0;strokeColor=inherit;top=0;left=0;bottom=0;right=0;collapsible=0;dropTarget=0;fillColor=none;points=[[0,0.5],[1,0.5]];portConstraint=eastwest;" parent="rzgTZy9dt3fZO1DUhx3O-191" vertex="1">
          <mxGeometry width="240" height="40" as="geometry" />
        </mxCell>
        <mxCell id="rzgTZy9dt3fZO1DUhx3O-193" value="" style="shape=partialRectangle;html=1;whiteSpace=wrap;connectable=0;strokeColor=inherit;overflow=hidden;fillColor=none;top=0;left=0;bottom=0;right=0;pointerEvents=1;" parent="rzgTZy9dt3fZO1DUhx3O-192" vertex="1">
          <mxGeometry width="60" height="40" as="geometry">
            <mxRectangle width="60" height="40" as="alternateBounds" />
          </mxGeometry>
        </mxCell>
        <mxCell id="rzgTZy9dt3fZO1DUhx3O-194" value="" style="shape=partialRectangle;html=1;whiteSpace=wrap;connectable=0;strokeColor=inherit;overflow=hidden;fillColor=none;top=0;left=0;bottom=0;right=0;pointerEvents=1;" parent="rzgTZy9dt3fZO1DUhx3O-192" vertex="1">
          <mxGeometry x="60" width="60" height="40" as="geometry">
            <mxRectangle width="60" height="40" as="alternateBounds" />
          </mxGeometry>
        </mxCell>
        <mxCell id="rzgTZy9dt3fZO1DUhx3O-195" value="" style="shape=partialRectangle;html=1;whiteSpace=wrap;connectable=0;strokeColor=inherit;overflow=hidden;fillColor=none;top=0;left=0;bottom=0;right=0;pointerEvents=1;" parent="rzgTZy9dt3fZO1DUhx3O-192" vertex="1">
          <mxGeometry x="120" width="60" height="40" as="geometry">
            <mxRectangle width="60" height="40" as="alternateBounds" />
          </mxGeometry>
        </mxCell>
        <mxCell id="rzgTZy9dt3fZO1DUhx3O-196" value="" style="shape=partialRectangle;html=1;whiteSpace=wrap;connectable=0;strokeColor=inherit;overflow=hidden;fillColor=none;top=0;left=0;bottom=0;right=0;pointerEvents=1;" parent="rzgTZy9dt3fZO1DUhx3O-192" vertex="1">
          <mxGeometry x="180" width="60" height="40" as="geometry">
            <mxRectangle width="60" height="40" as="alternateBounds" />
          </mxGeometry>
        </mxCell>
        <mxCell id="rzgTZy9dt3fZO1DUhx3O-199" value="" style="shape=table;startSize=0;container=1;collapsible=0;childLayout=tableLayout;" parent="1" vertex="1">
          <mxGeometry x="-2120" y="1760" width="300" height="40" as="geometry" />
        </mxCell>
        <mxCell id="rzgTZy9dt3fZO1DUhx3O-200" value="" style="shape=tableRow;horizontal=0;startSize=0;swimlaneHead=0;swimlaneBody=0;strokeColor=inherit;top=0;left=0;bottom=0;right=0;collapsible=0;dropTarget=0;fillColor=none;points=[[0,0.5],[1,0.5]];portConstraint=eastwest;" parent="rzgTZy9dt3fZO1DUhx3O-199" vertex="1">
          <mxGeometry width="300" height="40" as="geometry" />
        </mxCell>
        <mxCell id="rzgTZy9dt3fZO1DUhx3O-201" value="" style="shape=partialRectangle;html=1;whiteSpace=wrap;connectable=0;strokeColor=inherit;overflow=hidden;fillColor=none;top=0;left=0;bottom=0;right=0;pointerEvents=1;" parent="rzgTZy9dt3fZO1DUhx3O-200" vertex="1">
          <mxGeometry width="60" height="40" as="geometry">
            <mxRectangle width="60" height="40" as="alternateBounds" />
          </mxGeometry>
        </mxCell>
        <mxCell id="rzgTZy9dt3fZO1DUhx3O-202" value="" style="shape=partialRectangle;html=1;whiteSpace=wrap;connectable=0;strokeColor=inherit;overflow=hidden;fillColor=none;top=0;left=0;bottom=0;right=0;pointerEvents=1;" parent="rzgTZy9dt3fZO1DUhx3O-200" vertex="1">
          <mxGeometry x="60" width="60" height="40" as="geometry">
            <mxRectangle width="60" height="40" as="alternateBounds" />
          </mxGeometry>
        </mxCell>
        <mxCell id="rzgTZy9dt3fZO1DUhx3O-203" value="" style="shape=partialRectangle;html=1;whiteSpace=wrap;connectable=0;strokeColor=inherit;overflow=hidden;fillColor=none;top=0;left=0;bottom=0;right=0;pointerEvents=1;" parent="rzgTZy9dt3fZO1DUhx3O-200" vertex="1">
          <mxGeometry x="120" width="60" height="40" as="geometry">
            <mxRectangle width="60" height="40" as="alternateBounds" />
          </mxGeometry>
        </mxCell>
        <mxCell id="rzgTZy9dt3fZO1DUhx3O-204" value="" style="shape=partialRectangle;html=1;whiteSpace=wrap;connectable=0;strokeColor=inherit;overflow=hidden;fillColor=none;top=0;left=0;bottom=0;right=0;pointerEvents=1;" parent="rzgTZy9dt3fZO1DUhx3O-200" vertex="1">
          <mxGeometry x="180" width="60" height="40" as="geometry">
            <mxRectangle width="60" height="40" as="alternateBounds" />
          </mxGeometry>
        </mxCell>
        <mxCell id="rzgTZy9dt3fZO1DUhx3O-205" value="" style="shape=partialRectangle;html=1;whiteSpace=wrap;connectable=0;strokeColor=inherit;overflow=hidden;fillColor=none;top=0;left=0;bottom=0;right=0;pointerEvents=1;" parent="rzgTZy9dt3fZO1DUhx3O-200" vertex="1">
          <mxGeometry x="240" width="60" height="40" as="geometry">
            <mxRectangle width="60" height="40" as="alternateBounds" />
          </mxGeometry>
        </mxCell>
        <mxCell id="rzgTZy9dt3fZO1DUhx3O-210" value="" style="edgeStyle=orthogonalEdgeStyle;rounded=0;orthogonalLoop=1;jettySize=auto;html=1;" parent="1" source="rzgTZy9dt3fZO1DUhx3O-207" target="rzgTZy9dt3fZO1DUhx3O-209" edge="1">
          <mxGeometry relative="1" as="geometry" />
        </mxCell>
        <mxCell id="rzgTZy9dt3fZO1DUhx3O-207" value="pad_word_ids" style="rounded=0;whiteSpace=wrap;html=1;" parent="1" vertex="1">
          <mxGeometry x="-2440" y="1640" width="120" height="60" as="geometry" />
        </mxCell>
        <mxCell id="rzgTZy9dt3fZO1DUhx3O-237" value="" style="edgeStyle=orthogonalEdgeStyle;rounded=0;orthogonalLoop=1;jettySize=auto;html=1;" parent="1" source="rzgTZy9dt3fZO1DUhx3O-209" target="rzgTZy9dt3fZO1DUhx3O-236" edge="1">
          <mxGeometry relative="1" as="geometry" />
        </mxCell>
        <mxCell id="rzgTZy9dt3fZO1DUhx3O-209" value="map pred_tokens to words / group" style="rounded=0;whiteSpace=wrap;html=1;" parent="1" vertex="1">
          <mxGeometry x="-2440" y="1740" width="120" height="60" as="geometry" />
        </mxCell>
        <mxCell id="rzgTZy9dt3fZO1DUhx3O-211" value="" style="shape=table;startSize=0;container=1;collapsible=0;childLayout=tableLayout;" parent="1" vertex="1">
          <mxGeometry x="-2070" y="2150" width="360" height="40" as="geometry" />
        </mxCell>
        <mxCell id="rzgTZy9dt3fZO1DUhx3O-212" value="" style="shape=tableRow;horizontal=0;startSize=0;swimlaneHead=0;swimlaneBody=0;strokeColor=inherit;top=0;left=0;bottom=0;right=0;collapsible=0;dropTarget=0;fillColor=none;points=[[0,0.5],[1,0.5]];portConstraint=eastwest;" parent="rzgTZy9dt3fZO1DUhx3O-211" vertex="1">
          <mxGeometry width="360" height="40" as="geometry" />
        </mxCell>
        <mxCell id="rzgTZy9dt3fZO1DUhx3O-213" value="" style="shape=partialRectangle;html=1;whiteSpace=wrap;connectable=0;strokeColor=inherit;overflow=hidden;fillColor=none;top=0;left=0;bottom=0;right=0;pointerEvents=1;" parent="rzgTZy9dt3fZO1DUhx3O-212" vertex="1">
          <mxGeometry width="60" height="40" as="geometry">
            <mxRectangle width="60" height="40" as="alternateBounds" />
          </mxGeometry>
        </mxCell>
        <mxCell id="rzgTZy9dt3fZO1DUhx3O-214" value="" style="shape=partialRectangle;html=1;whiteSpace=wrap;connectable=0;strokeColor=inherit;overflow=hidden;fillColor=none;top=0;left=0;bottom=0;right=0;pointerEvents=1;" parent="rzgTZy9dt3fZO1DUhx3O-212" vertex="1">
          <mxGeometry x="60" width="60" height="40" as="geometry">
            <mxRectangle width="60" height="40" as="alternateBounds" />
          </mxGeometry>
        </mxCell>
        <mxCell id="rzgTZy9dt3fZO1DUhx3O-215" value="" style="shape=partialRectangle;html=1;whiteSpace=wrap;connectable=0;strokeColor=inherit;overflow=hidden;fillColor=none;top=0;left=0;bottom=0;right=0;pointerEvents=1;" parent="rzgTZy9dt3fZO1DUhx3O-212" vertex="1">
          <mxGeometry x="120" width="60" height="40" as="geometry">
            <mxRectangle width="60" height="40" as="alternateBounds" />
          </mxGeometry>
        </mxCell>
        <mxCell id="rzgTZy9dt3fZO1DUhx3O-216" value="" style="shape=partialRectangle;html=1;whiteSpace=wrap;connectable=0;strokeColor=inherit;overflow=hidden;fillColor=none;top=0;left=0;bottom=0;right=0;pointerEvents=1;" parent="rzgTZy9dt3fZO1DUhx3O-212" vertex="1">
          <mxGeometry x="180" width="60" height="40" as="geometry">
            <mxRectangle width="60" height="40" as="alternateBounds" />
          </mxGeometry>
        </mxCell>
        <mxCell id="rzgTZy9dt3fZO1DUhx3O-217" value="" style="shape=partialRectangle;html=1;whiteSpace=wrap;connectable=0;strokeColor=inherit;overflow=hidden;fillColor=none;top=0;left=0;bottom=0;right=0;pointerEvents=1;" parent="rzgTZy9dt3fZO1DUhx3O-212" vertex="1">
          <mxGeometry x="240" width="60" height="40" as="geometry">
            <mxRectangle width="60" height="40" as="alternateBounds" />
          </mxGeometry>
        </mxCell>
        <mxCell id="rzgTZy9dt3fZO1DUhx3O-218" value="" style="shape=partialRectangle;html=1;whiteSpace=wrap;connectable=0;strokeColor=inherit;overflow=hidden;fillColor=none;top=0;left=0;bottom=0;right=0;pointerEvents=1;" parent="rzgTZy9dt3fZO1DUhx3O-212" vertex="1">
          <mxGeometry x="300" width="60" height="40" as="geometry">
            <mxRectangle width="60" height="40" as="alternateBounds" />
          </mxGeometry>
        </mxCell>
        <mxCell id="rzgTZy9dt3fZO1DUhx3O-219" value="" style="shape=table;startSize=0;container=1;collapsible=0;childLayout=tableLayout;" parent="1" vertex="1">
          <mxGeometry x="-2070" y="2190" width="360" height="40" as="geometry" />
        </mxCell>
        <mxCell id="rzgTZy9dt3fZO1DUhx3O-220" value="" style="shape=tableRow;horizontal=0;startSize=0;swimlaneHead=0;swimlaneBody=0;strokeColor=inherit;top=0;left=0;bottom=0;right=0;collapsible=0;dropTarget=0;fillColor=none;points=[[0,0.5],[1,0.5]];portConstraint=eastwest;" parent="rzgTZy9dt3fZO1DUhx3O-219" vertex="1">
          <mxGeometry width="360" height="40" as="geometry" />
        </mxCell>
        <mxCell id="rzgTZy9dt3fZO1DUhx3O-221" value="" style="shape=partialRectangle;html=1;whiteSpace=wrap;connectable=0;strokeColor=inherit;overflow=hidden;fillColor=none;top=0;left=0;bottom=0;right=0;pointerEvents=1;" parent="rzgTZy9dt3fZO1DUhx3O-220" vertex="1">
          <mxGeometry width="60" height="40" as="geometry">
            <mxRectangle width="60" height="40" as="alternateBounds" />
          </mxGeometry>
        </mxCell>
        <mxCell id="rzgTZy9dt3fZO1DUhx3O-222" value="" style="shape=partialRectangle;html=1;whiteSpace=wrap;connectable=0;strokeColor=inherit;overflow=hidden;fillColor=none;top=0;left=0;bottom=0;right=0;pointerEvents=1;" parent="rzgTZy9dt3fZO1DUhx3O-220" vertex="1">
          <mxGeometry x="60" width="60" height="40" as="geometry">
            <mxRectangle width="60" height="40" as="alternateBounds" />
          </mxGeometry>
        </mxCell>
        <mxCell id="rzgTZy9dt3fZO1DUhx3O-223" value="" style="shape=partialRectangle;html=1;whiteSpace=wrap;connectable=0;strokeColor=inherit;overflow=hidden;fillColor=none;top=0;left=0;bottom=0;right=0;pointerEvents=1;" parent="rzgTZy9dt3fZO1DUhx3O-220" vertex="1">
          <mxGeometry x="120" width="60" height="40" as="geometry">
            <mxRectangle width="60" height="40" as="alternateBounds" />
          </mxGeometry>
        </mxCell>
        <mxCell id="rzgTZy9dt3fZO1DUhx3O-224" value="" style="shape=partialRectangle;html=1;whiteSpace=wrap;connectable=0;strokeColor=inherit;overflow=hidden;fillColor=none;top=0;left=0;bottom=0;right=0;pointerEvents=1;" parent="rzgTZy9dt3fZO1DUhx3O-220" vertex="1">
          <mxGeometry x="180" width="60" height="40" as="geometry">
            <mxRectangle width="60" height="40" as="alternateBounds" />
          </mxGeometry>
        </mxCell>
        <mxCell id="rzgTZy9dt3fZO1DUhx3O-225" value="" style="shape=partialRectangle;html=1;whiteSpace=wrap;connectable=0;strokeColor=inherit;overflow=hidden;fillColor=none;top=0;left=0;bottom=0;right=0;pointerEvents=1;" parent="rzgTZy9dt3fZO1DUhx3O-220" vertex="1">
          <mxGeometry x="240" width="60" height="40" as="geometry">
            <mxRectangle width="60" height="40" as="alternateBounds" />
          </mxGeometry>
        </mxCell>
        <mxCell id="rzgTZy9dt3fZO1DUhx3O-226" value="" style="shape=partialRectangle;html=1;whiteSpace=wrap;connectable=0;strokeColor=inherit;overflow=hidden;fillColor=none;top=0;left=0;bottom=0;right=0;pointerEvents=1;" parent="rzgTZy9dt3fZO1DUhx3O-220" vertex="1">
          <mxGeometry x="300" width="60" height="40" as="geometry">
            <mxRectangle width="60" height="40" as="alternateBounds" />
          </mxGeometry>
        </mxCell>
        <mxCell id="rzgTZy9dt3fZO1DUhx3O-227" value="" style="shape=table;startSize=0;container=1;collapsible=0;childLayout=tableLayout;" parent="1" vertex="1">
          <mxGeometry x="-2070" y="2230" width="360" height="40" as="geometry" />
        </mxCell>
        <mxCell id="rzgTZy9dt3fZO1DUhx3O-228" value="" style="shape=tableRow;horizontal=0;startSize=0;swimlaneHead=0;swimlaneBody=0;strokeColor=inherit;top=0;left=0;bottom=0;right=0;collapsible=0;dropTarget=0;fillColor=none;points=[[0,0.5],[1,0.5]];portConstraint=eastwest;" parent="rzgTZy9dt3fZO1DUhx3O-227" vertex="1">
          <mxGeometry width="360" height="40" as="geometry" />
        </mxCell>
        <mxCell id="rzgTZy9dt3fZO1DUhx3O-229" value="" style="shape=partialRectangle;html=1;whiteSpace=wrap;connectable=0;strokeColor=inherit;overflow=hidden;fillColor=none;top=0;left=0;bottom=0;right=0;pointerEvents=1;" parent="rzgTZy9dt3fZO1DUhx3O-228" vertex="1">
          <mxGeometry width="60" height="40" as="geometry">
            <mxRectangle width="60" height="40" as="alternateBounds" />
          </mxGeometry>
        </mxCell>
        <mxCell id="rzgTZy9dt3fZO1DUhx3O-230" value="" style="shape=partialRectangle;html=1;whiteSpace=wrap;connectable=0;strokeColor=inherit;overflow=hidden;fillColor=none;top=0;left=0;bottom=0;right=0;pointerEvents=1;" parent="rzgTZy9dt3fZO1DUhx3O-228" vertex="1">
          <mxGeometry x="60" width="60" height="40" as="geometry">
            <mxRectangle width="60" height="40" as="alternateBounds" />
          </mxGeometry>
        </mxCell>
        <mxCell id="rzgTZy9dt3fZO1DUhx3O-231" value="" style="shape=partialRectangle;html=1;whiteSpace=wrap;connectable=0;strokeColor=inherit;overflow=hidden;fillColor=none;top=0;left=0;bottom=0;right=0;pointerEvents=1;" parent="rzgTZy9dt3fZO1DUhx3O-228" vertex="1">
          <mxGeometry x="120" width="60" height="40" as="geometry">
            <mxRectangle width="60" height="40" as="alternateBounds" />
          </mxGeometry>
        </mxCell>
        <mxCell id="rzgTZy9dt3fZO1DUhx3O-232" value="" style="shape=partialRectangle;html=1;whiteSpace=wrap;connectable=0;strokeColor=inherit;overflow=hidden;fillColor=none;top=0;left=0;bottom=0;right=0;pointerEvents=1;" parent="rzgTZy9dt3fZO1DUhx3O-228" vertex="1">
          <mxGeometry x="180" width="60" height="40" as="geometry">
            <mxRectangle width="60" height="40" as="alternateBounds" />
          </mxGeometry>
        </mxCell>
        <mxCell id="rzgTZy9dt3fZO1DUhx3O-233" value="" style="shape=partialRectangle;html=1;whiteSpace=wrap;connectable=0;strokeColor=inherit;overflow=hidden;fillColor=none;top=0;left=0;bottom=0;right=0;pointerEvents=1;" parent="rzgTZy9dt3fZO1DUhx3O-228" vertex="1">
          <mxGeometry x="240" width="60" height="40" as="geometry">
            <mxRectangle width="60" height="40" as="alternateBounds" />
          </mxGeometry>
        </mxCell>
        <mxCell id="rzgTZy9dt3fZO1DUhx3O-234" value="" style="shape=partialRectangle;html=1;whiteSpace=wrap;connectable=0;strokeColor=inherit;overflow=hidden;fillColor=none;top=0;left=0;bottom=0;right=0;pointerEvents=1;" parent="rzgTZy9dt3fZO1DUhx3O-228" vertex="1">
          <mxGeometry x="300" width="60" height="40" as="geometry">
            <mxRectangle width="60" height="40" as="alternateBounds" />
          </mxGeometry>
        </mxCell>
        <mxCell id="rzgTZy9dt3fZO1DUhx3O-235" value="pred_tokens" style="rounded=0;whiteSpace=wrap;html=1;" parent="1" vertex="1">
          <mxGeometry x="-1970" y="2060" width="120" height="60" as="geometry" />
        </mxCell>
        <mxCell id="rzgTZy9dt3fZO1DUhx3O-239" value="" style="edgeStyle=orthogonalEdgeStyle;rounded=0;orthogonalLoop=1;jettySize=auto;html=1;" parent="1" source="rzgTZy9dt3fZO1DUhx3O-236" target="rzgTZy9dt3fZO1DUhx3O-238" edge="1">
          <mxGeometry relative="1" as="geometry" />
        </mxCell>
        <mxCell id="rzgTZy9dt3fZO1DUhx3O-236" value="Construct word-level preds" style="whiteSpace=wrap;html=1;rounded=0;" parent="1" vertex="1">
          <mxGeometry x="-2440" y="1850" width="120" height="60" as="geometry" />
        </mxCell>
        <mxCell id="rzgTZy9dt3fZO1DUhx3O-238" value="Compute metrics" style="whiteSpace=wrap;html=1;rounded=0;" parent="1" vertex="1">
          <mxGeometry x="-2440" y="1950" width="120" height="60" as="geometry" />
        </mxCell>
        <mxCell id="81NWTbVl_GQDwaZwc16d-1" value="" style="shape=table;startSize=0;container=1;collapsible=0;childLayout=tableLayout;" parent="1" vertex="1">
          <mxGeometry x="-2410" y="2530" width="840" height="40" as="geometry" />
        </mxCell>
        <mxCell id="81NWTbVl_GQDwaZwc16d-2" value="" style="shape=tableRow;horizontal=0;startSize=0;swimlaneHead=0;swimlaneBody=0;strokeColor=inherit;top=0;left=0;bottom=0;right=0;collapsible=0;dropTarget=0;fillColor=none;points=[[0,0.5],[1,0.5]];portConstraint=eastwest;" parent="81NWTbVl_GQDwaZwc16d-1" vertex="1">
          <mxGeometry width="840" height="40" as="geometry" />
        </mxCell>
        <mxCell id="81NWTbVl_GQDwaZwc16d-3" value="" style="shape=partialRectangle;html=1;whiteSpace=wrap;connectable=0;strokeColor=inherit;overflow=hidden;fillColor=none;top=0;left=0;bottom=0;right=0;pointerEvents=1;" parent="81NWTbVl_GQDwaZwc16d-2" vertex="1">
          <mxGeometry width="60" height="40" as="geometry">
            <mxRectangle width="60" height="40" as="alternateBounds" />
          </mxGeometry>
        </mxCell>
        <mxCell id="81NWTbVl_GQDwaZwc16d-4" value="" style="shape=partialRectangle;html=1;whiteSpace=wrap;connectable=0;strokeColor=inherit;overflow=hidden;fillColor=none;top=0;left=0;bottom=0;right=0;pointerEvents=1;" parent="81NWTbVl_GQDwaZwc16d-2" vertex="1">
          <mxGeometry x="60" width="60" height="40" as="geometry">
            <mxRectangle width="60" height="40" as="alternateBounds" />
          </mxGeometry>
        </mxCell>
        <mxCell id="81NWTbVl_GQDwaZwc16d-5" value="1" style="shape=partialRectangle;html=1;whiteSpace=wrap;connectable=0;strokeColor=inherit;overflow=hidden;fillColor=none;top=0;left=0;bottom=0;right=0;pointerEvents=1;" parent="81NWTbVl_GQDwaZwc16d-2" vertex="1">
          <mxGeometry x="120" width="60" height="40" as="geometry">
            <mxRectangle width="60" height="40" as="alternateBounds" />
          </mxGeometry>
        </mxCell>
        <mxCell id="81NWTbVl_GQDwaZwc16d-6" value="" style="shape=partialRectangle;html=1;whiteSpace=wrap;connectable=0;strokeColor=inherit;overflow=hidden;fillColor=none;top=0;left=0;bottom=0;right=0;pointerEvents=1;" parent="81NWTbVl_GQDwaZwc16d-2" vertex="1">
          <mxGeometry x="180" width="60" height="40" as="geometry">
            <mxRectangle width="60" height="40" as="alternateBounds" />
          </mxGeometry>
        </mxCell>
        <mxCell id="81NWTbVl_GQDwaZwc16d-7" value="" style="shape=partialRectangle;html=1;whiteSpace=wrap;connectable=0;strokeColor=inherit;overflow=hidden;fillColor=none;top=0;left=0;bottom=0;right=0;pointerEvents=1;" parent="81NWTbVl_GQDwaZwc16d-2" vertex="1">
          <mxGeometry x="240" width="60" height="40" as="geometry">
            <mxRectangle width="60" height="40" as="alternateBounds" />
          </mxGeometry>
        </mxCell>
        <mxCell id="81NWTbVl_GQDwaZwc16d-8" value="" style="shape=partialRectangle;html=1;whiteSpace=wrap;connectable=0;strokeColor=inherit;overflow=hidden;fillColor=none;top=0;left=0;bottom=0;right=0;pointerEvents=1;" parent="81NWTbVl_GQDwaZwc16d-2" vertex="1">
          <mxGeometry x="300" width="60" height="40" as="geometry">
            <mxRectangle width="60" height="40" as="alternateBounds" />
          </mxGeometry>
        </mxCell>
        <mxCell id="81NWTbVl_GQDwaZwc16d-9" value="1" style="shape=partialRectangle;html=1;whiteSpace=wrap;connectable=0;strokeColor=inherit;overflow=hidden;fillColor=none;top=0;left=0;bottom=0;right=0;pointerEvents=1;" parent="81NWTbVl_GQDwaZwc16d-2" vertex="1">
          <mxGeometry x="360" width="60" height="40" as="geometry">
            <mxRectangle width="60" height="40" as="alternateBounds" />
          </mxGeometry>
        </mxCell>
        <mxCell id="81NWTbVl_GQDwaZwc16d-10" value="" style="shape=partialRectangle;html=1;whiteSpace=wrap;connectable=0;strokeColor=inherit;overflow=hidden;fillColor=none;top=0;left=0;bottom=0;right=0;pointerEvents=1;" parent="81NWTbVl_GQDwaZwc16d-2" vertex="1">
          <mxGeometry x="420" width="60" height="40" as="geometry">
            <mxRectangle width="60" height="40" as="alternateBounds" />
          </mxGeometry>
        </mxCell>
        <mxCell id="81NWTbVl_GQDwaZwc16d-11" value="1" style="shape=partialRectangle;html=1;whiteSpace=wrap;connectable=0;strokeColor=inherit;overflow=hidden;fillColor=none;top=0;left=0;bottom=0;right=0;pointerEvents=1;" parent="81NWTbVl_GQDwaZwc16d-2" vertex="1">
          <mxGeometry x="480" width="60" height="40" as="geometry">
            <mxRectangle width="60" height="40" as="alternateBounds" />
          </mxGeometry>
        </mxCell>
        <mxCell id="81NWTbVl_GQDwaZwc16d-12" value="" style="shape=partialRectangle;html=1;whiteSpace=wrap;connectable=0;strokeColor=inherit;overflow=hidden;fillColor=none;top=0;left=0;bottom=0;right=0;pointerEvents=1;" parent="81NWTbVl_GQDwaZwc16d-2" vertex="1">
          <mxGeometry x="540" width="60" height="40" as="geometry">
            <mxRectangle width="60" height="40" as="alternateBounds" />
          </mxGeometry>
        </mxCell>
        <mxCell id="81NWTbVl_GQDwaZwc16d-13" value="" style="shape=partialRectangle;html=1;whiteSpace=wrap;connectable=0;strokeColor=inherit;overflow=hidden;fillColor=none;top=0;left=0;bottom=0;right=0;pointerEvents=1;" parent="81NWTbVl_GQDwaZwc16d-2" vertex="1">
          <mxGeometry x="600" width="60" height="40" as="geometry">
            <mxRectangle width="60" height="40" as="alternateBounds" />
          </mxGeometry>
        </mxCell>
        <mxCell id="81NWTbVl_GQDwaZwc16d-14" value="" style="shape=partialRectangle;html=1;whiteSpace=wrap;connectable=0;strokeColor=inherit;overflow=hidden;fillColor=none;top=0;left=0;bottom=0;right=0;pointerEvents=1;" parent="81NWTbVl_GQDwaZwc16d-2" vertex="1">
          <mxGeometry x="660" width="60" height="40" as="geometry">
            <mxRectangle width="60" height="40" as="alternateBounds" />
          </mxGeometry>
        </mxCell>
        <mxCell id="81NWTbVl_GQDwaZwc16d-15" value="1" style="shape=partialRectangle;html=1;whiteSpace=wrap;connectable=0;strokeColor=inherit;overflow=hidden;fillColor=none;top=0;left=0;bottom=0;right=0;pointerEvents=1;" parent="81NWTbVl_GQDwaZwc16d-2" vertex="1">
          <mxGeometry x="720" width="60" height="40" as="geometry">
            <mxRectangle width="60" height="40" as="alternateBounds" />
          </mxGeometry>
        </mxCell>
        <mxCell id="81NWTbVl_GQDwaZwc16d-16" value="1" style="shape=partialRectangle;html=1;whiteSpace=wrap;connectable=0;strokeColor=inherit;overflow=hidden;fillColor=none;top=0;left=0;bottom=0;right=0;pointerEvents=1;" parent="81NWTbVl_GQDwaZwc16d-2" vertex="1">
          <mxGeometry x="780" width="60" height="40" as="geometry">
            <mxRectangle width="60" height="40" as="alternateBounds" />
          </mxGeometry>
        </mxCell>
        <mxCell id="81NWTbVl_GQDwaZwc16d-17" value="" style="shape=table;startSize=0;container=1;collapsible=0;childLayout=tableLayout;" parent="1" vertex="1">
          <mxGeometry x="-2480" y="2750" width="840" height="40" as="geometry" />
        </mxCell>
        <mxCell id="81NWTbVl_GQDwaZwc16d-18" value="" style="shape=tableRow;horizontal=0;startSize=0;swimlaneHead=0;swimlaneBody=0;strokeColor=inherit;top=0;left=0;bottom=0;right=0;collapsible=0;dropTarget=0;fillColor=none;points=[[0,0.5],[1,0.5]];portConstraint=eastwest;" parent="81NWTbVl_GQDwaZwc16d-17" vertex="1">
          <mxGeometry width="840" height="40" as="geometry" />
        </mxCell>
        <mxCell id="81NWTbVl_GQDwaZwc16d-19" value="0" style="shape=partialRectangle;html=1;whiteSpace=wrap;connectable=0;strokeColor=inherit;overflow=hidden;fillColor=none;top=0;left=0;bottom=0;right=0;pointerEvents=1;" parent="81NWTbVl_GQDwaZwc16d-18" vertex="1">
          <mxGeometry width="60" height="40" as="geometry">
            <mxRectangle width="60" height="40" as="alternateBounds" />
          </mxGeometry>
        </mxCell>
        <mxCell id="81NWTbVl_GQDwaZwc16d-20" value="0" style="shape=partialRectangle;html=1;whiteSpace=wrap;connectable=0;strokeColor=inherit;overflow=hidden;fillColor=none;top=0;left=0;bottom=0;right=0;pointerEvents=1;" parent="81NWTbVl_GQDwaZwc16d-18" vertex="1">
          <mxGeometry x="60" width="60" height="40" as="geometry">
            <mxRectangle width="60" height="40" as="alternateBounds" />
          </mxGeometry>
        </mxCell>
        <mxCell id="81NWTbVl_GQDwaZwc16d-21" value="1" style="shape=partialRectangle;html=1;whiteSpace=wrap;connectable=0;strokeColor=inherit;overflow=hidden;fillColor=none;top=0;left=0;bottom=0;right=0;pointerEvents=1;" parent="81NWTbVl_GQDwaZwc16d-18" vertex="1">
          <mxGeometry x="120" width="60" height="40" as="geometry">
            <mxRectangle width="60" height="40" as="alternateBounds" />
          </mxGeometry>
        </mxCell>
        <mxCell id="81NWTbVl_GQDwaZwc16d-22" value="1" style="shape=partialRectangle;html=1;whiteSpace=wrap;connectable=0;strokeColor=inherit;overflow=hidden;fillColor=none;top=0;left=0;bottom=0;right=0;pointerEvents=1;" parent="81NWTbVl_GQDwaZwc16d-18" vertex="1">
          <mxGeometry x="180" width="60" height="40" as="geometry">
            <mxRectangle width="60" height="40" as="alternateBounds" />
          </mxGeometry>
        </mxCell>
        <mxCell id="81NWTbVl_GQDwaZwc16d-23" value="1" style="shape=partialRectangle;html=1;whiteSpace=wrap;connectable=0;strokeColor=inherit;overflow=hidden;fillColor=none;top=0;left=0;bottom=0;right=0;pointerEvents=1;" parent="81NWTbVl_GQDwaZwc16d-18" vertex="1">
          <mxGeometry x="240" width="60" height="40" as="geometry">
            <mxRectangle width="60" height="40" as="alternateBounds" />
          </mxGeometry>
        </mxCell>
        <mxCell id="81NWTbVl_GQDwaZwc16d-24" value="1" style="shape=partialRectangle;html=1;whiteSpace=wrap;connectable=0;strokeColor=inherit;overflow=hidden;fillColor=none;top=0;left=0;bottom=0;right=0;pointerEvents=1;" parent="81NWTbVl_GQDwaZwc16d-18" vertex="1">
          <mxGeometry x="300" width="60" height="40" as="geometry">
            <mxRectangle width="60" height="40" as="alternateBounds" />
          </mxGeometry>
        </mxCell>
        <mxCell id="81NWTbVl_GQDwaZwc16d-25" value="2" style="shape=partialRectangle;html=1;whiteSpace=wrap;connectable=0;strokeColor=inherit;overflow=hidden;fillColor=none;top=0;left=0;bottom=0;right=0;pointerEvents=1;" parent="81NWTbVl_GQDwaZwc16d-18" vertex="1">
          <mxGeometry x="360" width="60" height="40" as="geometry">
            <mxRectangle width="60" height="40" as="alternateBounds" />
          </mxGeometry>
        </mxCell>
        <mxCell id="81NWTbVl_GQDwaZwc16d-26" value="2" style="shape=partialRectangle;html=1;whiteSpace=wrap;connectable=0;strokeColor=inherit;overflow=hidden;fillColor=none;top=0;left=0;bottom=0;right=0;pointerEvents=1;" parent="81NWTbVl_GQDwaZwc16d-18" vertex="1">
          <mxGeometry x="420" width="60" height="40" as="geometry">
            <mxRectangle width="60" height="40" as="alternateBounds" />
          </mxGeometry>
        </mxCell>
        <mxCell id="81NWTbVl_GQDwaZwc16d-27" value="3" style="shape=partialRectangle;html=1;whiteSpace=wrap;connectable=0;strokeColor=inherit;overflow=hidden;fillColor=none;top=0;left=0;bottom=0;right=0;pointerEvents=1;" parent="81NWTbVl_GQDwaZwc16d-18" vertex="1">
          <mxGeometry x="480" width="60" height="40" as="geometry">
            <mxRectangle width="60" height="40" as="alternateBounds" />
          </mxGeometry>
        </mxCell>
        <mxCell id="81NWTbVl_GQDwaZwc16d-28" value="3" style="shape=partialRectangle;html=1;whiteSpace=wrap;connectable=0;strokeColor=inherit;overflow=hidden;fillColor=none;top=0;left=0;bottom=0;right=0;pointerEvents=1;" parent="81NWTbVl_GQDwaZwc16d-18" vertex="1">
          <mxGeometry x="540" width="60" height="40" as="geometry">
            <mxRectangle width="60" height="40" as="alternateBounds" />
          </mxGeometry>
        </mxCell>
        <mxCell id="81NWTbVl_GQDwaZwc16d-29" value="3" style="shape=partialRectangle;html=1;whiteSpace=wrap;connectable=0;strokeColor=inherit;overflow=hidden;fillColor=none;top=0;left=0;bottom=0;right=0;pointerEvents=1;" parent="81NWTbVl_GQDwaZwc16d-18" vertex="1">
          <mxGeometry x="600" width="60" height="40" as="geometry">
            <mxRectangle width="60" height="40" as="alternateBounds" />
          </mxGeometry>
        </mxCell>
        <mxCell id="81NWTbVl_GQDwaZwc16d-30" value="3" style="shape=partialRectangle;html=1;whiteSpace=wrap;connectable=0;strokeColor=inherit;overflow=hidden;fillColor=none;top=0;left=0;bottom=0;right=0;pointerEvents=1;" parent="81NWTbVl_GQDwaZwc16d-18" vertex="1">
          <mxGeometry x="660" width="60" height="40" as="geometry">
            <mxRectangle width="60" height="40" as="alternateBounds" />
          </mxGeometry>
        </mxCell>
        <mxCell id="81NWTbVl_GQDwaZwc16d-31" value="4" style="shape=partialRectangle;html=1;whiteSpace=wrap;connectable=0;strokeColor=inherit;overflow=hidden;fillColor=none;top=0;left=0;bottom=0;right=0;pointerEvents=1;" parent="81NWTbVl_GQDwaZwc16d-18" vertex="1">
          <mxGeometry x="720" width="60" height="40" as="geometry">
            <mxRectangle width="60" height="40" as="alternateBounds" />
          </mxGeometry>
        </mxCell>
        <mxCell id="81NWTbVl_GQDwaZwc16d-32" value="4" style="shape=partialRectangle;html=1;whiteSpace=wrap;connectable=0;strokeColor=inherit;overflow=hidden;fillColor=none;top=0;left=0;bottom=0;right=0;pointerEvents=1;" parent="81NWTbVl_GQDwaZwc16d-18" vertex="1">
          <mxGeometry x="780" width="60" height="40" as="geometry">
            <mxRectangle width="60" height="40" as="alternateBounds" />
          </mxGeometry>
        </mxCell>
        <mxCell id="81NWTbVl_GQDwaZwc16d-33" value="" style="shape=table;startSize=0;container=1;collapsible=0;childLayout=tableLayout;" parent="1" vertex="1">
          <mxGeometry x="-2480" y="2810" width="840" height="40" as="geometry" />
        </mxCell>
        <mxCell id="81NWTbVl_GQDwaZwc16d-34" value="" style="shape=tableRow;horizontal=0;startSize=0;swimlaneHead=0;swimlaneBody=0;strokeColor=inherit;top=0;left=0;bottom=0;right=0;collapsible=0;dropTarget=0;fillColor=none;points=[[0,0.5],[1,0.5]];portConstraint=eastwest;" parent="81NWTbVl_GQDwaZwc16d-33" vertex="1">
          <mxGeometry width="840" height="40" as="geometry" />
        </mxCell>
        <mxCell id="81NWTbVl_GQDwaZwc16d-35" value="0" style="shape=partialRectangle;html=1;whiteSpace=wrap;connectable=0;strokeColor=inherit;overflow=hidden;fillColor=none;top=0;left=0;bottom=0;right=0;pointerEvents=1;" parent="81NWTbVl_GQDwaZwc16d-34" vertex="1">
          <mxGeometry width="60" height="40" as="geometry">
            <mxRectangle width="60" height="40" as="alternateBounds" />
          </mxGeometry>
        </mxCell>
        <mxCell id="81NWTbVl_GQDwaZwc16d-36" value="0" style="shape=partialRectangle;html=1;whiteSpace=wrap;connectable=0;strokeColor=inherit;overflow=hidden;fillColor=none;top=0;left=0;bottom=0;right=0;pointerEvents=1;" parent="81NWTbVl_GQDwaZwc16d-34" vertex="1">
          <mxGeometry x="60" width="60" height="40" as="geometry">
            <mxRectangle width="60" height="40" as="alternateBounds" />
          </mxGeometry>
        </mxCell>
        <mxCell id="81NWTbVl_GQDwaZwc16d-37" value="1" style="shape=partialRectangle;html=1;whiteSpace=wrap;connectable=0;strokeColor=inherit;overflow=hidden;fillColor=none;top=0;left=0;bottom=0;right=0;pointerEvents=1;" parent="81NWTbVl_GQDwaZwc16d-34" vertex="1">
          <mxGeometry x="120" width="60" height="40" as="geometry">
            <mxRectangle width="60" height="40" as="alternateBounds" />
          </mxGeometry>
        </mxCell>
        <mxCell id="81NWTbVl_GQDwaZwc16d-38" value="1" style="shape=partialRectangle;html=1;whiteSpace=wrap;connectable=0;strokeColor=inherit;overflow=hidden;fillColor=none;top=0;left=0;bottom=0;right=0;pointerEvents=1;" parent="81NWTbVl_GQDwaZwc16d-34" vertex="1">
          <mxGeometry x="180" width="60" height="40" as="geometry">
            <mxRectangle width="60" height="40" as="alternateBounds" />
          </mxGeometry>
        </mxCell>
        <mxCell id="81NWTbVl_GQDwaZwc16d-39" value="1" style="shape=partialRectangle;html=1;whiteSpace=wrap;connectable=0;strokeColor=inherit;overflow=hidden;fillColor=none;top=0;left=0;bottom=0;right=0;pointerEvents=1;" parent="81NWTbVl_GQDwaZwc16d-34" vertex="1">
          <mxGeometry x="240" width="60" height="40" as="geometry">
            <mxRectangle width="60" height="40" as="alternateBounds" />
          </mxGeometry>
        </mxCell>
        <mxCell id="81NWTbVl_GQDwaZwc16d-40" value="1" style="shape=partialRectangle;html=1;whiteSpace=wrap;connectable=0;strokeColor=inherit;overflow=hidden;fillColor=none;top=0;left=0;bottom=0;right=0;pointerEvents=1;" parent="81NWTbVl_GQDwaZwc16d-34" vertex="1">
          <mxGeometry x="300" width="60" height="40" as="geometry">
            <mxRectangle width="60" height="40" as="alternateBounds" />
          </mxGeometry>
        </mxCell>
        <mxCell id="81NWTbVl_GQDwaZwc16d-41" value="2" style="shape=partialRectangle;html=1;whiteSpace=wrap;connectable=0;strokeColor=inherit;overflow=hidden;fillColor=none;top=0;left=0;bottom=0;right=0;pointerEvents=1;" parent="81NWTbVl_GQDwaZwc16d-34" vertex="1">
          <mxGeometry x="360" width="60" height="40" as="geometry">
            <mxRectangle width="60" height="40" as="alternateBounds" />
          </mxGeometry>
        </mxCell>
        <mxCell id="81NWTbVl_GQDwaZwc16d-42" value="2" style="shape=partialRectangle;html=1;whiteSpace=wrap;connectable=0;strokeColor=inherit;overflow=hidden;fillColor=none;top=0;left=0;bottom=0;right=0;pointerEvents=1;" parent="81NWTbVl_GQDwaZwc16d-34" vertex="1">
          <mxGeometry x="420" width="60" height="40" as="geometry">
            <mxRectangle width="60" height="40" as="alternateBounds" />
          </mxGeometry>
        </mxCell>
        <mxCell id="81NWTbVl_GQDwaZwc16d-43" value="3" style="shape=partialRectangle;html=1;whiteSpace=wrap;connectable=0;strokeColor=inherit;overflow=hidden;fillColor=none;top=0;left=0;bottom=0;right=0;pointerEvents=1;" parent="81NWTbVl_GQDwaZwc16d-34" vertex="1">
          <mxGeometry x="480" width="60" height="40" as="geometry">
            <mxRectangle width="60" height="40" as="alternateBounds" />
          </mxGeometry>
        </mxCell>
        <mxCell id="81NWTbVl_GQDwaZwc16d-44" value="3" style="shape=partialRectangle;html=1;whiteSpace=wrap;connectable=0;strokeColor=inherit;overflow=hidden;fillColor=none;top=0;left=0;bottom=0;right=0;pointerEvents=1;" parent="81NWTbVl_GQDwaZwc16d-34" vertex="1">
          <mxGeometry x="540" width="60" height="40" as="geometry">
            <mxRectangle width="60" height="40" as="alternateBounds" />
          </mxGeometry>
        </mxCell>
        <mxCell id="81NWTbVl_GQDwaZwc16d-45" value="3" style="shape=partialRectangle;html=1;whiteSpace=wrap;connectable=0;strokeColor=inherit;overflow=hidden;fillColor=none;top=0;left=0;bottom=0;right=0;pointerEvents=1;" parent="81NWTbVl_GQDwaZwc16d-34" vertex="1">
          <mxGeometry x="600" width="60" height="40" as="geometry">
            <mxRectangle width="60" height="40" as="alternateBounds" />
          </mxGeometry>
        </mxCell>
        <mxCell id="81NWTbVl_GQDwaZwc16d-46" value="3" style="shape=partialRectangle;html=1;whiteSpace=wrap;connectable=0;strokeColor=inherit;overflow=hidden;fillColor=none;top=0;left=0;bottom=0;right=0;pointerEvents=1;" parent="81NWTbVl_GQDwaZwc16d-34" vertex="1">
          <mxGeometry x="660" width="60" height="40" as="geometry">
            <mxRectangle width="60" height="40" as="alternateBounds" />
          </mxGeometry>
        </mxCell>
        <mxCell id="81NWTbVl_GQDwaZwc16d-47" value="4" style="shape=partialRectangle;html=1;whiteSpace=wrap;connectable=0;strokeColor=inherit;overflow=hidden;fillColor=none;top=0;left=0;bottom=0;right=0;pointerEvents=1;" parent="81NWTbVl_GQDwaZwc16d-34" vertex="1">
          <mxGeometry x="720" width="60" height="40" as="geometry">
            <mxRectangle width="60" height="40" as="alternateBounds" />
          </mxGeometry>
        </mxCell>
        <mxCell id="81NWTbVl_GQDwaZwc16d-48" value="4" style="shape=partialRectangle;html=1;whiteSpace=wrap;connectable=0;strokeColor=inherit;overflow=hidden;fillColor=none;top=0;left=0;bottom=0;right=0;pointerEvents=1;" parent="81NWTbVl_GQDwaZwc16d-34" vertex="1">
          <mxGeometry x="780" width="60" height="40" as="geometry">
            <mxRectangle width="60" height="40" as="alternateBounds" />
          </mxGeometry>
        </mxCell>
        <mxCell id="81NWTbVl_GQDwaZwc16d-50" value="" style="shape=table;startSize=0;container=1;collapsible=0;childLayout=tableLayout;" parent="1" vertex="1">
          <mxGeometry x="-1570" y="2760" width="60" height="400" as="geometry" />
        </mxCell>
        <mxCell id="81NWTbVl_GQDwaZwc16d-51" value="" style="shape=tableRow;horizontal=0;startSize=0;swimlaneHead=0;swimlaneBody=0;strokeColor=inherit;top=0;left=0;bottom=0;right=0;collapsible=0;dropTarget=0;fillColor=none;points=[[0,0.5],[1,0.5]];portConstraint=eastwest;" parent="81NWTbVl_GQDwaZwc16d-50" vertex="1">
          <mxGeometry width="60" height="40" as="geometry" />
        </mxCell>
        <mxCell id="81NWTbVl_GQDwaZwc16d-52" value="4" style="shape=partialRectangle;html=1;whiteSpace=wrap;connectable=0;strokeColor=inherit;overflow=hidden;fillColor=none;top=0;left=0;bottom=0;right=0;pointerEvents=1;" parent="81NWTbVl_GQDwaZwc16d-51" vertex="1">
          <mxGeometry width="60" height="40" as="geometry">
            <mxRectangle width="60" height="40" as="alternateBounds" />
          </mxGeometry>
        </mxCell>
        <mxCell id="81NWTbVl_GQDwaZwc16d-53" value="" style="shape=tableRow;horizontal=0;startSize=0;swimlaneHead=0;swimlaneBody=0;strokeColor=inherit;top=0;left=0;bottom=0;right=0;collapsible=0;dropTarget=0;fillColor=none;points=[[0,0.5],[1,0.5]];portConstraint=eastwest;" parent="81NWTbVl_GQDwaZwc16d-50" vertex="1">
          <mxGeometry y="40" width="60" height="40" as="geometry" />
        </mxCell>
        <mxCell id="81NWTbVl_GQDwaZwc16d-54" value="8" style="shape=partialRectangle;html=1;whiteSpace=wrap;connectable=0;strokeColor=inherit;overflow=hidden;fillColor=none;top=0;left=0;bottom=0;right=0;pointerEvents=1;" parent="81NWTbVl_GQDwaZwc16d-53" vertex="1">
          <mxGeometry width="60" height="40" as="geometry">
            <mxRectangle width="60" height="40" as="alternateBounds" />
          </mxGeometry>
        </mxCell>
        <mxCell id="81NWTbVl_GQDwaZwc16d-55" value="" style="shape=tableRow;horizontal=0;startSize=0;swimlaneHead=0;swimlaneBody=0;strokeColor=inherit;top=0;left=0;bottom=0;right=0;collapsible=0;dropTarget=0;fillColor=none;points=[[0,0.5],[1,0.5]];portConstraint=eastwest;" parent="81NWTbVl_GQDwaZwc16d-50" vertex="1">
          <mxGeometry y="80" width="60" height="40" as="geometry" />
        </mxCell>
        <mxCell id="81NWTbVl_GQDwaZwc16d-56" value="" style="shape=partialRectangle;html=1;whiteSpace=wrap;connectable=0;strokeColor=inherit;overflow=hidden;fillColor=none;top=0;left=0;bottom=0;right=0;pointerEvents=1;" parent="81NWTbVl_GQDwaZwc16d-55" vertex="1">
          <mxGeometry width="60" height="40" as="geometry">
            <mxRectangle width="60" height="40" as="alternateBounds" />
          </mxGeometry>
        </mxCell>
        <mxCell id="81NWTbVl_GQDwaZwc16d-57" value="" style="shape=tableRow;horizontal=0;startSize=0;swimlaneHead=0;swimlaneBody=0;strokeColor=inherit;top=0;left=0;bottom=0;right=0;collapsible=0;dropTarget=0;fillColor=none;points=[[0,0.5],[1,0.5]];portConstraint=eastwest;" parent="81NWTbVl_GQDwaZwc16d-50" vertex="1">
          <mxGeometry y="120" width="60" height="40" as="geometry" />
        </mxCell>
        <mxCell id="81NWTbVl_GQDwaZwc16d-58" value="" style="shape=partialRectangle;html=1;whiteSpace=wrap;connectable=0;strokeColor=inherit;overflow=hidden;fillColor=none;top=0;left=0;bottom=0;right=0;pointerEvents=1;" parent="81NWTbVl_GQDwaZwc16d-57" vertex="1">
          <mxGeometry width="60" height="40" as="geometry">
            <mxRectangle width="60" height="40" as="alternateBounds" />
          </mxGeometry>
        </mxCell>
        <mxCell id="81NWTbVl_GQDwaZwc16d-59" value="" style="shape=tableRow;horizontal=0;startSize=0;swimlaneHead=0;swimlaneBody=0;strokeColor=inherit;top=0;left=0;bottom=0;right=0;collapsible=0;dropTarget=0;fillColor=none;points=[[0,0.5],[1,0.5]];portConstraint=eastwest;" parent="81NWTbVl_GQDwaZwc16d-50" vertex="1">
          <mxGeometry y="160" width="60" height="40" as="geometry" />
        </mxCell>
        <mxCell id="81NWTbVl_GQDwaZwc16d-60" value="" style="shape=partialRectangle;html=1;whiteSpace=wrap;connectable=0;strokeColor=inherit;overflow=hidden;fillColor=none;top=0;left=0;bottom=0;right=0;pointerEvents=1;" parent="81NWTbVl_GQDwaZwc16d-59" vertex="1">
          <mxGeometry width="60" height="40" as="geometry">
            <mxRectangle width="60" height="40" as="alternateBounds" />
          </mxGeometry>
        </mxCell>
        <mxCell id="81NWTbVl_GQDwaZwc16d-61" value="" style="shape=tableRow;horizontal=0;startSize=0;swimlaneHead=0;swimlaneBody=0;strokeColor=inherit;top=0;left=0;bottom=0;right=0;collapsible=0;dropTarget=0;fillColor=none;points=[[0,0.5],[1,0.5]];portConstraint=eastwest;" parent="81NWTbVl_GQDwaZwc16d-50" vertex="1">
          <mxGeometry y="200" width="60" height="40" as="geometry" />
        </mxCell>
        <mxCell id="81NWTbVl_GQDwaZwc16d-62" value="" style="shape=partialRectangle;html=1;whiteSpace=wrap;connectable=0;strokeColor=inherit;overflow=hidden;fillColor=none;top=0;left=0;bottom=0;right=0;pointerEvents=1;" parent="81NWTbVl_GQDwaZwc16d-61" vertex="1">
          <mxGeometry width="60" height="40" as="geometry">
            <mxRectangle width="60" height="40" as="alternateBounds" />
          </mxGeometry>
        </mxCell>
        <mxCell id="81NWTbVl_GQDwaZwc16d-63" value="" style="shape=tableRow;horizontal=0;startSize=0;swimlaneHead=0;swimlaneBody=0;strokeColor=inherit;top=0;left=0;bottom=0;right=0;collapsible=0;dropTarget=0;fillColor=none;points=[[0,0.5],[1,0.5]];portConstraint=eastwest;" parent="81NWTbVl_GQDwaZwc16d-50" vertex="1">
          <mxGeometry y="240" width="60" height="40" as="geometry" />
        </mxCell>
        <mxCell id="81NWTbVl_GQDwaZwc16d-64" value="" style="shape=partialRectangle;html=1;whiteSpace=wrap;connectable=0;strokeColor=inherit;overflow=hidden;fillColor=none;top=0;left=0;bottom=0;right=0;pointerEvents=1;" parent="81NWTbVl_GQDwaZwc16d-63" vertex="1">
          <mxGeometry width="60" height="40" as="geometry">
            <mxRectangle width="60" height="40" as="alternateBounds" />
          </mxGeometry>
        </mxCell>
        <mxCell id="81NWTbVl_GQDwaZwc16d-65" value="" style="shape=tableRow;horizontal=0;startSize=0;swimlaneHead=0;swimlaneBody=0;strokeColor=inherit;top=0;left=0;bottom=0;right=0;collapsible=0;dropTarget=0;fillColor=none;points=[[0,0.5],[1,0.5]];portConstraint=eastwest;" parent="81NWTbVl_GQDwaZwc16d-50" vertex="1">
          <mxGeometry y="280" width="60" height="40" as="geometry" />
        </mxCell>
        <mxCell id="81NWTbVl_GQDwaZwc16d-66" value="" style="shape=partialRectangle;html=1;whiteSpace=wrap;connectable=0;strokeColor=inherit;overflow=hidden;fillColor=none;top=0;left=0;bottom=0;right=0;pointerEvents=1;" parent="81NWTbVl_GQDwaZwc16d-65" vertex="1">
          <mxGeometry width="60" height="40" as="geometry">
            <mxRectangle width="60" height="40" as="alternateBounds" />
          </mxGeometry>
        </mxCell>
        <mxCell id="81NWTbVl_GQDwaZwc16d-67" value="" style="shape=tableRow;horizontal=0;startSize=0;swimlaneHead=0;swimlaneBody=0;strokeColor=inherit;top=0;left=0;bottom=0;right=0;collapsible=0;dropTarget=0;fillColor=none;points=[[0,0.5],[1,0.5]];portConstraint=eastwest;" parent="81NWTbVl_GQDwaZwc16d-50" vertex="1">
          <mxGeometry y="320" width="60" height="40" as="geometry" />
        </mxCell>
        <mxCell id="81NWTbVl_GQDwaZwc16d-68" value="" style="shape=partialRectangle;html=1;whiteSpace=wrap;connectable=0;strokeColor=inherit;overflow=hidden;fillColor=none;top=0;left=0;bottom=0;right=0;pointerEvents=1;" parent="81NWTbVl_GQDwaZwc16d-67" vertex="1">
          <mxGeometry width="60" height="40" as="geometry">
            <mxRectangle width="60" height="40" as="alternateBounds" />
          </mxGeometry>
        </mxCell>
        <mxCell id="81NWTbVl_GQDwaZwc16d-69" value="" style="shape=tableRow;horizontal=0;startSize=0;swimlaneHead=0;swimlaneBody=0;strokeColor=inherit;top=0;left=0;bottom=0;right=0;collapsible=0;dropTarget=0;fillColor=none;points=[[0,0.5],[1,0.5]];portConstraint=eastwest;" parent="81NWTbVl_GQDwaZwc16d-50" vertex="1">
          <mxGeometry y="360" width="60" height="40" as="geometry" />
        </mxCell>
        <mxCell id="81NWTbVl_GQDwaZwc16d-70" value="" style="shape=partialRectangle;html=1;whiteSpace=wrap;connectable=0;strokeColor=inherit;overflow=hidden;fillColor=none;top=0;left=0;bottom=0;right=0;pointerEvents=1;" parent="81NWTbVl_GQDwaZwc16d-69" vertex="1">
          <mxGeometry width="60" height="40" as="geometry">
            <mxRectangle width="60" height="40" as="alternateBounds" />
          </mxGeometry>
        </mxCell>
        <mxCell id="81NWTbVl_GQDwaZwc16d-71" value="" style="shape=table;startSize=0;container=1;collapsible=0;childLayout=tableLayout;" parent="1" vertex="1">
          <mxGeometry x="-2480" y="3090" width="540" height="40" as="geometry" />
        </mxCell>
        <mxCell id="81NWTbVl_GQDwaZwc16d-72" value="" style="shape=tableRow;horizontal=0;startSize=0;swimlaneHead=0;swimlaneBody=0;strokeColor=inherit;top=0;left=0;bottom=0;right=0;collapsible=0;dropTarget=0;fillColor=none;points=[[0,0.5],[1,0.5]];portConstraint=eastwest;" parent="81NWTbVl_GQDwaZwc16d-71" vertex="1">
          <mxGeometry width="540" height="40" as="geometry" />
        </mxCell>
        <mxCell id="81NWTbVl_GQDwaZwc16d-73" value="0" style="shape=partialRectangle;html=1;whiteSpace=wrap;connectable=0;strokeColor=inherit;overflow=hidden;fillColor=none;top=0;left=0;bottom=0;right=0;pointerEvents=1;" parent="81NWTbVl_GQDwaZwc16d-72" vertex="1">
          <mxGeometry width="60" height="40" as="geometry">
            <mxRectangle width="60" height="40" as="alternateBounds" />
          </mxGeometry>
        </mxCell>
        <mxCell id="81NWTbVl_GQDwaZwc16d-74" value="1" style="shape=partialRectangle;html=1;whiteSpace=wrap;connectable=0;strokeColor=inherit;overflow=hidden;fillColor=none;top=0;left=0;bottom=0;right=0;pointerEvents=1;" parent="81NWTbVl_GQDwaZwc16d-72" vertex="1">
          <mxGeometry x="60" width="60" height="40" as="geometry">
            <mxRectangle width="60" height="40" as="alternateBounds" />
          </mxGeometry>
        </mxCell>
        <mxCell id="81NWTbVl_GQDwaZwc16d-75" value="2" style="shape=partialRectangle;html=1;whiteSpace=wrap;connectable=0;strokeColor=inherit;overflow=hidden;fillColor=none;top=0;left=0;bottom=0;right=0;pointerEvents=1;" parent="81NWTbVl_GQDwaZwc16d-72" vertex="1">
          <mxGeometry x="120" width="60" height="40" as="geometry">
            <mxRectangle width="60" height="40" as="alternateBounds" />
          </mxGeometry>
        </mxCell>
        <mxCell id="81NWTbVl_GQDwaZwc16d-76" value="3" style="shape=partialRectangle;html=1;whiteSpace=wrap;connectable=0;strokeColor=inherit;overflow=hidden;fillColor=none;top=0;left=0;bottom=0;right=0;pointerEvents=1;" parent="81NWTbVl_GQDwaZwc16d-72" vertex="1">
          <mxGeometry x="180" width="60" height="40" as="geometry">
            <mxRectangle width="60" height="40" as="alternateBounds" />
          </mxGeometry>
        </mxCell>
        <mxCell id="81NWTbVl_GQDwaZwc16d-77" value="4" style="shape=partialRectangle;html=1;whiteSpace=wrap;connectable=0;strokeColor=inherit;overflow=hidden;fillColor=none;top=0;left=0;bottom=0;right=0;pointerEvents=1;" parent="81NWTbVl_GQDwaZwc16d-72" vertex="1">
          <mxGeometry x="240" width="60" height="40" as="geometry">
            <mxRectangle width="60" height="40" as="alternateBounds" />
          </mxGeometry>
        </mxCell>
        <mxCell id="81NWTbVl_GQDwaZwc16d-78" value="5" style="shape=partialRectangle;html=1;whiteSpace=wrap;connectable=0;strokeColor=inherit;overflow=hidden;fillColor=none;top=0;left=0;bottom=0;right=0;pointerEvents=1;" parent="81NWTbVl_GQDwaZwc16d-72" vertex="1">
          <mxGeometry x="300" width="60" height="40" as="geometry">
            <mxRectangle width="60" height="40" as="alternateBounds" />
          </mxGeometry>
        </mxCell>
        <mxCell id="81NWTbVl_GQDwaZwc16d-79" value="6" style="shape=partialRectangle;html=1;whiteSpace=wrap;connectable=0;strokeColor=inherit;overflow=hidden;fillColor=none;top=0;left=0;bottom=0;right=0;pointerEvents=1;" parent="81NWTbVl_GQDwaZwc16d-72" vertex="1">
          <mxGeometry x="360" width="60" height="40" as="geometry">
            <mxRectangle width="60" height="40" as="alternateBounds" />
          </mxGeometry>
        </mxCell>
        <mxCell id="81NWTbVl_GQDwaZwc16d-80" value="7" style="shape=partialRectangle;html=1;whiteSpace=wrap;connectable=0;strokeColor=inherit;overflow=hidden;fillColor=none;top=0;left=0;bottom=0;right=0;pointerEvents=1;" parent="81NWTbVl_GQDwaZwc16d-72" vertex="1">
          <mxGeometry x="420" width="60" height="40" as="geometry">
            <mxRectangle width="60" height="40" as="alternateBounds" />
          </mxGeometry>
        </mxCell>
        <mxCell id="81NWTbVl_GQDwaZwc16d-81" value="8" style="shape=partialRectangle;html=1;whiteSpace=wrap;connectable=0;strokeColor=inherit;overflow=hidden;fillColor=none;top=0;left=0;bottom=0;right=0;pointerEvents=1;" parent="81NWTbVl_GQDwaZwc16d-72" vertex="1">
          <mxGeometry x="480" width="60" height="40" as="geometry">
            <mxRectangle width="60" height="40" as="alternateBounds" />
          </mxGeometry>
        </mxCell>
        <mxCell id="81NWTbVl_GQDwaZwc16d-83" value="&lt;h1&gt;Question:&lt;/h1&gt;&lt;div&gt;&lt;br&gt;&lt;/div&gt;&lt;div&gt;&lt;br&gt;&lt;/div&gt;" style="text;html=1;strokeColor=none;fillColor=none;spacing=5;spacingTop=-20;whiteSpace=wrap;overflow=hidden;rounded=0;" parent="1" vertex="1">
          <mxGeometry x="-1320" y="2760" width="190" height="120" as="geometry" />
        </mxCell>
        <mxCell id="81NWTbVl_GQDwaZwc16d-84" value="" style="shape=table;startSize=0;container=1;collapsible=0;childLayout=tableLayout;" parent="1" vertex="1">
          <mxGeometry x="-2470" y="3200" width="240" height="160" as="geometry" />
        </mxCell>
        <mxCell id="81NWTbVl_GQDwaZwc16d-85" value="" style="shape=tableRow;horizontal=0;startSize=0;swimlaneHead=0;swimlaneBody=0;strokeColor=inherit;top=0;left=0;bottom=0;right=0;collapsible=0;dropTarget=0;fillColor=none;points=[[0,0.5],[1,0.5]];portConstraint=eastwest;" parent="81NWTbVl_GQDwaZwc16d-84" vertex="1">
          <mxGeometry width="240" height="40" as="geometry" />
        </mxCell>
        <mxCell id="81NWTbVl_GQDwaZwc16d-86" value="0" style="shape=partialRectangle;html=1;whiteSpace=wrap;connectable=0;strokeColor=inherit;overflow=hidden;fillColor=none;top=0;left=0;bottom=0;right=0;pointerEvents=1;" parent="81NWTbVl_GQDwaZwc16d-85" vertex="1">
          <mxGeometry width="60" height="40" as="geometry">
            <mxRectangle width="60" height="40" as="alternateBounds" />
          </mxGeometry>
        </mxCell>
        <mxCell id="81NWTbVl_GQDwaZwc16d-88" value="1" style="shape=partialRectangle;html=1;whiteSpace=wrap;connectable=0;strokeColor=inherit;overflow=hidden;fillColor=none;top=0;left=0;bottom=0;right=0;pointerEvents=1;" parent="81NWTbVl_GQDwaZwc16d-85" vertex="1">
          <mxGeometry x="60" width="60" height="40" as="geometry">
            <mxRectangle width="60" height="40" as="alternateBounds" />
          </mxGeometry>
        </mxCell>
        <mxCell id="81NWTbVl_GQDwaZwc16d-89" value="2" style="shape=partialRectangle;html=1;whiteSpace=wrap;connectable=0;strokeColor=inherit;overflow=hidden;fillColor=none;top=0;left=0;bottom=0;right=0;pointerEvents=1;" parent="81NWTbVl_GQDwaZwc16d-85" vertex="1">
          <mxGeometry x="120" width="60" height="40" as="geometry">
            <mxRectangle width="60" height="40" as="alternateBounds" />
          </mxGeometry>
        </mxCell>
        <mxCell id="81NWTbVl_GQDwaZwc16d-90" value="3" style="shape=partialRectangle;html=1;whiteSpace=wrap;connectable=0;strokeColor=inherit;overflow=hidden;fillColor=none;top=0;left=0;bottom=0;right=0;pointerEvents=1;" parent="81NWTbVl_GQDwaZwc16d-85" vertex="1">
          <mxGeometry x="180" width="60" height="40" as="geometry">
            <mxRectangle width="60" height="40" as="alternateBounds" />
          </mxGeometry>
        </mxCell>
        <mxCell id="81NWTbVl_GQDwaZwc16d-91" value="" style="shape=tableRow;horizontal=0;startSize=0;swimlaneHead=0;swimlaneBody=0;strokeColor=inherit;top=0;left=0;bottom=0;right=0;collapsible=0;dropTarget=0;fillColor=none;points=[[0,0.5],[1,0.5]];portConstraint=eastwest;" parent="81NWTbVl_GQDwaZwc16d-84" vertex="1">
          <mxGeometry y="40" width="240" height="40" as="geometry" />
        </mxCell>
        <mxCell id="81NWTbVl_GQDwaZwc16d-92" value="0" style="shape=partialRectangle;html=1;whiteSpace=wrap;connectable=0;strokeColor=inherit;overflow=hidden;fillColor=none;top=0;left=0;bottom=0;right=0;pointerEvents=1;" parent="81NWTbVl_GQDwaZwc16d-91" vertex="1">
          <mxGeometry width="60" height="40" as="geometry">
            <mxRectangle width="60" height="40" as="alternateBounds" />
          </mxGeometry>
        </mxCell>
        <mxCell id="81NWTbVl_GQDwaZwc16d-94" value="1" style="shape=partialRectangle;html=1;whiteSpace=wrap;connectable=0;strokeColor=inherit;overflow=hidden;fillColor=none;top=0;left=0;bottom=0;right=0;pointerEvents=1;" parent="81NWTbVl_GQDwaZwc16d-91" vertex="1">
          <mxGeometry x="60" width="60" height="40" as="geometry">
            <mxRectangle width="60" height="40" as="alternateBounds" />
          </mxGeometry>
        </mxCell>
        <mxCell id="81NWTbVl_GQDwaZwc16d-95" value="2" style="shape=partialRectangle;html=1;whiteSpace=wrap;connectable=0;strokeColor=inherit;overflow=hidden;fillColor=none;top=0;left=0;bottom=0;right=0;pointerEvents=1;" parent="81NWTbVl_GQDwaZwc16d-91" vertex="1">
          <mxGeometry x="120" width="60" height="40" as="geometry">
            <mxRectangle width="60" height="40" as="alternateBounds" />
          </mxGeometry>
        </mxCell>
        <mxCell id="81NWTbVl_GQDwaZwc16d-96" value="3" style="shape=partialRectangle;html=1;whiteSpace=wrap;connectable=0;strokeColor=inherit;overflow=hidden;fillColor=none;top=0;left=0;bottom=0;right=0;pointerEvents=1;" parent="81NWTbVl_GQDwaZwc16d-91" vertex="1">
          <mxGeometry x="180" width="60" height="40" as="geometry">
            <mxRectangle width="60" height="40" as="alternateBounds" />
          </mxGeometry>
        </mxCell>
        <mxCell id="81NWTbVl_GQDwaZwc16d-97" value="" style="shape=tableRow;horizontal=0;startSize=0;swimlaneHead=0;swimlaneBody=0;strokeColor=inherit;top=0;left=0;bottom=0;right=0;collapsible=0;dropTarget=0;fillColor=none;points=[[0,0.5],[1,0.5]];portConstraint=eastwest;" parent="81NWTbVl_GQDwaZwc16d-84" vertex="1">
          <mxGeometry y="80" width="240" height="40" as="geometry" />
        </mxCell>
        <mxCell id="81NWTbVl_GQDwaZwc16d-98" value="0" style="shape=partialRectangle;html=1;whiteSpace=wrap;connectable=0;strokeColor=inherit;overflow=hidden;fillColor=none;top=0;left=0;bottom=0;right=0;pointerEvents=1;" parent="81NWTbVl_GQDwaZwc16d-97" vertex="1">
          <mxGeometry width="60" height="40" as="geometry">
            <mxRectangle width="60" height="40" as="alternateBounds" />
          </mxGeometry>
        </mxCell>
        <mxCell id="81NWTbVl_GQDwaZwc16d-100" value="1" style="shape=partialRectangle;html=1;whiteSpace=wrap;connectable=0;strokeColor=inherit;overflow=hidden;fillColor=none;top=0;left=0;bottom=0;right=0;pointerEvents=1;" parent="81NWTbVl_GQDwaZwc16d-97" vertex="1">
          <mxGeometry x="60" width="60" height="40" as="geometry">
            <mxRectangle width="60" height="40" as="alternateBounds" />
          </mxGeometry>
        </mxCell>
        <mxCell id="81NWTbVl_GQDwaZwc16d-101" value="" style="shape=partialRectangle;html=1;whiteSpace=wrap;connectable=0;strokeColor=inherit;overflow=hidden;fillColor=none;top=0;left=0;bottom=0;right=0;pointerEvents=1;" parent="81NWTbVl_GQDwaZwc16d-97" vertex="1">
          <mxGeometry x="120" width="60" height="40" as="geometry">
            <mxRectangle width="60" height="40" as="alternateBounds" />
          </mxGeometry>
        </mxCell>
        <mxCell id="81NWTbVl_GQDwaZwc16d-102" value="" style="shape=partialRectangle;html=1;whiteSpace=wrap;connectable=0;strokeColor=inherit;overflow=hidden;fillColor=none;top=0;left=0;bottom=0;right=0;pointerEvents=1;" parent="81NWTbVl_GQDwaZwc16d-97" vertex="1">
          <mxGeometry x="180" width="60" height="40" as="geometry">
            <mxRectangle width="60" height="40" as="alternateBounds" />
          </mxGeometry>
        </mxCell>
        <mxCell id="81NWTbVl_GQDwaZwc16d-103" value="" style="shape=tableRow;horizontal=0;startSize=0;swimlaneHead=0;swimlaneBody=0;strokeColor=inherit;top=0;left=0;bottom=0;right=0;collapsible=0;dropTarget=0;fillColor=none;points=[[0,0.5],[1,0.5]];portConstraint=eastwest;" parent="81NWTbVl_GQDwaZwc16d-84" vertex="1">
          <mxGeometry y="120" width="240" height="40" as="geometry" />
        </mxCell>
        <mxCell id="81NWTbVl_GQDwaZwc16d-104" value="" style="shape=partialRectangle;html=1;whiteSpace=wrap;connectable=0;strokeColor=inherit;overflow=hidden;fillColor=none;top=0;left=0;bottom=0;right=0;pointerEvents=1;" parent="81NWTbVl_GQDwaZwc16d-103" vertex="1">
          <mxGeometry width="60" height="40" as="geometry">
            <mxRectangle width="60" height="40" as="alternateBounds" />
          </mxGeometry>
        </mxCell>
        <mxCell id="81NWTbVl_GQDwaZwc16d-106" value="" style="shape=partialRectangle;html=1;whiteSpace=wrap;connectable=0;strokeColor=inherit;overflow=hidden;fillColor=none;top=0;left=0;bottom=0;right=0;pointerEvents=1;" parent="81NWTbVl_GQDwaZwc16d-103" vertex="1">
          <mxGeometry x="60" width="60" height="40" as="geometry">
            <mxRectangle width="60" height="40" as="alternateBounds" />
          </mxGeometry>
        </mxCell>
        <mxCell id="81NWTbVl_GQDwaZwc16d-107" value="" style="shape=partialRectangle;html=1;whiteSpace=wrap;connectable=0;strokeColor=inherit;overflow=hidden;fillColor=none;top=0;left=0;bottom=0;right=0;pointerEvents=1;" parent="81NWTbVl_GQDwaZwc16d-103" vertex="1">
          <mxGeometry x="120" width="60" height="40" as="geometry">
            <mxRectangle width="60" height="40" as="alternateBounds" />
          </mxGeometry>
        </mxCell>
        <mxCell id="81NWTbVl_GQDwaZwc16d-108" value="" style="shape=partialRectangle;html=1;whiteSpace=wrap;connectable=0;strokeColor=inherit;overflow=hidden;fillColor=none;top=0;left=0;bottom=0;right=0;pointerEvents=1;" parent="81NWTbVl_GQDwaZwc16d-103" vertex="1">
          <mxGeometry x="180" width="60" height="40" as="geometry">
            <mxRectangle width="60" height="40" as="alternateBounds" />
          </mxGeometry>
        </mxCell>
        <mxCell id="81NWTbVl_GQDwaZwc16d-113" value="word_labels_gap" style="rounded=0;whiteSpace=wrap;html=1;" parent="1" vertex="1">
          <mxGeometry x="-3080" y="1940" width="120" height="60" as="geometry" />
        </mxCell>
        <mxCell id="81NWTbVl_GQDwaZwc16d-118" value="" style="edgeStyle=orthogonalEdgeStyle;rounded=0;orthogonalLoop=1;jettySize=auto;html=1;" parent="1" source="81NWTbVl_GQDwaZwc16d-114" target="81NWTbVl_GQDwaZwc16d-117" edge="1">
          <mxGeometry relative="1" as="geometry" />
        </mxCell>
        <mxCell id="81NWTbVl_GQDwaZwc16d-114" value="word_labels" style="rounded=0;whiteSpace=wrap;html=1;" parent="1" vertex="1">
          <mxGeometry x="-3130" y="2130" width="120" height="60" as="geometry" />
        </mxCell>
        <mxCell id="81NWTbVl_GQDwaZwc16d-116" value="" style="edgeStyle=orthogonalEdgeStyle;rounded=0;orthogonalLoop=1;jettySize=auto;html=1;" parent="1" source="81NWTbVl_GQDwaZwc16d-115" target="81NWTbVl_GQDwaZwc16d-114" edge="1">
          <mxGeometry relative="1" as="geometry" />
        </mxCell>
        <mxCell id="81NWTbVl_GQDwaZwc16d-115" value="Initialize world_labels with &#39;O&#39;" style="rounded=0;whiteSpace=wrap;html=1;" parent="1" vertex="1">
          <mxGeometry x="-3310" y="2130" width="120" height="60" as="geometry" />
        </mxCell>
        <mxCell id="81NWTbVl_GQDwaZwc16d-117" value="Assignment using np.where" style="rounded=0;whiteSpace=wrap;html=1;" parent="1" vertex="1">
          <mxGeometry x="-3130" y="2240" width="120" height="60" as="geometry" />
        </mxCell>
        <mxCell id="81NWTbVl_GQDwaZwc16d-119" value="" style="shape=table;startSize=0;container=1;collapsible=0;childLayout=tableLayout;" parent="1" vertex="1">
          <mxGeometry x="-3650" y="2470" width="780" height="40" as="geometry" />
        </mxCell>
        <mxCell id="81NWTbVl_GQDwaZwc16d-120" value="" style="shape=tableRow;horizontal=0;startSize=0;swimlaneHead=0;swimlaneBody=0;strokeColor=inherit;top=0;left=0;bottom=0;right=0;collapsible=0;dropTarget=0;fillColor=none;points=[[0,0.5],[1,0.5]];portConstraint=eastwest;" parent="81NWTbVl_GQDwaZwc16d-119" vertex="1">
          <mxGeometry width="780" height="40" as="geometry" />
        </mxCell>
        <mxCell id="81NWTbVl_GQDwaZwc16d-121" value="" style="shape=partialRectangle;html=1;whiteSpace=wrap;connectable=0;strokeColor=inherit;overflow=hidden;fillColor=none;top=0;left=0;bottom=0;right=0;pointerEvents=1;" parent="81NWTbVl_GQDwaZwc16d-120" vertex="1">
          <mxGeometry width="60" height="40" as="geometry">
            <mxRectangle width="60" height="40" as="alternateBounds" />
          </mxGeometry>
        </mxCell>
        <mxCell id="81NWTbVl_GQDwaZwc16d-122" value="" style="shape=partialRectangle;html=1;whiteSpace=wrap;connectable=0;strokeColor=inherit;overflow=hidden;fillColor=none;top=0;left=0;bottom=0;right=0;pointerEvents=1;" parent="81NWTbVl_GQDwaZwc16d-120" vertex="1">
          <mxGeometry x="60" width="60" height="40" as="geometry">
            <mxRectangle width="60" height="40" as="alternateBounds" />
          </mxGeometry>
        </mxCell>
        <mxCell id="81NWTbVl_GQDwaZwc16d-123" value="" style="shape=partialRectangle;html=1;whiteSpace=wrap;connectable=0;strokeColor=inherit;overflow=hidden;fillColor=none;top=0;left=0;bottom=0;right=0;pointerEvents=1;" parent="81NWTbVl_GQDwaZwc16d-120" vertex="1">
          <mxGeometry x="120" width="60" height="40" as="geometry">
            <mxRectangle width="60" height="40" as="alternateBounds" />
          </mxGeometry>
        </mxCell>
        <mxCell id="81NWTbVl_GQDwaZwc16d-124" value="" style="shape=partialRectangle;html=1;whiteSpace=wrap;connectable=0;strokeColor=inherit;overflow=hidden;fillColor=none;top=0;left=0;bottom=0;right=0;pointerEvents=1;" parent="81NWTbVl_GQDwaZwc16d-120" vertex="1">
          <mxGeometry x="180" width="60" height="40" as="geometry">
            <mxRectangle width="60" height="40" as="alternateBounds" />
          </mxGeometry>
        </mxCell>
        <mxCell id="81NWTbVl_GQDwaZwc16d-125" value="" style="shape=partialRectangle;html=1;whiteSpace=wrap;connectable=0;strokeColor=inherit;overflow=hidden;fillColor=none;top=0;left=0;bottom=0;right=0;pointerEvents=1;" parent="81NWTbVl_GQDwaZwc16d-120" vertex="1">
          <mxGeometry x="240" width="60" height="40" as="geometry">
            <mxRectangle width="60" height="40" as="alternateBounds" />
          </mxGeometry>
        </mxCell>
        <mxCell id="81NWTbVl_GQDwaZwc16d-126" value="&#39;O&#39;" style="shape=partialRectangle;html=1;whiteSpace=wrap;connectable=0;strokeColor=inherit;overflow=hidden;fillColor=none;top=0;left=0;bottom=0;right=0;pointerEvents=1;" parent="81NWTbVl_GQDwaZwc16d-120" vertex="1">
          <mxGeometry x="300" width="60" height="40" as="geometry">
            <mxRectangle width="60" height="40" as="alternateBounds" />
          </mxGeometry>
        </mxCell>
        <mxCell id="81NWTbVl_GQDwaZwc16d-127" value="" style="shape=partialRectangle;html=1;whiteSpace=wrap;connectable=0;strokeColor=inherit;overflow=hidden;fillColor=none;top=0;left=0;bottom=0;right=0;pointerEvents=1;" parent="81NWTbVl_GQDwaZwc16d-120" vertex="1">
          <mxGeometry x="360" width="60" height="40" as="geometry">
            <mxRectangle width="60" height="40" as="alternateBounds" />
          </mxGeometry>
        </mxCell>
        <mxCell id="81NWTbVl_GQDwaZwc16d-128" value="" style="shape=partialRectangle;html=1;whiteSpace=wrap;connectable=0;strokeColor=inherit;overflow=hidden;fillColor=none;top=0;left=0;bottom=0;right=0;pointerEvents=1;" parent="81NWTbVl_GQDwaZwc16d-120" vertex="1">
          <mxGeometry x="420" width="60" height="40" as="geometry">
            <mxRectangle width="60" height="40" as="alternateBounds" />
          </mxGeometry>
        </mxCell>
        <mxCell id="81NWTbVl_GQDwaZwc16d-129" value="" style="shape=partialRectangle;html=1;whiteSpace=wrap;connectable=0;strokeColor=inherit;overflow=hidden;fillColor=none;top=0;left=0;bottom=0;right=0;pointerEvents=1;" parent="81NWTbVl_GQDwaZwc16d-120" vertex="1">
          <mxGeometry x="480" width="60" height="40" as="geometry">
            <mxRectangle width="60" height="40" as="alternateBounds" />
          </mxGeometry>
        </mxCell>
        <mxCell id="81NWTbVl_GQDwaZwc16d-130" value="" style="shape=partialRectangle;html=1;whiteSpace=wrap;connectable=0;strokeColor=inherit;overflow=hidden;fillColor=none;top=0;left=0;bottom=0;right=0;pointerEvents=1;" parent="81NWTbVl_GQDwaZwc16d-120" vertex="1">
          <mxGeometry x="540" width="60" height="40" as="geometry">
            <mxRectangle width="60" height="40" as="alternateBounds" />
          </mxGeometry>
        </mxCell>
        <mxCell id="81NWTbVl_GQDwaZwc16d-131" value="" style="shape=partialRectangle;html=1;whiteSpace=wrap;connectable=0;strokeColor=inherit;overflow=hidden;fillColor=none;top=0;left=0;bottom=0;right=0;pointerEvents=1;" parent="81NWTbVl_GQDwaZwc16d-120" vertex="1">
          <mxGeometry x="600" width="60" height="40" as="geometry">
            <mxRectangle width="60" height="40" as="alternateBounds" />
          </mxGeometry>
        </mxCell>
        <mxCell id="81NWTbVl_GQDwaZwc16d-132" value="&#39;O&#39;" style="shape=partialRectangle;html=1;whiteSpace=wrap;connectable=0;strokeColor=inherit;overflow=hidden;fillColor=none;top=0;left=0;bottom=0;right=0;pointerEvents=1;" parent="81NWTbVl_GQDwaZwc16d-120" vertex="1">
          <mxGeometry x="660" width="60" height="40" as="geometry">
            <mxRectangle width="60" height="40" as="alternateBounds" />
          </mxGeometry>
        </mxCell>
        <mxCell id="81NWTbVl_GQDwaZwc16d-133" value="" style="shape=partialRectangle;html=1;whiteSpace=wrap;connectable=0;strokeColor=inherit;overflow=hidden;fillColor=none;top=0;left=0;bottom=0;right=0;pointerEvents=1;" parent="81NWTbVl_GQDwaZwc16d-120" vertex="1">
          <mxGeometry x="720" width="60" height="40" as="geometry">
            <mxRectangle width="60" height="40" as="alternateBounds" />
          </mxGeometry>
        </mxCell>
        <mxCell id="81NWTbVl_GQDwaZwc16d-134" value="" style="shape=table;startSize=0;container=1;collapsible=0;childLayout=tableLayout;" parent="1" vertex="1">
          <mxGeometry x="-3650" y="2430" width="660" height="40" as="geometry" />
        </mxCell>
        <mxCell id="81NWTbVl_GQDwaZwc16d-135" value="" style="shape=tableRow;horizontal=0;startSize=0;swimlaneHead=0;swimlaneBody=0;strokeColor=inherit;top=0;left=0;bottom=0;right=0;collapsible=0;dropTarget=0;fillColor=none;points=[[0,0.5],[1,0.5]];portConstraint=eastwest;" parent="81NWTbVl_GQDwaZwc16d-134" vertex="1">
          <mxGeometry width="660" height="40" as="geometry" />
        </mxCell>
        <mxCell id="81NWTbVl_GQDwaZwc16d-136" value="a" style="shape=partialRectangle;html=1;whiteSpace=wrap;connectable=0;strokeColor=inherit;overflow=hidden;fillColor=none;top=0;left=0;bottom=0;right=0;pointerEvents=1;" parent="81NWTbVl_GQDwaZwc16d-135" vertex="1">
          <mxGeometry width="60" height="40" as="geometry">
            <mxRectangle width="60" height="40" as="alternateBounds" />
          </mxGeometry>
        </mxCell>
        <mxCell id="81NWTbVl_GQDwaZwc16d-137" value="b" style="shape=partialRectangle;html=1;whiteSpace=wrap;connectable=0;strokeColor=inherit;overflow=hidden;fillColor=none;top=0;left=0;bottom=0;right=0;pointerEvents=1;" parent="81NWTbVl_GQDwaZwc16d-135" vertex="1">
          <mxGeometry x="60" width="60" height="40" as="geometry">
            <mxRectangle width="60" height="40" as="alternateBounds" />
          </mxGeometry>
        </mxCell>
        <mxCell id="81NWTbVl_GQDwaZwc16d-138" value="c" style="shape=partialRectangle;html=1;whiteSpace=wrap;connectable=0;strokeColor=inherit;overflow=hidden;fillColor=none;top=0;left=0;bottom=0;right=0;pointerEvents=1;" parent="81NWTbVl_GQDwaZwc16d-135" vertex="1">
          <mxGeometry x="120" width="60" height="40" as="geometry">
            <mxRectangle width="60" height="40" as="alternateBounds" />
          </mxGeometry>
        </mxCell>
        <mxCell id="81NWTbVl_GQDwaZwc16d-139" value="a" style="shape=partialRectangle;html=1;whiteSpace=wrap;connectable=0;strokeColor=inherit;overflow=hidden;fillColor=none;top=0;left=0;bottom=0;right=0;pointerEvents=1;" parent="81NWTbVl_GQDwaZwc16d-135" vertex="1">
          <mxGeometry x="180" width="60" height="40" as="geometry">
            <mxRectangle width="60" height="40" as="alternateBounds" />
          </mxGeometry>
        </mxCell>
        <mxCell id="81NWTbVl_GQDwaZwc16d-140" value="d" style="shape=partialRectangle;html=1;whiteSpace=wrap;connectable=0;strokeColor=inherit;overflow=hidden;fillColor=none;top=0;left=0;bottom=0;right=0;pointerEvents=1;" parent="81NWTbVl_GQDwaZwc16d-135" vertex="1">
          <mxGeometry x="240" width="60" height="40" as="geometry">
            <mxRectangle width="60" height="40" as="alternateBounds" />
          </mxGeometry>
        </mxCell>
        <mxCell id="81NWTbVl_GQDwaZwc16d-141" value="c" style="shape=partialRectangle;html=1;whiteSpace=wrap;connectable=0;strokeColor=inherit;overflow=hidden;fillColor=none;top=0;left=0;bottom=0;right=0;pointerEvents=1;" parent="81NWTbVl_GQDwaZwc16d-135" vertex="1">
          <mxGeometry x="300" width="60" height="40" as="geometry">
            <mxRectangle width="60" height="40" as="alternateBounds" />
          </mxGeometry>
        </mxCell>
        <mxCell id="81NWTbVl_GQDwaZwc16d-142" value="a" style="shape=partialRectangle;html=1;whiteSpace=wrap;connectable=0;strokeColor=inherit;overflow=hidden;fillColor=none;top=0;left=0;bottom=0;right=0;pointerEvents=1;" parent="81NWTbVl_GQDwaZwc16d-135" vertex="1">
          <mxGeometry x="360" width="60" height="40" as="geometry">
            <mxRectangle width="60" height="40" as="alternateBounds" />
          </mxGeometry>
        </mxCell>
        <mxCell id="81NWTbVl_GQDwaZwc16d-143" value="d" style="shape=partialRectangle;html=1;whiteSpace=wrap;connectable=0;strokeColor=inherit;overflow=hidden;fillColor=none;top=0;left=0;bottom=0;right=0;pointerEvents=1;" parent="81NWTbVl_GQDwaZwc16d-135" vertex="1">
          <mxGeometry x="420" width="60" height="40" as="geometry">
            <mxRectangle width="60" height="40" as="alternateBounds" />
          </mxGeometry>
        </mxCell>
        <mxCell id="81NWTbVl_GQDwaZwc16d-144" value="b" style="shape=partialRectangle;html=1;whiteSpace=wrap;connectable=0;strokeColor=inherit;overflow=hidden;fillColor=none;top=0;left=0;bottom=0;right=0;pointerEvents=1;" parent="81NWTbVl_GQDwaZwc16d-135" vertex="1">
          <mxGeometry x="480" width="60" height="40" as="geometry">
            <mxRectangle width="60" height="40" as="alternateBounds" />
          </mxGeometry>
        </mxCell>
        <mxCell id="81NWTbVl_GQDwaZwc16d-145" value="a" style="shape=partialRectangle;html=1;whiteSpace=wrap;connectable=0;strokeColor=inherit;overflow=hidden;fillColor=none;top=0;left=0;bottom=0;right=0;pointerEvents=1;" parent="81NWTbVl_GQDwaZwc16d-135" vertex="1">
          <mxGeometry x="540" width="60" height="40" as="geometry">
            <mxRectangle width="60" height="40" as="alternateBounds" />
          </mxGeometry>
        </mxCell>
        <mxCell id="81NWTbVl_GQDwaZwc16d-146" value="c" style="shape=partialRectangle;html=1;whiteSpace=wrap;connectable=0;strokeColor=inherit;overflow=hidden;fillColor=none;top=0;left=0;bottom=0;right=0;pointerEvents=1;" parent="81NWTbVl_GQDwaZwc16d-135" vertex="1">
          <mxGeometry x="600" width="60" height="40" as="geometry">
            <mxRectangle width="60" height="40" as="alternateBounds" />
          </mxGeometry>
        </mxCell>
        <mxCell id="81NWTbVl_GQDwaZwc16d-149" value="" style="shape=table;startSize=0;container=1;collapsible=0;childLayout=tableLayout;" parent="1" vertex="1">
          <mxGeometry x="-3650" y="2510" width="780" height="40" as="geometry" />
        </mxCell>
        <mxCell id="81NWTbVl_GQDwaZwc16d-150" value="" style="shape=tableRow;horizontal=0;startSize=0;swimlaneHead=0;swimlaneBody=0;strokeColor=inherit;top=0;left=0;bottom=0;right=0;collapsible=0;dropTarget=0;fillColor=none;points=[[0,0.5],[1,0.5]];portConstraint=eastwest;" parent="81NWTbVl_GQDwaZwc16d-149" vertex="1">
          <mxGeometry width="780" height="40" as="geometry" />
        </mxCell>
        <mxCell id="81NWTbVl_GQDwaZwc16d-151" value="True&lt;span style=&quot;white-space: pre;&quot;&gt;&#x9;&lt;/span&gt;" style="shape=partialRectangle;html=1;whiteSpace=wrap;connectable=0;strokeColor=inherit;overflow=hidden;fillColor=none;top=0;left=0;bottom=0;right=0;pointerEvents=1;" parent="81NWTbVl_GQDwaZwc16d-150" vertex="1">
          <mxGeometry width="60" height="40" as="geometry">
            <mxRectangle width="60" height="40" as="alternateBounds" />
          </mxGeometry>
        </mxCell>
        <mxCell id="81NWTbVl_GQDwaZwc16d-152" value="True&#x9;" style="shape=partialRectangle;html=1;whiteSpace=wrap;connectable=0;strokeColor=inherit;overflow=hidden;fillColor=none;top=0;left=0;bottom=0;right=0;pointerEvents=1;" parent="81NWTbVl_GQDwaZwc16d-150" vertex="1">
          <mxGeometry x="60" width="60" height="40" as="geometry">
            <mxRectangle width="60" height="40" as="alternateBounds" />
          </mxGeometry>
        </mxCell>
        <mxCell id="81NWTbVl_GQDwaZwc16d-153" value="True&#x9;" style="shape=partialRectangle;html=1;whiteSpace=wrap;connectable=0;strokeColor=inherit;overflow=hidden;fillColor=none;top=0;left=0;bottom=0;right=0;pointerEvents=1;" parent="81NWTbVl_GQDwaZwc16d-150" vertex="1">
          <mxGeometry x="120" width="60" height="40" as="geometry">
            <mxRectangle width="60" height="40" as="alternateBounds" />
          </mxGeometry>
        </mxCell>
        <mxCell id="81NWTbVl_GQDwaZwc16d-154" value="True&#x9;" style="shape=partialRectangle;html=1;whiteSpace=wrap;connectable=0;strokeColor=inherit;overflow=hidden;fillColor=none;top=0;left=0;bottom=0;right=0;pointerEvents=1;" parent="81NWTbVl_GQDwaZwc16d-150" vertex="1">
          <mxGeometry x="180" width="60" height="40" as="geometry">
            <mxRectangle width="60" height="40" as="alternateBounds" />
          </mxGeometry>
        </mxCell>
        <mxCell id="81NWTbVl_GQDwaZwc16d-155" value="True&#x9;" style="shape=partialRectangle;html=1;whiteSpace=wrap;connectable=0;strokeColor=inherit;overflow=hidden;fillColor=none;top=0;left=0;bottom=0;right=0;pointerEvents=1;" parent="81NWTbVl_GQDwaZwc16d-150" vertex="1">
          <mxGeometry x="240" width="60" height="40" as="geometry">
            <mxRectangle width="60" height="40" as="alternateBounds" />
          </mxGeometry>
        </mxCell>
        <mxCell id="81NWTbVl_GQDwaZwc16d-156" value="False" style="shape=partialRectangle;html=1;whiteSpace=wrap;connectable=0;strokeColor=inherit;overflow=hidden;fillColor=none;top=0;left=0;bottom=0;right=0;pointerEvents=1;" parent="81NWTbVl_GQDwaZwc16d-150" vertex="1">
          <mxGeometry x="300" width="60" height="40" as="geometry">
            <mxRectangle width="60" height="40" as="alternateBounds" />
          </mxGeometry>
        </mxCell>
        <mxCell id="81NWTbVl_GQDwaZwc16d-157" value="True&#x9;" style="shape=partialRectangle;html=1;whiteSpace=wrap;connectable=0;strokeColor=inherit;overflow=hidden;fillColor=none;top=0;left=0;bottom=0;right=0;pointerEvents=1;" parent="81NWTbVl_GQDwaZwc16d-150" vertex="1">
          <mxGeometry x="360" width="60" height="40" as="geometry">
            <mxRectangle width="60" height="40" as="alternateBounds" />
          </mxGeometry>
        </mxCell>
        <mxCell id="81NWTbVl_GQDwaZwc16d-158" value="True&#x9;" style="shape=partialRectangle;html=1;whiteSpace=wrap;connectable=0;strokeColor=inherit;overflow=hidden;fillColor=none;top=0;left=0;bottom=0;right=0;pointerEvents=1;" parent="81NWTbVl_GQDwaZwc16d-150" vertex="1">
          <mxGeometry x="420" width="60" height="40" as="geometry">
            <mxRectangle width="60" height="40" as="alternateBounds" />
          </mxGeometry>
        </mxCell>
        <mxCell id="81NWTbVl_GQDwaZwc16d-159" value="True&#x9;" style="shape=partialRectangle;html=1;whiteSpace=wrap;connectable=0;strokeColor=inherit;overflow=hidden;fillColor=none;top=0;left=0;bottom=0;right=0;pointerEvents=1;" parent="81NWTbVl_GQDwaZwc16d-150" vertex="1">
          <mxGeometry x="480" width="60" height="40" as="geometry">
            <mxRectangle width="60" height="40" as="alternateBounds" />
          </mxGeometry>
        </mxCell>
        <mxCell id="81NWTbVl_GQDwaZwc16d-160" value="True&#x9;" style="shape=partialRectangle;html=1;whiteSpace=wrap;connectable=0;strokeColor=inherit;overflow=hidden;fillColor=none;top=0;left=0;bottom=0;right=0;pointerEvents=1;" parent="81NWTbVl_GQDwaZwc16d-150" vertex="1">
          <mxGeometry x="540" width="60" height="40" as="geometry">
            <mxRectangle width="60" height="40" as="alternateBounds" />
          </mxGeometry>
        </mxCell>
        <mxCell id="81NWTbVl_GQDwaZwc16d-161" value="True&#x9;" style="shape=partialRectangle;html=1;whiteSpace=wrap;connectable=0;strokeColor=inherit;overflow=hidden;fillColor=none;top=0;left=0;bottom=0;right=0;pointerEvents=1;" parent="81NWTbVl_GQDwaZwc16d-150" vertex="1">
          <mxGeometry x="600" width="60" height="40" as="geometry">
            <mxRectangle width="60" height="40" as="alternateBounds" />
          </mxGeometry>
        </mxCell>
        <mxCell id="81NWTbVl_GQDwaZwc16d-162" value="False" style="shape=partialRectangle;html=1;whiteSpace=wrap;connectable=0;strokeColor=inherit;overflow=hidden;fillColor=none;top=0;left=0;bottom=0;right=0;pointerEvents=1;" parent="81NWTbVl_GQDwaZwc16d-150" vertex="1">
          <mxGeometry x="660" width="60" height="40" as="geometry">
            <mxRectangle width="60" height="40" as="alternateBounds" />
          </mxGeometry>
        </mxCell>
        <mxCell id="81NWTbVl_GQDwaZwc16d-163" value="True&#x9;" style="shape=partialRectangle;html=1;whiteSpace=wrap;connectable=0;strokeColor=inherit;overflow=hidden;fillColor=none;top=0;left=0;bottom=0;right=0;pointerEvents=1;" parent="81NWTbVl_GQDwaZwc16d-150" vertex="1">
          <mxGeometry x="720" width="60" height="40" as="geometry">
            <mxRectangle width="60" height="40" as="alternateBounds" />
          </mxGeometry>
        </mxCell>
        <mxCell id="VUAr7GKTCVbKZWPCTjVH-1" value="compute differences between word_ids" style="rounded=0;whiteSpace=wrap;html=1;" parent="1" vertex="1">
          <mxGeometry x="-3980" y="1980" width="120" height="60" as="geometry" />
        </mxCell>
        <mxCell id="VUAr7GKTCVbKZWPCTjVH-2" value="Get non_zeros (change indices)" style="rounded=0;whiteSpace=wrap;html=1;" parent="1" vertex="1">
          <mxGeometry x="-3980" y="2070" width="120" height="60" as="geometry" />
        </mxCell>
        <mxCell id="VUAr7GKTCVbKZWPCTjVH-3" value="Cumulative sum horizontally to assign group_ids" style="rounded=0;whiteSpace=wrap;html=1;" parent="1" vertex="1">
          <mxGeometry x="-3980" y="2160" width="120" height="60" as="geometry" />
        </mxCell>
        <mxCell id="VUAr7GKTCVbKZWPCTjVH-4" value="Get cum sum of last element&lt;br&gt;to get row boundaries" style="rounded=0;whiteSpace=wrap;html=1;" parent="1" vertex="1">
          <mxGeometry x="-3980" y="2250" width="120" height="60" as="geometry" />
        </mxCell>
        <mxCell id="VUAr7GKTCVbKZWPCTjVH-5" value="Get cum sum of last element&lt;br&gt;to get row boundaries" style="rounded=0;whiteSpace=wrap;html=1;" parent="1" vertex="1">
          <mxGeometry x="-3980" y="2340" width="120" height="60" as="geometry" />
        </mxCell>
        <mxCell id="VUAr7GKTCVbKZWPCTjVH-6" value="Get split_indices by using np.where on the flattened diff_array" style="rounded=0;whiteSpace=wrap;html=1;" parent="1" vertex="1">
          <mxGeometry x="-4180" y="2340" width="120" height="60" as="geometry" />
        </mxCell>
        <mxCell id="VUAr7GKTCVbKZWPCTjVH-7" value="" style="sketch=0;outlineConnect=0;fontColor=#232F3E;gradientColor=none;fillColor=#232F3D;strokeColor=none;dashed=0;verticalLabelPosition=bottom;verticalAlign=top;align=center;html=1;fontSize=12;fontStyle=0;aspect=fixed;pointerEvents=1;shape=mxgraph.aws4.question;" parent="1" vertex="1">
          <mxGeometry x="-3825" y="2072" width="25.23" height="48" as="geometry" />
        </mxCell>
        <mxCell id="VUAr7GKTCVbKZWPCTjVH-8" value="Get Groups using np.split" style="rounded=0;whiteSpace=wrap;html=1;" parent="1" vertex="1">
          <mxGeometry x="-4180" y="2430" width="120" height="60" as="geometry" />
        </mxCell>
        <mxCell id="VUAr7GKTCVbKZWPCTjVH-9" value="Get mode of each group (Slow)" style="rounded=0;whiteSpace=wrap;html=1;" parent="1" vertex="1">
          <mxGeometry x="-4180" y="2520" width="120" height="60" as="geometry" />
        </mxCell>
        <mxCell id="VUAr7GKTCVbKZWPCTjVH-11" value="Problem:" style="endArrow=none;html=1;rounded=0;" parent="1" edge="1">
          <mxGeometry width="50" height="50" relative="1" as="geometry">
            <mxPoint x="-4305" y="2610" as="sourcePoint" />
            <mxPoint x="-3935" y="2610" as="targetPoint" />
          </mxGeometry>
        </mxCell>
        <mxCell id="VUAr7GKTCVbKZWPCTjVH-15" value="Solutions" style="endArrow=none;html=1;rounded=0;" parent="1" edge="1">
          <mxGeometry width="50" height="50" relative="1" as="geometry">
            <mxPoint x="-4305" y="2800" as="sourcePoint" />
            <mxPoint x="-3935" y="2800" as="targetPoint" />
          </mxGeometry>
        </mxCell>
        <mxCell id="VUAr7GKTCVbKZWPCTjVH-17" value="&lt;h1&gt;Problem 1&lt;/h1&gt;&lt;p&gt;Iterating through groups is slow, but not significantly slow since there are ~5 million rows&lt;/p&gt;" style="text;html=1;strokeColor=none;fillColor=none;spacing=5;spacingTop=-20;whiteSpace=wrap;overflow=hidden;rounded=0;" parent="1" vertex="1">
          <mxGeometry x="-4300" y="2640" width="190" height="120" as="geometry" />
        </mxCell>
        <mxCell id="VUAr7GKTCVbKZWPCTjVH-18" value="&lt;h1&gt;Problem 2&lt;/h1&gt;&lt;p&gt;Calculating the mode of each group is slow since even if the group are expected to only have ~3-5 elements, It is padded up to ~3000&lt;/p&gt;" style="text;html=1;strokeColor=none;fillColor=none;spacing=5;spacingTop=-20;whiteSpace=wrap;overflow=hidden;rounded=0;" parent="1" vertex="1">
          <mxGeometry x="-4080" y="2640" width="190" height="120" as="geometry" />
        </mxCell>
        <mxCell id="VUAr7GKTCVbKZWPCTjVH-20" value="&lt;h1&gt;Solution 1:&lt;/h1&gt;&lt;p&gt;Vectorized Mode&lt;/p&gt;&lt;p&gt;&lt;br&gt;&lt;/p&gt;&lt;p&gt;Concerns:&lt;/p&gt;&lt;p&gt;Might be slow because of the size 5M by 3k&lt;/p&gt;&lt;p&gt;&lt;br&gt;&lt;/p&gt;&lt;p&gt;To Do:&lt;/p&gt;&lt;p&gt;- Test on randomized array&lt;/p&gt;" style="text;html=1;strokeColor=none;fillColor=none;spacing=5;spacingTop=-20;whiteSpace=wrap;overflow=hidden;rounded=0;" parent="1" vertex="1">
          <mxGeometry x="-4370" y="2860" width="190" height="330" as="geometry" />
        </mxCell>
        <mxCell id="VUAr7GKTCVbKZWPCTjVH-21" value="&lt;h1&gt;Solution 2:&lt;/h1&gt;&lt;p&gt;Unpad the elements (Only keep up to the max len of words)&lt;/p&gt;&lt;p&gt;&lt;br&gt;&lt;/p&gt;&lt;p&gt;Concerns:&lt;span style=&quot;background-color: initial;&quot;&gt;&lt;br&gt;&lt;/span&gt;&lt;/p&gt;&lt;p&gt;- are&amp;nbsp;&lt;br&gt;-&lt;/p&gt;" style="text;html=1;strokeColor=none;fillColor=none;spacing=5;spacingTop=-20;whiteSpace=wrap;overflow=hidden;rounded=0;" parent="1" vertex="1">
          <mxGeometry x="-4090" y="2860" width="190" height="250" as="geometry" />
        </mxCell>
        <mxCell id="VUAr7GKTCVbKZWPCTjVH-23" value="Solutions" style="endArrow=none;html=1;rounded=0;" parent="1" edge="1">
          <mxGeometry width="50" height="50" relative="1" as="geometry">
            <mxPoint x="-4295" y="2810" as="sourcePoint" />
            <mxPoint x="-3925" y="2810" as="targetPoint" />
          </mxGeometry>
        </mxCell>
        <mxCell id="j1i7dHydWrxJ75ueB_zQ-2" value="&lt;h1&gt;Done:&lt;/h1&gt;&lt;p&gt;1. Calculate word-level metrics&lt;br&gt;&lt;span style=&quot;background-color: initial;&quot;&gt;&amp;nbsp;&lt;/span&gt;- convert pred ids to dataset ids (&#39;B&#39;)&lt;br&gt;&amp;nbsp;- convert to BIO from &#39;B&#39;&lt;br&gt;&lt;span style=&quot;background-color: initial;&quot;&gt;&amp;nbsp;- convert dataset labels to dataset idsc&lt;/span&gt;&lt;/p&gt;&lt;div&gt;&lt;br&gt;&lt;/div&gt;&lt;p&gt;&lt;br&gt;&lt;/p&gt;" style="text;html=1;strokeColor=none;fillColor=none;spacing=5;spacingTop=-20;whiteSpace=wrap;overflow=hidden;rounded=0;" parent="1" vertex="1">
          <mxGeometry x="-5510" y="2055" width="220" height="125" as="geometry" />
        </mxCell>
        <mxCell id="j1i7dHydWrxJ75ueB_zQ-3" value="&lt;h1&gt;Done:&lt;/h1&gt;&lt;div&gt;&lt;br&gt;&lt;/div&gt;&lt;div&gt;1. Done Implementing calculation of&amp;nbsp; word_len_max&lt;br style=&quot;border-color: var(--border-color);&quot;&gt;&amp;nbsp; - Current implementation is for 1D only&lt;br style=&quot;border-color: var(--border-color);&quot;&gt;&amp;nbsp; - Also implemented ND version&lt;br&gt;&lt;br&gt;- No need to get word_len, assume 10, &amp;gt; 10 means probably &#39;O&#39; label&lt;/div&gt;&lt;div&gt;&lt;br&gt;&lt;/div&gt;&lt;div&gt;&lt;br&gt;&lt;/div&gt;&lt;div&gt;&lt;br&gt;&lt;/div&gt;&lt;div&gt;&lt;p style=&quot;border-color: var(--border-color);&quot;&gt;1. Test scipy mode for large arrays:&lt;br style=&quot;border-color: var(--border-color);&quot;&gt;Start with 1000,3000, 10000,3000, etc.&amp;nbsp;&lt;br&gt;&lt;span style=&quot;background-color: initial;&quot;&gt;- Mode is slow even when X axis is small&lt;br&gt;&lt;/span&gt;&lt;span style=&quot;background-color: initial;&quot;&gt;- Counter is the fastest on &amp;lt; 1000 items&amp;nbsp;&lt;br&gt;&amp;nbsp;- 1m on 5M by 10&lt;/span&gt;&lt;/p&gt;&lt;p style=&quot;border-color: var(--border-color);&quot;&gt;&lt;br&gt;&lt;/p&gt;&lt;/div&gt;" style="text;html=1;strokeColor=none;fillColor=none;spacing=5;spacingTop=-20;whiteSpace=wrap;overflow=hidden;rounded=0;" parent="1" vertex="1">
          <mxGeometry x="-4890" y="2050" width="190" height="370" as="geometry" />
        </mxCell>
        <mxCell id="5MS2OyZutHQql2pWEA6q-1" value="&lt;h1&gt;Done:&lt;/h1&gt;&lt;div&gt;&lt;p style=&quot;border-color: var(--border-color);&quot;&gt;1. Align groups back to rows&lt;br&gt;&amp;nbsp; - Semi-vectorized&lt;br&gt;&amp;nbsp; - Accounts for special tokens&lt;/p&gt;&lt;p style=&quot;border-color: var(--border-color);&quot;&gt;Other:&lt;br style=&quot;border-color: var(--border-color);&quot;&gt;- investigate why first row is None (modes)&lt;br&gt;&amp;nbsp;- Because of CLS token&lt;/p&gt;&lt;/div&gt;&lt;div&gt;&lt;p style=&quot;border-color: var(--border-color);&quot;&gt;1. Refactor Code&lt;br style=&quot;border-color: var(--border-color);&quot;&gt;&amp;nbsp; - Refactor align words (Done)&lt;br style=&quot;border-color: var(--border-color);&quot;&gt;&amp;nbsp; - Refactor label conversions (do before flattening array) (Done&lt;/p&gt;&lt;p style=&quot;border-color: var(--border-color);&quot;&gt;2. Visualize Results&amp;nbsp;&lt;br style=&quot;border-color: var(--border-color);&quot;&gt;&amp;nbsp;- Save results as numpy&lt;br style=&quot;border-color: var(--border-color);&quot;&gt;&amp;nbsp;- Map ids to text&lt;br style=&quot;border-color: var(--border-color);&quot;&gt;&amp;nbsp;- Refactor Visualization code&lt;br style=&quot;border-color: var(--border-color);&quot;&gt;&amp;nbsp;- Inspect for errors&lt;/p&gt;&lt;p style=&quot;border-color: var(--border-color);&quot;&gt;3. Fix Errors:&lt;br style=&quot;border-color: var(--border-color);&quot;&gt;&amp;nbsp;1. Model outputs not yet mapped to dataset classes&lt;br style=&quot;border-color: var(--border-color);&quot;&gt;&amp;nbsp;2. Alignment off by 1 word to the right&lt;br style=&quot;border-color: var(--border-color);&quot;&gt;&amp;nbsp;3. Worsens for each row (+1 or x2)&lt;/p&gt;&lt;p style=&quot;border-color: var(--border-color);&quot;&gt;&lt;br style=&quot;border-color: var(--border-color);&quot;&gt;&lt;/p&gt;&lt;/div&gt;" style="text;html=1;strokeColor=none;fillColor=none;spacing=5;spacingTop=-20;whiteSpace=wrap;overflow=hidden;rounded=0;" parent="1" vertex="1">
          <mxGeometry x="-5090" y="2050" width="190" height="540" as="geometry" />
        </mxCell>
        <mxCell id="5MS2OyZutHQql2pWEA6q-2" value="&lt;h1&gt;Possible error causes:&lt;/h1&gt;&lt;div&gt;&lt;p style=&quot;border-color: var(--border-color);&quot;&gt;1. Calculation of row boundaries from diff_array excluding the first column of each row&lt;/p&gt;&lt;p style=&quot;border-color: var(--border-color);&quot;&gt;2.&amp;nbsp;&lt;/p&gt;&lt;p style=&quot;border-color: var(--border-color);&quot;&gt;&lt;br&gt;&lt;/p&gt;&lt;p style=&quot;border-color: var(--border-color);&quot;&gt;Solved:&lt;br&gt;1. Alignment issues due to diff having -1 indices for the axis specified&lt;br&gt;2. Alignment issues due to not including array size at the end of diff / split_indices&amp;nbsp;&lt;br&gt;&amp;nbsp; - This causes 2 groups to merged into 1 at the beginning of next row&lt;br&gt;3. Alignment issues due to exclusion of CLS and SEP special tokens from word_ids&lt;/p&gt;&lt;p style=&quot;border-color: var(--border-color);&quot;&gt;4. Alignment issues due to wrong fixes:&lt;br&gt;&lt;span style=&quot;background-color: initial;&quot;&gt;&amp;nbsp;- (using cumsum + 1 on row boundaries)&lt;br&gt;&amp;nbsp;- Trying to account for CLS and SEP at beginning of pipeline&lt;/span&gt;&lt;/p&gt;&lt;p style=&quot;border-color: var(--border-color);&quot;&gt;&lt;span style=&quot;background-color: initial;&quot;&gt;&lt;br&gt;&lt;/span&gt;&lt;/p&gt;&lt;p style=&quot;border-color: var(--border-color);&quot;&gt;&lt;span style=&quot;background-color: initial;&quot;&gt;&lt;br&gt;&lt;/span&gt;&lt;/p&gt;&lt;/div&gt;&lt;div&gt;&lt;br&gt;&lt;/div&gt;" style="text;html=1;strokeColor=none;fillColor=none;spacing=5;spacingTop=-20;whiteSpace=wrap;overflow=hidden;rounded=0;" parent="1" vertex="1">
          <mxGeometry x="-5290" y="2050" width="190" height="510" as="geometry" />
        </mxCell>
        <mxCell id="BQaVi7cWKLj2v7Szp7im-1" value="Text" style="text;html=1;align=center;verticalAlign=middle;resizable=0;points=[];autosize=1;strokeColor=none;fillColor=none;" parent="1" vertex="1">
          <mxGeometry x="-5735" y="2029" width="50" height="30" as="geometry" />
        </mxCell>
        <mxCell id="BQaVi7cWKLj2v7Szp7im-2" value="&lt;h1 style=&quot;margin-top: 0px;&quot;&gt;Pseudo&lt;/h1&gt;&lt;p&gt;1. Starting from model_pred_ids&lt;br&gt;2. Get B/I mask&lt;br&gt;3.&amp;nbsp;&lt;/p&gt;" style="text;html=1;whiteSpace=wrap;overflow=hidden;rounded=0;" parent="1" vertex="1">
          <mxGeometry x="-5915" y="2070" width="180" height="120" as="geometry" />
        </mxCell>
        <mxCell id="BQaVi7cWKLj2v7Szp7im-3" value="&lt;h1 style=&quot;margin-top: 0px;&quot;&gt;Pseudo (Vectorized)&lt;/h1&gt;&lt;p&gt;Starting from model_word_ids:&lt;br&gt;&amp;nbsp;- try to mark which words are B or I&lt;br&gt;&amp;nbsp;&lt;/p&gt;&lt;p&gt;1. Get diff array&lt;br&gt;2. Get change mask : (0&amp;nbsp; = no change, 1 = change)&lt;br&gt;&lt;span style=&quot;background-color: initial;&quot;&gt;3. Get 0s Mask / Reverse (no change): diff_array == 0&lt;br&gt;&lt;/span&gt;&lt;span style=&quot;background-color: initial;&quot;&gt;4. Get cumsum of change mask&lt;br&gt;&lt;/span&gt;&lt;span style=&quot;background-color: initial;&quot;&gt;5. Subtract cumsum from cumsum on 0s mask&lt;br&gt;6. Get == 1 (B- mask)&lt;br&gt;&lt;/span&gt;&lt;/p&gt;" style="text;html=1;whiteSpace=wrap;overflow=hidden;rounded=0;" parent="1" vertex="1">
          <mxGeometry x="-6300" y="2070" width="320" height="220" as="geometry" />
        </mxCell>
        <mxCell id="BQaVi7cWKLj2v7Szp7im-5" value="&lt;h1 style=&quot;margin-top: 0px;&quot;&gt;Mappings&lt;/h1&gt;&lt;p&gt;1. model_id2cur_entity_id&lt;br&gt;&lt;/p&gt;&lt;p&gt;2. entityid2classid&lt;/p&gt;" style="text;html=1;whiteSpace=wrap;overflow=hidden;rounded=0;" parent="1" vertex="1">
          <mxGeometry x="-5705" y="2060" width="180" height="120" as="geometry" />
        </mxCell>
        <mxCell id="BQaVi7cWKLj2v7Szp7im-7" value="&lt;h1 style=&quot;margin-top: 0px;&quot;&gt;model_id2cur_entity_id&lt;/h1&gt;&lt;div&gt;1. From model_id2cur_ent_label&lt;/div&gt;&lt;div&gt;&lt;br&gt;&lt;/div&gt;&lt;div&gt;model_id2cur_entity_id = {model_id:&amp;nbsp;entity2id[&lt;span style=&quot;background-color: initial;&quot;&gt;model_id2cur_ent_label[model_id]]&lt;/span&gt;&lt;/div&gt;&lt;div&gt;&lt;span style=&quot;background-color: initial;&quot;&gt;&amp;nbsp;&lt;/span&gt;&lt;span style=&quot;background-color: initial;&quot;&gt;for model_id,_ in&amp;nbsp;&lt;/span&gt;&lt;span style=&quot;background-color: initial;&quot;&gt;model_id2cur_ent_label.items()&lt;/span&gt;&lt;span style=&quot;background-color: initial;&quot;&gt;}&lt;/span&gt;&lt;/div&gt;" style="text;html=1;whiteSpace=wrap;overflow=hidden;rounded=0;" parent="1" vertex="1">
          <mxGeometry x="-6310" y="2280" width="450" height="120" as="geometry" />
        </mxCell>
        <mxCell id="BQaVi7cWKLj2v7Szp7im-8" value="&lt;h1 style=&quot;color: rgb(0, 0, 0); font-family: Helvetica; font-style: normal; font-variant-ligatures: normal; font-variant-caps: normal; letter-spacing: normal; orphans: 2; text-indent: 0px; text-transform: none; widows: 2; word-spacing: 0px; -webkit-text-stroke-width: 0px; white-space: normal; background-color: rgb(251, 251, 251); text-decoration-thickness: initial; text-decoration-style: initial; text-decoration-color: initial; margin-top: 0px;&quot;&gt;entityid2classid&lt;/h1&gt;&lt;div&gt;entity 2 bio&lt;/div&gt;&lt;div&gt;from&amp;nbsp; entity_id + b_mask to class_id&lt;/div&gt;&lt;div&gt;&lt;br&gt;&lt;/div&gt;&lt;div&gt;entity_id2class_id = {entity_id:{} for entity_id in }&lt;/div&gt;&lt;br class=&quot;Apple-interchange-newline&quot;&gt;&lt;div&gt;&lt;br&gt;&lt;/div&gt;" style="text;html=1;align=left;verticalAlign=middle;resizable=0;points=[];autosize=1;strokeColor=none;fillColor=none;" parent="1" vertex="1">
          <mxGeometry x="-5730" y="2200" width="280" height="140" as="geometry" />
        </mxCell>
        <mxCell id="AvMDhhnIOHrWZdvuEcNj-3" value="&lt;h1&gt;To Do:&lt;/h1&gt;&lt;p&gt;&lt;span style=&quot;background-color: initial;&quot;&gt;1. Implement&lt;/span&gt;&lt;/p&gt;&lt;p&gt;&lt;span style=&quot;background-color: initial;&quot;&gt;&lt;br&gt;&lt;/span&gt;&lt;/p&gt;&lt;p&gt;&lt;span style=&quot;background-color: initial;&quot;&gt;2. Refactor for reuse&lt;/span&gt;&lt;br&gt;&lt;/p&gt;&lt;p&gt;&amp;nbsp; -&amp;nbsp; Wrap for compute_metrics&lt;br&gt;&amp;nbsp; -&amp;nbsp; Move to base py&lt;/p&gt;&lt;p&gt;3. Other base py changes:&lt;br&gt;&amp;nbsp; - instantiate config only&lt;/p&gt;&lt;p&gt;4. Begin implementation for training&lt;/p&gt;&lt;p&gt;&lt;br&gt;&lt;/p&gt;&lt;p&gt;&lt;br&gt;&lt;/p&gt;&lt;p&gt;&lt;br&gt;&lt;/p&gt;" style="text;html=1;strokeColor=none;fillColor=none;spacing=5;spacingTop=-20;whiteSpace=wrap;overflow=hidden;rounded=0;" parent="1" vertex="1">
          <mxGeometry x="-5630" y="2625" width="330" height="390" as="geometry" />
        </mxCell>
        <mxCell id="JxZPgj6JQjpvAJMjbjL0-3" style="edgeStyle=orthogonalEdgeStyle;rounded=0;orthogonalLoop=1;jettySize=auto;html=1;" edge="1" parent="1" source="cQyJpTqUK3wv69Hl3Kjj-1" target="JxZPgj6JQjpvAJMjbjL0-2">
          <mxGeometry relative="1" as="geometry" />
        </mxCell>
        <mxCell id="cQyJpTqUK3wv69Hl3Kjj-1" value="Unsplitted Dataset" style="rounded=0;whiteSpace=wrap;html=1;" parent="1" vertex="1">
          <mxGeometry x="-6150" y="280" width="150" height="90" as="geometry" />
        </mxCell>
        <mxCell id="cQyJpTqUK3wv69Hl3Kjj-2" value="&lt;h1&gt;Done:&lt;/h1&gt;&lt;p&gt;&lt;span style=&quot;background-color: initial;&quot;&gt;1. Calculate class metrics for tokens and words&lt;br&gt;&amp;nbsp;- Working version (Done)&lt;br&gt;&amp;nbsp;- Optimized version (Done)&lt;/span&gt;&lt;/p&gt;&lt;p&gt;2. Analyze results:&lt;br&gt;&lt;br&gt;&amp;nbsp; - Describe all classes: (Done)&lt;br&gt;&amp;nbsp; &amp;nbsp; &amp;nbsp;-&amp;nbsp;&lt;span style=&quot;background-color: initial;&quot;&gt;Which classes needs to be improved&lt;br&gt;&amp;nbsp; &amp;nbsp; &amp;nbsp;- Which are okay&lt;br&gt;&amp;nbsp; &amp;nbsp; &amp;nbsp;- Which don&#39;t need changes&lt;/span&gt;&lt;/p&gt;&lt;p&gt;3. Fine-tune (Done)&lt;/p&gt;&lt;p&gt;4. Analyze results&lt;/p&gt;&lt;p&gt;&amp;nbsp; - Describe all classes (From conf_matrix) : (Done)&lt;br&gt;&amp;nbsp; &amp;nbsp; &amp;nbsp;-&amp;nbsp;&lt;span style=&quot;background-color: initial;&quot;&gt;Which classes needs to be improved&lt;br&gt;&amp;nbsp; &amp;nbsp; &amp;nbsp;- Which are okay&lt;br&gt;&amp;nbsp; &amp;nbsp; &amp;nbsp;- Which don&#39;t need changes&lt;br&gt;&lt;/span&gt;&lt;span style=&quot;background-color: initial;&quot;&gt;&lt;br&gt;&lt;/span&gt;&lt;/p&gt;&lt;p&gt;&lt;span style=&quot;background-color: initial;&quot;&gt;5. Use and test new optimized metrics&lt;/span&gt;&lt;span style=&quot;background-color: initial;&quot;&gt;&lt;br&gt;&lt;/span&gt;&lt;/p&gt;&lt;p&gt;&lt;span style=&quot;background-color: initial;&quot;&gt;&amp;nbsp; - Rewrite optimized version from confusion matrix&lt;br&gt;&lt;/span&gt;&lt;span style=&quot;background-color: initial;&quot;&gt;&amp;nbsp; - Word-level metrics for fine-tuned&lt;br&gt;&lt;/span&gt;&lt;span style=&quot;background-color: initial;&quot;&gt;&amp;nbsp; - Class-level metrics&lt;br&gt;&amp;nbsp; - check validity of &quot;excluding&quot; negative classes&lt;/span&gt;&lt;/p&gt;&lt;p&gt;7. Implement consistent formatting and persistence:&lt;/p&gt;&lt;p&gt;&amp;nbsp; &amp;nbsp; - Word and Token Metrics&lt;br&gt;&lt;span style=&quot;background-color: initial;&quot;&gt;&amp;nbsp; &amp;nbsp; &amp;nbsp; &amp;nbsp; - Confusion matrix&lt;br&gt;&lt;/span&gt;&lt;span style=&quot;background-color: initial;&quot;&gt;&amp;nbsp; &amp;nbsp; &amp;nbsp; &amp;nbsp; - Total metrics&lt;br&gt;&amp;nbsp; &amp;nbsp; &amp;nbsp; &amp;nbsp; - Class level metrics&lt;/span&gt;&lt;/p&gt;&lt;p&gt;&lt;span style=&quot;background-color: initial;&quot;&gt;8.&amp;nbsp;&lt;/span&gt;&lt;span style=&quot;background-color: initial;&quot;&gt;Test on new notebook and improvements = (Done)&lt;br&gt;&lt;/span&gt;&lt;/p&gt;&lt;p&gt;&lt;span style=&quot;background-color: initial;&quot;&gt;&amp;nbsp; - Research and decide final way to asign subword labels&lt;br&gt;&amp;nbsp; - Definitive way to handle BIO conversion&lt;br&gt;&amp;nbsp; - Refactor metrics to account for different setups&lt;br&gt;&amp;nbsp;&lt;/span&gt;&lt;span style=&quot;background-color: initial;&quot;&gt;&amp;nbsp;- compute metrics of version 0&lt;/span&gt;&lt;/p&gt;&lt;p&gt;&lt;span style=&quot;background-color: initial;&quot;&gt;10. Record data structure and search&lt;br&gt;&lt;/span&gt;&lt;span style=&quot;background-color: initial;&quot;&gt;&amp;nbsp; &amp;nbsp;- implement data structure for searching entries (Done)&lt;br&gt;&amp;nbsp; &amp;nbsp;- implement search (done)&lt;/span&gt;&lt;br&gt;&lt;/p&gt;&lt;p&gt;&lt;br&gt;&lt;/p&gt;&lt;p&gt;&lt;br&gt;&lt;/p&gt;" style="text;html=1;strokeColor=none;fillColor=none;spacing=5;spacingTop=-20;whiteSpace=wrap;overflow=hidden;rounded=0;" parent="1" vertex="1">
          <mxGeometry x="-4870" y="2600" width="330" height="680" as="geometry" />
        </mxCell>
        <mxCell id="cQyJpTqUK3wv69Hl3Kjj-3" value="&lt;h1&gt;In Progress:&lt;/h1&gt;&lt;p&gt;&lt;span style=&quot;background-color: initial;&quot;&gt;9. Comparison code:&lt;br&gt;&lt;/span&gt;&lt;/p&gt;&lt;p&gt;&lt;span style=&quot;background-color: initial;&quot;&gt;&amp;nbsp; &amp;nbsp; - Summary of significant changes&lt;br&gt;&amp;nbsp; &amp;nbsp; - Display improvements, worse results&lt;br&gt;&amp;nbsp; &amp;nbsp; - Confusion matrix diff (Green,Red colormap)&lt;/span&gt;&lt;/p&gt;&lt;p&gt;&lt;br&gt;&lt;/p&gt;&lt;p&gt;&lt;span style=&quot;background-color: initial;&quot;&gt;11. Inspect input data properties&amp;nbsp;&lt;/span&gt;&lt;/p&gt;&lt;p&gt;&lt;span style=&quot;background-color: initial;&quot;&gt;&amp;nbsp; &amp;nbsp;-&amp;nbsp;&lt;/span&gt;&lt;span style=&quot;background-color: initial;&quot;&gt;Check entries with only &#39;O&#39; labels (peek)&lt;br&gt;&lt;/span&gt;&amp;nbsp; &amp;nbsp;- Check where NAME_STUDENT is not detected&lt;br&gt;&amp;nbsp; &amp;nbsp;- Check misidentifications:&lt;br&gt;&amp;nbsp; &amp;nbsp; &amp;nbsp;-&amp;nbsp;B-Phone_Number, I-Phone-Number as&amp;nbsp; B-ID_NUM, I-ID_NUM&lt;br&gt;&amp;nbsp; &amp;nbsp; &amp;nbsp;-&amp;nbsp;B_Email as B-URL_Personal&lt;/p&gt;&lt;p&gt;11. Refactor code:&lt;br&gt;&amp;nbsp;- Postprocessing code (Done)&lt;br&gt;&amp;nbsp;- Metrics computation (Done)&lt;br&gt;&amp;nbsp;-&amp;nbsp;&lt;br&gt;&amp;nbsp;&lt;/p&gt;&lt;p&gt;&lt;span style=&quot;background-color: initial;&quot;&gt;&lt;br&gt;&lt;/span&gt;&lt;/p&gt;&lt;p&gt;&lt;br&gt;&lt;/p&gt;&lt;p&gt;&lt;br&gt;&lt;/p&gt;&lt;p&gt;&lt;br&gt;&lt;/p&gt;" style="text;html=1;strokeColor=none;fillColor=none;spacing=5;spacingTop=-20;whiteSpace=wrap;overflow=hidden;rounded=0;" parent="1" vertex="1">
          <mxGeometry x="-5300" y="2640" width="370" height="400" as="geometry" />
        </mxCell>
        <mxCell id="JxZPgj6JQjpvAJMjbjL0-7" value="" style="edgeStyle=orthogonalEdgeStyle;rounded=0;orthogonalLoop=1;jettySize=auto;html=1;" edge="1" parent="1" source="JxZPgj6JQjpvAJMjbjL0-2" target="JxZPgj6JQjpvAJMjbjL0-6">
          <mxGeometry relative="1" as="geometry" />
        </mxCell>
        <mxCell id="JxZPgj6JQjpvAJMjbjL0-2" value="Count Labels" style="rounded=0;whiteSpace=wrap;html=1;" vertex="1" parent="1">
          <mxGeometry x="-6150" y="400" width="150" height="90" as="geometry" />
        </mxCell>
        <mxCell id="JxZPgj6JQjpvAJMjbjL0-4" value="" style="ellipse;whiteSpace=wrap;html=1;aspect=fixed;" vertex="1" parent="1">
          <mxGeometry x="-6630" y="160" width="80" height="80" as="geometry" />
        </mxCell>
        <mxCell id="JxZPgj6JQjpvAJMjbjL0-11" value="" style="edgeStyle=orthogonalEdgeStyle;rounded=0;orthogonalLoop=1;jettySize=auto;html=1;" edge="1" parent="1" source="JxZPgj6JQjpvAJMjbjL0-6" target="JxZPgj6JQjpvAJMjbjL0-10">
          <mxGeometry relative="1" as="geometry" />
        </mxCell>
        <mxCell id="JxZPgj6JQjpvAJMjbjL0-6" value="Cluster" style="rounded=0;whiteSpace=wrap;html=1;" vertex="1" parent="1">
          <mxGeometry x="-6150" y="520" width="150" height="90" as="geometry" />
        </mxCell>
        <mxCell id="JxZPgj6JQjpvAJMjbjL0-13" value="" style="edgeStyle=orthogonalEdgeStyle;rounded=0;orthogonalLoop=1;jettySize=auto;html=1;" edge="1" parent="1" source="JxZPgj6JQjpvAJMjbjL0-10">
          <mxGeometry relative="1" as="geometry">
            <mxPoint x="-6075" y="760" as="targetPoint" />
          </mxGeometry>
        </mxCell>
        <mxCell id="JxZPgj6JQjpvAJMjbjL0-24" value="" style="edgeStyle=orthogonalEdgeStyle;rounded=0;orthogonalLoop=1;jettySize=auto;html=1;" edge="1" parent="1" source="JxZPgj6JQjpvAJMjbjL0-10">
          <mxGeometry relative="1" as="geometry">
            <mxPoint x="-6075" y="760" as="targetPoint" />
          </mxGeometry>
        </mxCell>
        <mxCell id="JxZPgj6JQjpvAJMjbjL0-10" value="split to train, valid (stratify)" style="rounded=0;whiteSpace=wrap;html=1;" vertex="1" parent="1">
          <mxGeometry x="-6150" y="640" width="150" height="90" as="geometry" />
        </mxCell>
        <mxCell id="JxZPgj6JQjpvAJMjbjL0-16" value="" style="edgeStyle=orthogonalEdgeStyle;rounded=0;orthogonalLoop=1;jettySize=auto;html=1;" edge="1" parent="1" source="JxZPgj6JQjpvAJMjbjL0-14" target="JxZPgj6JQjpvAJMjbjL0-15">
          <mxGeometry relative="1" as="geometry" />
        </mxCell>
        <mxCell id="JxZPgj6JQjpvAJMjbjL0-14" value="initialize model adapter&lt;div&gt;(From scratch classifier,&lt;/div&gt;&lt;div&gt;preserve bio)&lt;/div&gt;" style="rounded=0;whiteSpace=wrap;html=1;" vertex="1" parent="1">
          <mxGeometry x="-6640" y="640" width="150" height="90" as="geometry" />
        </mxCell>
        <mxCell id="JxZPgj6JQjpvAJMjbjL0-20" value="" style="edgeStyle=orthogonalEdgeStyle;rounded=0;orthogonalLoop=1;jettySize=auto;html=1;" edge="1" parent="1" source="JxZPgj6JQjpvAJMjbjL0-15" target="JxZPgj6JQjpvAJMjbjL0-19">
          <mxGeometry relative="1" as="geometry" />
        </mxCell>
        <mxCell id="JxZPgj6JQjpvAJMjbjL0-15" value="Calculate model classes" style="rounded=0;whiteSpace=wrap;html=1;" vertex="1" parent="1">
          <mxGeometry x="-6640" y="760" width="150" height="90" as="geometry" />
        </mxCell>
        <mxCell id="JxZPgj6JQjpvAJMjbjL0-19" value="Calculate mappings for&lt;br&gt;Target Label 2 model IDs" style="rounded=0;whiteSpace=wrap;html=1;" vertex="1" parent="1">
          <mxGeometry x="-6640" y="880" width="150" height="90" as="geometry" />
        </mxCell>
        <mxCell id="JxZPgj6JQjpvAJMjbjL0-21" value="initialize model adapter&lt;div&gt;(From scratch classifier)&lt;/div&gt;" style="rounded=0;whiteSpace=wrap;html=1;" vertex="1" parent="1">
          <mxGeometry x="-6360" y="640" width="150" height="90" as="geometry" />
        </mxCell>
        <mxCell id="JxZPgj6JQjpvAJMjbjL0-29" value="" style="edgeStyle=orthogonalEdgeStyle;rounded=0;orthogonalLoop=1;jettySize=auto;html=1;" edge="1" parent="1" source="JxZPgj6JQjpvAJMjbjL0-25">
          <mxGeometry relative="1" as="geometry">
            <mxPoint x="-6075" y="920" as="targetPoint" />
          </mxGeometry>
        </mxCell>
        <mxCell id="JxZPgj6JQjpvAJMjbjL0-25" value="Start of preprocessing" style="rounded=0;whiteSpace=wrap;html=1;" vertex="1" parent="1">
          <mxGeometry x="-6150" y="760" width="150" height="90" as="geometry" />
        </mxCell>
        <mxCell id="JxZPgj6JQjpvAJMjbjL0-32" value="" style="edgeStyle=orthogonalEdgeStyle;rounded=0;orthogonalLoop=1;jettySize=auto;html=1;" edge="1" parent="1" source="JxZPgj6JQjpvAJMjbjL0-30" target="JxZPgj6JQjpvAJMjbjL0-31">
          <mxGeometry relative="1" as="geometry" />
        </mxCell>
        <mxCell id="JxZPgj6JQjpvAJMjbjL0-30" value="Convert to model classes&lt;div&gt;(words to subwords)&lt;/div&gt;" style="rounded=0;whiteSpace=wrap;html=1;" vertex="1" parent="1">
          <mxGeometry x="-5810" y="640" width="150" height="90" as="geometry" />
        </mxCell>
        <mxCell id="JxZPgj6JQjpvAJMjbjL0-38" value="" style="edgeStyle=orthogonalEdgeStyle;rounded=0;orthogonalLoop=1;jettySize=auto;html=1;" edge="1" parent="1" source="JxZPgj6JQjpvAJMjbjL0-31" target="JxZPgj6JQjpvAJMjbjL0-37">
          <mxGeometry relative="1" as="geometry" />
        </mxCell>
        <mxCell id="JxZPgj6JQjpvAJMjbjL0-31" value="encode/tokenize words to subwords" style="whiteSpace=wrap;html=1;rounded=0;strokeColor=default;align=center;verticalAlign=middle;fontFamily=Helvetica;fontSize=12;fontColor=default;fillColor=default;" vertex="1" parent="1">
          <mxGeometry x="-5810" y="760" width="150" height="90" as="geometry" />
        </mxCell>
        <mxCell id="JxZPgj6JQjpvAJMjbjL0-36" value="Convert to model classes&lt;div&gt;(words to subwords)&lt;/div&gt;" style="rounded=0;whiteSpace=wrap;html=1;" vertex="1" parent="1">
          <mxGeometry x="-5300" y="590" width="150" height="90" as="geometry" />
        </mxCell>
        <mxCell id="JxZPgj6JQjpvAJMjbjL0-45" value="" style="edgeStyle=orthogonalEdgeStyle;rounded=0;orthogonalLoop=1;jettySize=auto;html=1;" edge="1" parent="1" source="JxZPgj6JQjpvAJMjbjL0-37" target="JxZPgj6JQjpvAJMjbjL0-44">
          <mxGeometry relative="1" as="geometry" />
        </mxCell>
        <mxCell id="JxZPgj6JQjpvAJMjbjL0-47" value="" style="edgeStyle=orthogonalEdgeStyle;rounded=0;orthogonalLoop=1;jettySize=auto;html=1;" edge="1" parent="1" source="JxZPgj6JQjpvAJMjbjL0-37" target="JxZPgj6JQjpvAJMjbjL0-46">
          <mxGeometry relative="1" as="geometry" />
        </mxCell>
        <mxCell id="JxZPgj6JQjpvAJMjbjL0-37" value="Align words to subwords" style="whiteSpace=wrap;html=1;rounded=0;strokeColor=default;align=center;verticalAlign=middle;fontFamily=Helvetica;fontSize=12;fontColor=default;fillColor=default;" vertex="1" parent="1">
          <mxGeometry x="-5810" y="880" width="150" height="90" as="geometry" />
        </mxCell>
        <mxCell id="JxZPgj6JQjpvAJMjbjL0-49" value="" style="edgeStyle=orthogonalEdgeStyle;rounded=0;orthogonalLoop=1;jettySize=auto;html=1;" edge="1" parent="1" source="JxZPgj6JQjpvAJMjbjL0-39" target="JxZPgj6JQjpvAJMjbjL0-48">
          <mxGeometry relative="1" as="geometry" />
        </mxCell>
        <mxCell id="JxZPgj6JQjpvAJMjbjL0-39" value="Align words to subwords&lt;div&gt;(reorder)&lt;/div&gt;" style="whiteSpace=wrap;html=1;rounded=0;strokeColor=default;align=center;verticalAlign=middle;fontFamily=Helvetica;fontSize=12;fontColor=default;fillColor=default;" vertex="1" parent="1">
          <mxGeometry x="-5460" y="870" width="150" height="90" as="geometry" />
        </mxCell>
        <mxCell id="JxZPgj6JQjpvAJMjbjL0-40" value="Align words to subwords&lt;div&gt;(Distribute)&lt;/div&gt;" style="whiteSpace=wrap;html=1;rounded=0;strokeColor=default;align=center;verticalAlign=middle;fontFamily=Helvetica;fontSize=12;fontColor=default;fillColor=default;" vertex="1" parent="1">
          <mxGeometry x="-4960" y="750" width="150" height="90" as="geometry" />
        </mxCell>
        <mxCell id="JxZPgj6JQjpvAJMjbjL0-44" value="New Tokens" style="ellipse;whiteSpace=wrap;html=1;rounded=0;" vertex="1" parent="1">
          <mxGeometry x="-5850" y="1010" width="80" height="80" as="geometry" />
        </mxCell>
        <mxCell id="JxZPgj6JQjpvAJMjbjL0-53" style="edgeStyle=orthogonalEdgeStyle;rounded=0;orthogonalLoop=1;jettySize=auto;html=1;" edge="1" parent="1" source="JxZPgj6JQjpvAJMjbjL0-46" target="JxZPgj6JQjpvAJMjbjL0-52">
          <mxGeometry relative="1" as="geometry" />
        </mxCell>
        <mxCell id="JxZPgj6JQjpvAJMjbjL0-46" value="New Labels" style="ellipse;whiteSpace=wrap;html=1;rounded=0;" vertex="1" parent="1">
          <mxGeometry x="-5705" y="1010" width="80" height="80" as="geometry" />
        </mxCell>
        <mxCell id="JxZPgj6JQjpvAJMjbjL0-48" value="word alignment" style="whiteSpace=wrap;html=1;rounded=0;" vertex="1" parent="1">
          <mxGeometry x="-5445" y="1000" width="120" height="60" as="geometry" />
        </mxCell>
        <mxCell id="JxZPgj6JQjpvAJMjbjL0-51" value="B" style="whiteSpace=wrap;html=1;rounded=0;" vertex="1" parent="1">
          <mxGeometry x="-4910" y="1140" width="120" height="60" as="geometry" />
        </mxCell>
        <mxCell id="JxZPgj6JQjpvAJMjbjL0-59" value="" style="edgeStyle=orthogonalEdgeStyle;rounded=0;orthogonalLoop=1;jettySize=auto;html=1;" edge="1" parent="1" source="JxZPgj6JQjpvAJMjbjL0-52" target="JxZPgj6JQjpvAJMjbjL0-58">
          <mxGeometry relative="1" as="geometry" />
        </mxCell>
        <mxCell id="JxZPgj6JQjpvAJMjbjL0-52" value="Convert to model ids" style="whiteSpace=wrap;html=1;rounded=0;strokeColor=default;align=center;verticalAlign=middle;fontFamily=Helvetica;fontSize=12;fontColor=default;fillColor=default;" vertex="1" parent="1">
          <mxGeometry x="-5810" y="1150" width="150" height="90" as="geometry" />
        </mxCell>
        <mxCell id="JxZPgj6JQjpvAJMjbjL0-63" style="edgeStyle=orthogonalEdgeStyle;rounded=0;orthogonalLoop=1;jettySize=auto;html=1;" edge="1" parent="1" source="JxZPgj6JQjpvAJMjbjL0-58" target="JxZPgj6JQjpvAJMjbjL0-62">
          <mxGeometry relative="1" as="geometry" />
        </mxCell>
        <mxCell id="JxZPgj6JQjpvAJMjbjL0-64" style="edgeStyle=orthogonalEdgeStyle;rounded=0;orthogonalLoop=1;jettySize=auto;html=1;" edge="1" parent="1" source="JxZPgj6JQjpvAJMjbjL0-58" target="JxZPgj6JQjpvAJMjbjL0-60">
          <mxGeometry relative="1" as="geometry" />
        </mxCell>
        <mxCell id="JxZPgj6JQjpvAJMjbjL0-58" value="To Dataset" style="whiteSpace=wrap;html=1;rounded=0;strokeColor=default;align=center;verticalAlign=middle;fontFamily=Helvetica;fontSize=12;fontColor=default;fillColor=default;" vertex="1" parent="1">
          <mxGeometry x="-5810" y="1280" width="150" height="90" as="geometry" />
        </mxCell>
        <mxCell id="JxZPgj6JQjpvAJMjbjL0-60" value="Valid" style="ellipse;whiteSpace=wrap;html=1;rounded=0;" vertex="1" parent="1">
          <mxGeometry x="-5700" y="1400" width="80" height="80" as="geometry" />
        </mxCell>
        <mxCell id="JxZPgj6JQjpvAJMjbjL0-62" value="Train" style="ellipse;whiteSpace=wrap;html=1;rounded=0;" vertex="1" parent="1">
          <mxGeometry x="-5850" y="1400" width="80" height="80" as="geometry" />
        </mxCell>
        <mxCell id="JxZPgj6JQjpvAJMjbjL0-65" value="" style="edgeStyle=orthogonalEdgeStyle;rounded=0;orthogonalLoop=1;jettySize=auto;html=1;" edge="1" parent="1" source="JxZPgj6JQjpvAJMjbjL0-66" target="JxZPgj6JQjpvAJMjbjL0-69">
          <mxGeometry relative="1" as="geometry" />
        </mxCell>
        <mxCell id="JxZPgj6JQjpvAJMjbjL0-66" value="encode/tokenize words to subwords" style="whiteSpace=wrap;html=1;rounded=0;strokeColor=default;align=center;verticalAlign=middle;fontFamily=Helvetica;fontSize=12;fontColor=default;fillColor=default;" vertex="1" parent="1">
          <mxGeometry x="-6150" y="920" width="150" height="90" as="geometry" />
        </mxCell>
        <mxCell id="JxZPgj6JQjpvAJMjbjL0-67" value="" style="edgeStyle=orthogonalEdgeStyle;rounded=0;orthogonalLoop=1;jettySize=auto;html=1;" edge="1" parent="1" source="JxZPgj6JQjpvAJMjbjL0-69" target="JxZPgj6JQjpvAJMjbjL0-70">
          <mxGeometry relative="1" as="geometry" />
        </mxCell>
        <mxCell id="JxZPgj6JQjpvAJMjbjL0-68" value="" style="edgeStyle=orthogonalEdgeStyle;rounded=0;orthogonalLoop=1;jettySize=auto;html=1;" edge="1" parent="1" source="JxZPgj6JQjpvAJMjbjL0-69" target="JxZPgj6JQjpvAJMjbjL0-72">
          <mxGeometry relative="1" as="geometry" />
        </mxCell>
        <mxCell id="JxZPgj6JQjpvAJMjbjL0-69" value="Align words to subwords" style="whiteSpace=wrap;html=1;rounded=0;strokeColor=default;align=center;verticalAlign=middle;fontFamily=Helvetica;fontSize=12;fontColor=default;fillColor=default;" vertex="1" parent="1">
          <mxGeometry x="-6150" y="1040" width="150" height="90" as="geometry" />
        </mxCell>
        <mxCell id="JxZPgj6JQjpvAJMjbjL0-70" value="New Tokens" style="ellipse;whiteSpace=wrap;html=1;rounded=0;" vertex="1" parent="1">
          <mxGeometry x="-6190" y="1170" width="80" height="80" as="geometry" />
        </mxCell>
        <mxCell id="JxZPgj6JQjpvAJMjbjL0-71" style="edgeStyle=orthogonalEdgeStyle;rounded=0;orthogonalLoop=1;jettySize=auto;html=1;" edge="1" parent="1" source="JxZPgj6JQjpvAJMjbjL0-72" target="JxZPgj6JQjpvAJMjbjL0-74">
          <mxGeometry relative="1" as="geometry" />
        </mxCell>
        <mxCell id="JxZPgj6JQjpvAJMjbjL0-72" value="New Labels" style="ellipse;whiteSpace=wrap;html=1;rounded=0;" vertex="1" parent="1">
          <mxGeometry x="-6045" y="1170" width="80" height="80" as="geometry" />
        </mxCell>
        <mxCell id="JxZPgj6JQjpvAJMjbjL0-73" value="" style="edgeStyle=orthogonalEdgeStyle;rounded=0;orthogonalLoop=1;jettySize=auto;html=1;" edge="1" parent="1" source="JxZPgj6JQjpvAJMjbjL0-74" target="JxZPgj6JQjpvAJMjbjL0-77">
          <mxGeometry relative="1" as="geometry" />
        </mxCell>
        <mxCell id="JxZPgj6JQjpvAJMjbjL0-74" value="Convert to model ids" style="whiteSpace=wrap;html=1;rounded=0;strokeColor=default;align=center;verticalAlign=middle;fontFamily=Helvetica;fontSize=12;fontColor=default;fillColor=default;" vertex="1" parent="1">
          <mxGeometry x="-6150" y="1310" width="150" height="90" as="geometry" />
        </mxCell>
        <mxCell id="JxZPgj6JQjpvAJMjbjL0-75" style="edgeStyle=orthogonalEdgeStyle;rounded=0;orthogonalLoop=1;jettySize=auto;html=1;" edge="1" parent="1" source="JxZPgj6JQjpvAJMjbjL0-77" target="JxZPgj6JQjpvAJMjbjL0-79">
          <mxGeometry relative="1" as="geometry" />
        </mxCell>
        <mxCell id="JxZPgj6JQjpvAJMjbjL0-76" style="edgeStyle=orthogonalEdgeStyle;rounded=0;orthogonalLoop=1;jettySize=auto;html=1;" edge="1" parent="1" source="JxZPgj6JQjpvAJMjbjL0-77" target="JxZPgj6JQjpvAJMjbjL0-78">
          <mxGeometry relative="1" as="geometry" />
        </mxCell>
        <mxCell id="JxZPgj6JQjpvAJMjbjL0-77" value="To Dataset" style="whiteSpace=wrap;html=1;rounded=0;strokeColor=default;align=center;verticalAlign=middle;fontFamily=Helvetica;fontSize=12;fontColor=default;fillColor=default;" vertex="1" parent="1">
          <mxGeometry x="-6150" y="1440" width="150" height="90" as="geometry" />
        </mxCell>
        <mxCell id="JxZPgj6JQjpvAJMjbjL0-78" value="Valid" style="ellipse;whiteSpace=wrap;html=1;rounded=0;" vertex="1" parent="1">
          <mxGeometry x="-6040" y="1560" width="80" height="80" as="geometry" />
        </mxCell>
        <mxCell id="JxZPgj6JQjpvAJMjbjL0-79" value="Train" style="ellipse;whiteSpace=wrap;html=1;rounded=0;" vertex="1" parent="1">
          <mxGeometry x="-6190" y="1560" width="80" height="80" as="geometry" />
        </mxCell>
        <mxCell id="JxZPgj6JQjpvAJMjbjL0-80" value="Align words to subwords&lt;div&gt;(preserve)&lt;/div&gt;" style="whiteSpace=wrap;html=1;rounded=0;strokeColor=default;align=center;verticalAlign=middle;fontFamily=Helvetica;fontSize=12;fontColor=default;fillColor=default;" vertex="1" parent="1">
          <mxGeometry x="-5280" y="870" width="150" height="90" as="geometry" />
        </mxCell>
        <mxCell id="JxZPgj6JQjpvAJMjbjL0-81" value="initialize model adapter&lt;div&gt;(From external classifier)&lt;/div&gt;" style="rounded=0;whiteSpace=wrap;html=1;" vertex="1" parent="1">
          <mxGeometry x="-7020" y="640" width="150" height="90" as="geometry" />
        </mxCell>
        <mxCell id="JxZPgj6JQjpvAJMjbjL0-82" value="initialize model adapter&lt;div&gt;(From fine-tuned classifier,&lt;/div&gt;&lt;div&gt;reorder bio)&lt;/div&gt;" style="rounded=0;whiteSpace=wrap;html=1;" vertex="1" parent="1">
          <mxGeometry x="-6830" y="640" width="150" height="90" as="geometry" />
        </mxCell>
        <mxCell id="JxZPgj6JQjpvAJMjbjL0-84" value="&lt;h1 style=&quot;margin-top: 0px;&quot;&gt;config&lt;/h1&gt;&lt;p&gt;&lt;/p&gt;&lt;span style=&quot;background-color: initial;&quot;&gt;&lt;div&gt;&lt;span style=&quot;background-color: initial;&quot;&gt;&lt;b&gt;Required&lt;/b&gt;:&lt;/span&gt;&lt;/div&gt;&lt;/span&gt;&lt;span style=&quot;background-color: initial;&quot;&gt;bio_mode&lt;/span&gt;&lt;br&gt;&lt;span style=&quot;background-color: initial;&quot;&gt;model_name&lt;/span&gt;&lt;div&gt;&lt;br&gt;&lt;/div&gt;&lt;div&gt;&lt;b&gt;Situational:&lt;/b&gt;&lt;/div&gt;&lt;div&gt;threshold&lt;/div&gt;&lt;div&gt;config_only&lt;/div&gt;&lt;div&gt;checkpoint_path&lt;br&gt;&lt;/div&gt;&lt;div&gt;num_labels&lt;/div&gt;&lt;div&gt;&lt;br&gt;&lt;/div&gt;&lt;div&gt;&lt;b&gt;Metrics&lt;/b&gt;:&lt;/div&gt;&lt;div&gt;&lt;div&gt;will_bio_words&lt;/div&gt;&lt;div&gt;will_bio_tokens&lt;/div&gt;&lt;div&gt;&lt;br&gt;&lt;/div&gt;&lt;p&gt;&lt;/p&gt;&lt;/div&gt;" style="text;html=1;whiteSpace=wrap;overflow=hidden;rounded=0;" vertex="1" parent="1">
          <mxGeometry x="-7320" y="220" width="180" height="295" as="geometry" />
        </mxCell>
        <mxCell id="JxZPgj6JQjpvAJMjbjL0-90" value="&lt;h1 style=&quot;margin-top: 0px;&quot;&gt;attributes&lt;/h1&gt;&lt;p&gt;&lt;/p&gt;&lt;span style=&quot;background-color: initial;&quot;&gt;&lt;div&gt;&lt;span style=&quot;background-color: initial;&quot;&gt;&lt;b&gt;Required&lt;/b&gt;:&lt;/span&gt;&lt;/div&gt;&lt;/span&gt;&lt;div&gt;&lt;div&gt;labels (model_labels)&lt;/div&gt;&lt;div&gt;t_label2m_id&lt;/div&gt;&lt;div&gt;&lt;div&gt;&lt;br&gt;&lt;/div&gt;&lt;div&gt;&lt;b&gt;From non_bio:&lt;/b&gt;&lt;/div&gt;&lt;div&gt;m_id2t_ent&lt;br&gt;&lt;/div&gt;&lt;div&gt;&lt;br&gt;&lt;/div&gt;&lt;div&gt;&lt;b&gt;From non-scratch&lt;/b&gt;:&lt;/div&gt;&lt;div&gt;&lt;div&gt;o_id&lt;/div&gt;&lt;div&gt;&lt;br&gt;&lt;/div&gt;&lt;p&gt;&lt;/p&gt;&lt;/div&gt;&lt;/div&gt;&lt;/div&gt;" style="text;html=1;whiteSpace=wrap;overflow=hidden;rounded=0;" vertex="1" parent="1">
          <mxGeometry x="-7110" y="202.5" width="180" height="295" as="geometry" />
        </mxCell>
        <mxCell id="JxZPgj6JQjpvAJMjbjL0-91" value="&lt;h1 style=&quot;margin-top: 0px;&quot;&gt;Mapping cases&amp;nbsp;&lt;/h1&gt;&lt;p&gt;&lt;/p&gt;&lt;span style=&quot;background-color: initial;&quot;&gt;&lt;ol&gt;&lt;li&gt;External Labels&lt;/li&gt;&lt;ol&gt;&lt;li&gt;Reordered BIO&lt;/li&gt;&lt;li&gt;Preserved BIO&lt;/li&gt;&lt;/ol&gt;&lt;li&gt;Fine-tuned Labels&lt;/li&gt;&lt;ol&gt;&lt;li&gt;Reorder Bio&lt;/li&gt;&lt;li&gt;Preserved BIO&lt;/li&gt;&lt;/ol&gt;&lt;/ol&gt;&lt;/span&gt;&lt;div&gt;&lt;div&gt;&lt;div&gt;&lt;p&gt;&lt;/p&gt;&lt;/div&gt;&lt;/div&gt;&lt;/div&gt;" style="text;html=1;whiteSpace=wrap;overflow=hidden;rounded=0;" vertex="1" parent="1">
          <mxGeometry x="-7680" y="220" width="280" height="295" as="geometry" />
        </mxCell>
      </root>
    </mxGraphModel>
  </diagram>
</mxfile>
